<?xml version="1.0" encoding="UTF-8"?>
<svg xmlns="http://www.w3.org/2000/svg" xmlns:xlink="http://www.w3.org/1999/xlink" stroke-dasharray="none" shape-rendering="auto" font-family="'Dialog'" width="1448" text-rendering="auto" fill-opacity="1" contentScriptType="text/ecmascript" color-interpolation="auto" color-rendering="auto" preserveAspectRatio="xMidYMid meet" font-size="12" viewBox="0 0 1448 1270" fill="black" stroke="black" image-rendering="auto" stroke-miterlimit="10" zoomAndPan="magnify" version="1.0" stroke-linecap="square" stroke-linejoin="miter" contentStyleType="text/css" font-style="normal" height="1270" stroke-width="1" stroke-dashoffset="0" font-weight="normal" stroke-opacity="1">
  <!--Generated by the Batik Graphics2D SVG Generator-->
  <defs id="genericDefs" />
  <g>
    <defs id="defs1">
      <clipPath clipPathUnits="userSpaceOnUse" id="clipPath1">
        <path d="M325 9 L397 9 L397 41 L325 41 L325 9 Z" />
      </clipPath>
      <clipPath clipPathUnits="userSpaceOnUse" id="clipPath2">
        <path d="M355 39 L367 39 L367 1261 L355 1261 L355 39 Z" />
      </clipPath>
      <clipPath clipPathUnits="userSpaceOnUse" id="clipPath3">
        <path d="M425 9 L547 9 L547 61 L425 61 L425 9 Z" />
      </clipPath>
      <clipPath clipPathUnits="userSpaceOnUse" id="clipPath4">
        <path d="M425 9 L553 9 L553 61 L425 61 L425 9 Z" />
      </clipPath>
      <clipPath clipPathUnits="userSpaceOnUse" id="clipPath5">
        <path d="M480 59 L492 59 L492 1261 L480 1261 L480 59 Z" />
      </clipPath>
      <clipPath clipPathUnits="userSpaceOnUse" id="clipPath6">
        <path d="M555 9 L676 9 L676 61 L555 61 L555 9 Z" />
      </clipPath>
      <clipPath clipPathUnits="userSpaceOnUse" id="clipPath7">
        <path d="M555 9 L682 9 L682 61 L555 61 L555 9 Z" />
      </clipPath>
      <clipPath clipPathUnits="userSpaceOnUse" id="clipPath8">
        <path d="M609 59 L621 59 L621 1261 L609 1261 L609 59 Z" />
      </clipPath>
      <clipPath clipPathUnits="userSpaceOnUse" id="clipPath9">
        <path d="M604 509 L626 509 L626 551 L604 551 L604 509 Z" />
      </clipPath>
      <clipPath clipPathUnits="userSpaceOnUse" id="clipPath10">
        <path d="M625 509 L715 509 L715 544 L625 544 L625 509 Z" />
      </clipPath>
      <clipPath clipPathUnits="userSpaceOnUse" id="clipPath11">
        <path d="M604 809 L626 809 L626 851 L604 851 L604 809 Z" />
      </clipPath>
      <clipPath clipPathUnits="userSpaceOnUse" id="clipPath12">
        <path d="M625 809 L715 809 L715 844 L625 844 L625 809 Z" />
      </clipPath>
      <clipPath clipPathUnits="userSpaceOnUse" id="clipPath13">
        <path d="M684 9 L816 9 L816 61 L684 61 L684 9 Z" />
      </clipPath>
      <clipPath clipPathUnits="userSpaceOnUse" id="clipPath14">
        <path d="M684 9 L821 9 L821 61 L684 61 L684 9 Z" />
      </clipPath>
      <clipPath clipPathUnits="userSpaceOnUse" id="clipPath15">
        <path d="M684 9 L822 9 L822 61 L684 61 L684 9 Z" />
      </clipPath>
      <clipPath clipPathUnits="userSpaceOnUse" id="clipPath16">
        <path d="M744 59 L756 59 L756 1261 L744 1261 L744 59 Z" />
      </clipPath>
      <clipPath clipPathUnits="userSpaceOnUse" id="clipPath17">
        <path d="M824 9 L958 9 L958 61 L824 61 L824 9 Z" />
      </clipPath>
      <clipPath clipPathUnits="userSpaceOnUse" id="clipPath18">
        <path d="M824 9 L965 9 L965 61 L824 61 L824 9 Z" />
      </clipPath>
      <clipPath clipPathUnits="userSpaceOnUse" id="clipPath19">
        <path d="M824 9 L964 9 L964 61 L824 61 L824 9 Z" />
      </clipPath>
      <clipPath clipPathUnits="userSpaceOnUse" id="clipPath20">
        <path d="M885 59 L897 59 L897 1261 L885 1261 L885 59 Z" />
      </clipPath>
      <clipPath clipPathUnits="userSpaceOnUse" id="clipPath21">
        <path d="M880 689 L902 689 L902 731 L880 731 L880 689 Z" />
      </clipPath>
      <clipPath clipPathUnits="userSpaceOnUse" id="clipPath22">
        <path d="M901 689 L991 689 L991 724 L901 724 L901 689 Z" />
      </clipPath>
      <clipPath clipPathUnits="userSpaceOnUse" id="clipPath23">
        <path d="M880 389 L902 389 L902 431 L880 431 L880 389 Z" />
      </clipPath>
      <clipPath clipPathUnits="userSpaceOnUse" id="clipPath24">
        <path d="M901 389 L971 389 L971 424 L901 424 L901 389 Z" />
      </clipPath>
      <clipPath clipPathUnits="userSpaceOnUse" id="clipPath25">
        <path d="M880 749 L902 749 L902 791 L880 791 L880 749 Z" />
      </clipPath>
      <clipPath clipPathUnits="userSpaceOnUse" id="clipPath26">
        <path d="M901 749 L971 749 L971 784 L901 784 L901 749 Z" />
      </clipPath>
      <clipPath clipPathUnits="userSpaceOnUse" id="clipPath27">
        <path d="M966 9 L1090 9 L1090 61 L966 61 L966 9 Z" />
      </clipPath>
      <clipPath clipPathUnits="userSpaceOnUse" id="clipPath28">
        <path d="M966 9 L1097 9 L1097 61 L966 61 L966 9 Z" />
      </clipPath>
      <clipPath clipPathUnits="userSpaceOnUse" id="clipPath29">
        <path d="M966 9 L1096 9 L1096 61 L966 61 L966 9 Z" />
      </clipPath>
      <clipPath clipPathUnits="userSpaceOnUse" id="clipPath30">
        <path d="M1022 59 L1034 59 L1034 1261 L1022 1261 L1022 59 Z" />
      </clipPath>
      <clipPath clipPathUnits="userSpaceOnUse" id="clipPath31">
        <path d="M1017 98 L1039 98 L1039 140 L1017 140 L1017 98 Z" />
      </clipPath>
      <clipPath clipPathUnits="userSpaceOnUse" id="clipPath32">
        <path d="M1038 98 L1128 98 L1128 133 L1038 133 L1038 98 Z" />
      </clipPath>
      <clipPath clipPathUnits="userSpaceOnUse" id="clipPath33">
        <path d="M1017 209 L1039 209 L1039 251 L1017 251 L1017 209 Z" />
      </clipPath>
      <clipPath clipPathUnits="userSpaceOnUse" id="clipPath34">
        <path d="M1038 209 L1128 209 L1128 244 L1038 244 L1038 209 Z" />
      </clipPath>
      <clipPath clipPathUnits="userSpaceOnUse" id="clipPath35">
        <path d="M1017 329 L1039 329 L1039 371 L1017 371 L1017 329 Z" />
      </clipPath>
      <clipPath clipPathUnits="userSpaceOnUse" id="clipPath36">
        <path d="M1038 329 L1128 329 L1128 364 L1038 364 L1038 329 Z" />
      </clipPath>
      <clipPath clipPathUnits="userSpaceOnUse" id="clipPath37">
        <path d="M1017 569 L1039 569 L1039 611 L1017 611 L1017 569 Z" />
      </clipPath>
      <clipPath clipPathUnits="userSpaceOnUse" id="clipPath38">
        <path d="M1038 569 L1128 569 L1128 604 L1038 604 L1038 569 Z" />
      </clipPath>
      <clipPath clipPathUnits="userSpaceOnUse" id="clipPath39">
        <path d="M1017 869 L1039 869 L1039 911 L1017 911 L1017 869 Z" />
      </clipPath>
      <clipPath clipPathUnits="userSpaceOnUse" id="clipPath40">
        <path d="M1038 869 L1128 869 L1128 904 L1038 904 L1038 869 Z" />
      </clipPath>
      <clipPath clipPathUnits="userSpaceOnUse" id="clipPath41">
        <path d="M1017 989 L1039 989 L1039 1031 L1017 1031 L1017 989 Z" />
      </clipPath>
      <clipPath clipPathUnits="userSpaceOnUse" id="clipPath42">
        <path d="M1038 989 L1128 989 L1128 1024 L1038 1024 L1038 989 Z" />
      </clipPath>
      <clipPath clipPathUnits="userSpaceOnUse" id="clipPath43">
        <path d="M1017 1109 L1039 1109 L1039 1151 L1017 1151 L1017 1109 Z" />
      </clipPath>
      <clipPath clipPathUnits="userSpaceOnUse" id="clipPath44">
        <path d="M1038 1109 L1128 1109 L1128 1144 L1038 1144 L1038 1109 Z" />
      </clipPath>
      <clipPath clipPathUnits="userSpaceOnUse" id="clipPath45">
        <path d="M1017 149 L1039 149 L1039 191 L1017 191 L1017 149 Z" />
      </clipPath>
      <clipPath clipPathUnits="userSpaceOnUse" id="clipPath46">
        <path d="M1038 149 L1108 149 L1108 184 L1038 184 L1038 149 Z" />
      </clipPath>
      <clipPath clipPathUnits="userSpaceOnUse" id="clipPath47">
        <path d="M1017 262 L1039 262 L1039 304 L1017 304 L1017 262 Z" />
      </clipPath>
      <clipPath clipPathUnits="userSpaceOnUse" id="clipPath48">
        <path d="M1038 262 L1108 262 L1108 297 L1038 297 L1038 262 Z" />
      </clipPath>
      <clipPath clipPathUnits="userSpaceOnUse" id="clipPath49">
        <path d="M1017 449 L1039 449 L1039 491 L1017 491 L1017 449 Z" />
      </clipPath>
      <clipPath clipPathUnits="userSpaceOnUse" id="clipPath50">
        <path d="M1038 449 L1108 449 L1108 484 L1038 484 L1038 449 Z" />
      </clipPath>
      <clipPath clipPathUnits="userSpaceOnUse" id="clipPath51">
        <path d="M1017 629 L1039 629 L1039 671 L1017 671 L1017 629 Z" />
      </clipPath>
      <clipPath clipPathUnits="userSpaceOnUse" id="clipPath52">
        <path d="M1038 629 L1108 629 L1108 664 L1038 664 L1038 629 Z" />
      </clipPath>
      <clipPath clipPathUnits="userSpaceOnUse" id="clipPath53">
        <path d="M1017 929 L1039 929 L1039 971 L1017 971 L1017 929 Z" />
      </clipPath>
      <clipPath clipPathUnits="userSpaceOnUse" id="clipPath54">
        <path d="M1038 929 L1108 929 L1108 964 L1038 964 L1038 929 Z" />
      </clipPath>
      <clipPath clipPathUnits="userSpaceOnUse" id="clipPath55">
        <path d="M1017 1049 L1039 1049 L1039 1091 L1017 1091 L1017 1049 Z" />
      </clipPath>
      <clipPath clipPathUnits="userSpaceOnUse" id="clipPath56">
        <path d="M1038 1049 L1108 1049 L1108 1084 L1038 1084 L1038 1049 Z" />
      </clipPath>
      <clipPath clipPathUnits="userSpaceOnUse" id="clipPath57">
        <path d="M1017 1169 L1039 1169 L1039 1211 L1017 1211 L1017 1169 Z" />
      </clipPath>
      <clipPath clipPathUnits="userSpaceOnUse" id="clipPath58">
        <path d="M1038 1169 L1108 1169 L1108 1204 L1038 1204 L1038 1169 Z" />
      </clipPath>
      <clipPath clipPathUnits="userSpaceOnUse" id="clipPath59">
        <path d="M-1 -1 L1449 -1 L1449 1271 L-1 1271 L-1 -1 Z" />
      </clipPath>
      <clipPath clipPathUnits="userSpaceOnUse" id="clipPath60">
        <path d="M219 66 L813 66 L813 101 L219 101 L219 66 Z" />
      </clipPath>
      <clipPath clipPathUnits="userSpaceOnUse" id="clipPath61">
        <path d="M359 93 L371 93 L371 104 L359 104 L359 93 Z" />
      </clipPath>
      <clipPath clipPathUnits="userSpaceOnUse" id="clipPath62">
        <path d="M281 177 L632 177 L632 212 L281 212 L281 177 Z" />
      </clipPath>
      <clipPath clipPathUnits="userSpaceOnUse" id="clipPath63">
        <path d="M359 204 L371 204 L371 215 L359 215 L359 204 Z" />
      </clipPath>
      <clipPath clipPathUnits="userSpaceOnUse" id="clipPath64">
        <path d="M289 296 L607 296 L607 331 L289 331 L289 296 Z" />
      </clipPath>
      <clipPath clipPathUnits="userSpaceOnUse" id="clipPath65">
        <path d="M359 324 L371 324 L371 335 L359 335 L359 324 Z" />
      </clipPath>
      <clipPath clipPathUnits="userSpaceOnUse" id="clipPath66">
        <path d="M242 478 L759 478 L759 513 L242 513 L242 478 Z" />
      </clipPath>
      <clipPath clipPathUnits="userSpaceOnUse" id="clipPath67">
        <path d="M359 504 L371 504 L371 515 L359 515 L359 504 Z" />
      </clipPath>
      <clipPath clipPathUnits="userSpaceOnUse" id="clipPath68">
        <path d="M301 537 L570 537 L570 572 L301 572 L301 537 Z" />
      </clipPath>
      <clipPath clipPathUnits="userSpaceOnUse" id="clipPath69">
        <path d="M359 564 L371 564 L371 575 L359 575 L359 564 Z" />
      </clipPath>
      <clipPath clipPathUnits="userSpaceOnUse" id="clipPath70">
        <path d="M365 635 L872 635 L872 693 L365 693 L365 635 Z" />
      </clipPath>
      <clipPath clipPathUnits="userSpaceOnUse" id="clipPath71">
        <path d="M359 684 L371 684 L371 695 L359 695 L359 684 Z" />
      </clipPath>
      <clipPath clipPathUnits="userSpaceOnUse" id="clipPath72">
        <path d="M243 777 L760 777 L760 812 L243 812 L243 777 Z" />
      </clipPath>
      <clipPath clipPathUnits="userSpaceOnUse" id="clipPath73">
        <path d="M359 804 L371 804 L371 815 L359 815 L359 804 Z" />
      </clipPath>
      <clipPath clipPathUnits="userSpaceOnUse" id="clipPath74">
        <path d="M267 837 L677 837 L677 872 L267 872 L267 837 Z" />
      </clipPath>
      <clipPath clipPathUnits="userSpaceOnUse" id="clipPath75">
        <path d="M359 864 L371 864 L371 875 L359 875 L359 864 Z" />
      </clipPath>
      <clipPath clipPathUnits="userSpaceOnUse" id="clipPath76">
        <path d="M42 962 L1343 962 L1343 997 L42 997 L42 962 Z" />
      </clipPath>
      <clipPath clipPathUnits="userSpaceOnUse" id="clipPath77">
        <path d="M359 984 L371 984 L371 995 L359 995 L359 984 Z" />
      </clipPath>
      <clipPath clipPathUnits="userSpaceOnUse" id="clipPath78">
        <path d="M307 1077 L552 1077 L552 1112 L307 1112 L307 1077 Z" />
      </clipPath>
      <clipPath clipPathUnits="userSpaceOnUse" id="clipPath79">
        <path d="M359 1104 L371 1104 L371 1115 L359 1115 L359 1104 Z" />
      </clipPath>
      <clipPath clipPathUnits="userSpaceOnUse" id="clipPath80">
        <path d="M227 118 L782 118 L782 153 L227 153 L227 118 Z" />
      </clipPath>
      <clipPath clipPathUnits="userSpaceOnUse" id="clipPath81">
        <path d="M1009 144 L1021 144 L1021 155 L1009 155 L1009 144 Z" />
      </clipPath>
      <clipPath clipPathUnits="userSpaceOnUse" id="clipPath82">
        <path d="M242 232 L749 232 L749 267 L242 267 L242 232 Z" />
      </clipPath>
      <clipPath clipPathUnits="userSpaceOnUse" id="clipPath83">
        <path d="M1009 257 L1021 257 L1021 268 L1009 268 L1009 257 Z" />
      </clipPath>
      <clipPath clipPathUnits="userSpaceOnUse" id="clipPath84">
        <path d="M69 358 L1280 358 L1280 393 L69 393 L69 358 Z" />
      </clipPath>
      <clipPath clipPathUnits="userSpaceOnUse" id="clipPath85">
        <path d="M872 384 L884 384 L884 395 L872 395 L872 384 Z" />
      </clipPath>
      <clipPath clipPathUnits="userSpaceOnUse" id="clipPath86">
        <path d="M168 416 L971 416 L971 451 L168 451 L168 416 Z" />
      </clipPath>
      <clipPath clipPathUnits="userSpaceOnUse" id="clipPath87">
        <path d="M1009 444 L1021 444 L1021 455 L1009 455 L1009 444 Z" />
      </clipPath>
      <clipPath clipPathUnits="userSpaceOnUse" id="clipPath88">
        <path d="M210 597 L850 597 L850 632 L210 632 L210 597 Z" />
      </clipPath>
      <clipPath clipPathUnits="userSpaceOnUse" id="clipPath89">
        <path d="M1009 624 L1021 624 L1021 635 L1009 635 L1009 624 Z" />
      </clipPath>
      <clipPath clipPathUnits="userSpaceOnUse" id="clipPath90">
        <path d="M23 720 L1432 720 L1432 755 L23 755 L23 720 Z" />
      </clipPath>
      <clipPath clipPathUnits="userSpaceOnUse" id="clipPath91">
        <path d="M872 744 L884 744 L884 755 L872 755 L872 744 Z" />
      </clipPath>
      <clipPath clipPathUnits="userSpaceOnUse" id="clipPath92">
        <path d="M204 898 L858 898 L858 933 L204 933 L204 898 Z" />
      </clipPath>
      <clipPath clipPathUnits="userSpaceOnUse" id="clipPath93">
        <path d="M1009 924 L1021 924 L1021 935 L1009 935 L1009 924 Z" />
      </clipPath>
      <clipPath clipPathUnits="userSpaceOnUse" id="clipPath94">
        <path d="M191 1017 L892 1017 L892 1052 L191 1052 L191 1017 Z" />
      </clipPath>
      <clipPath clipPathUnits="userSpaceOnUse" id="clipPath95">
        <path d="M1009 1044 L1021 1044 L1021 1055 L1009 1055 L1009 1044 Z" />
      </clipPath>
      <clipPath clipPathUnits="userSpaceOnUse" id="clipPath96">
        <path d="M244 1136 L749 1136 L749 1171 L244 1171 L244 1136 Z" />
      </clipPath>
      <clipPath clipPathUnits="userSpaceOnUse" id="clipPath97">
        <path d="M1009 1164 L1021 1164 L1021 1175 L1009 1175 L1009 1164 Z" />
      </clipPath>
    </defs>
    <g font-size="28" fill="rgb(238,201,142)" font-family="'Lucida Sans'" stroke-linejoin="round" stroke="rgb(238,201,142)" stroke-width="0" stroke-miterlimit="0">
      <rect x="326" y="10" clip-path="url(#clipPath1)" width="70" height="30" stroke="none" />
    </g>
    <g stroke-width="0.1" font-size="28" font-family="'Lucida Sans'" stroke-linecap="butt">
      <rect x="326" y="10" clip-path="url(#clipPath1)" fill="none" width="69" height="29" />
      <line clip-path="url(#clipPath2)" fill="none" x1="360" x2="360" y1="40" y2="1260" stroke-dasharray="10,10" stroke-width="1.1" />
    </g>
    <g stroke-linecap="butt" font-size="28" fill="rgb(255,245,181)" font-family="'Lucida Sans'" stroke-dasharray="10,10" stroke="rgb(255,245,181)" stroke-width="1.1">
      <rect x="426" y="10" clip-path="url(#clipPath3)" width="120" height="50" stroke="none" />
    </g>
    <g stroke-width="0.1" font-size="28" font-family="'Lucida Sans'" stroke-linecap="butt">
      <rect x="426" y="10" clip-path="url(#clipPath3)" fill="none" width="119" height="49" />
      <text xml:space="preserve" x="428" y="45" clip-path="url(#clipPath4)" stroke="none">theCre...</text>
      <line clip-path="url(#clipPath5)" fill="none" x1="485" x2="485" y1="60" y2="1260" stroke-dasharray="10,10" stroke-width="1.1" />
    </g>
    <g stroke-linecap="butt" font-size="28" fill="rgb(255,245,181)" font-family="'Lucida Sans'" stroke-dasharray="10,10" stroke="rgb(255,245,181)" stroke-width="1.1">
      <rect x="556" y="10" clip-path="url(#clipPath6)" width="119" height="50" stroke="none" />
    </g>
    <g stroke-width="0.1" font-size="28" font-family="'Lucida Sans'" stroke-linecap="butt">
      <rect x="556" y="10" clip-path="url(#clipPath6)" fill="none" width="118" height="49" />
      <text xml:space="preserve" x="558" y="29" clip-path="url(#clipPath7)" stroke="none">theClo...</text>
      <line clip-path="url(#clipPath8)" fill="none" x1="614" x2="614" y1="60" y2="1260" stroke-dasharray="10,10" stroke-width="1.1" />
    </g>
    <g stroke-linecap="butt" font-size="28" fill="rgb(39,76,114)" font-family="'Lucida Sans'" stroke-dasharray="10,10" stroke="rgb(39,76,114)" stroke-width="1.1">
      <rect x="605" y="510" clip-path="url(#clipPath9)" width="20" height="40" stroke="none" />
      <rect x="605" y="510" clip-path="url(#clipPath9)" fill="none" width="19" stroke-dasharray="none" height="39" stroke-width="0.1" />
    </g>
    <g stroke-width="0.1" font-size="28" font-family="'Lucida Sans'" stroke-linecap="butt">
      <text xml:space="preserve" x="626" y="537" clip-path="url(#clipPath10)" stroke="none">out04</text>
      <rect x="605" y="810" clip-path="url(#clipPath11)" fill="rgb(39,76,114)" width="20" height="40" stroke="none" />
      <rect x="605" y="810" clip-path="url(#clipPath11)" fill="none" width="19" height="39" stroke="rgb(39,76,114)" />
      <text xml:space="preserve" x="626" y="837" clip-path="url(#clipPath12)" stroke="none">out07</text>
      <rect x="685" y="10" clip-path="url(#clipPath13)" fill="rgb(255,245,181)" width="130" height="50" stroke="none" />
      <rect x="685" y="10" clip-path="url(#clipPath13)" fill="none" width="129" height="49" />
      <text xml:space="preserve" x="728" y="29" clip-path="url(#clipPath14)" stroke="none">bill</text>
      <text xml:space="preserve" x="689" y="62" clip-path="url(#clipPath15)" stroke="none">: actAd...</text>
      <line clip-path="url(#clipPath16)" fill="none" x1="749" x2="749" y1="60" y2="1260" stroke-dasharray="10,10" stroke-width="1.1" />
    </g>
    <g stroke-linecap="butt" font-size="28" fill="rgb(255,245,181)" font-family="'Lucida Sans'" stroke-dasharray="10,10" stroke="rgb(255,245,181)" stroke-width="1.1">
      <rect x="825" y="10" clip-path="url(#clipPath17)" width="132" height="50" stroke="none" />
    </g>
    <g stroke-width="0.1" font-size="28" font-family="'Lucida Sans'" stroke-linecap="butt">
      <rect x="825" y="10" clip-path="url(#clipPath17)" fill="none" width="131" height="49" />
      <text xml:space="preserve" x="853" y="29" clip-path="url(#clipPath18)" stroke="none">tango</text>
      <text xml:space="preserve" x="831" y="62" clip-path="url(#clipPath19)" stroke="none">: actCo...</text>
      <line clip-path="url(#clipPath20)" fill="none" x1="890" x2="890" y1="60" y2="1260" stroke-dasharray="10,10" stroke-width="1.1" />
    </g>
    <g stroke-linecap="butt" font-size="28" fill="rgb(39,76,114)" font-family="'Lucida Sans'" stroke-dasharray="10,10" stroke="rgb(39,76,114)" stroke-width="1.1">
      <rect x="881" y="690" clip-path="url(#clipPath21)" width="20" height="40" stroke="none" />
      <rect x="881" y="690" clip-path="url(#clipPath21)" fill="none" width="19" stroke-dasharray="none" height="39" stroke-width="0.1" />
    </g>
    <g stroke-width="0.1" font-size="28" font-family="'Lucida Sans'" stroke-linecap="butt">
      <text xml:space="preserve" x="902" y="717" clip-path="url(#clipPath22)" stroke="none">out06</text>
      <rect x="881" y="390" clip-path="url(#clipPath23)" fill="rgb(194,239,255)" width="20" height="40" stroke="none" />
      <rect x="881" y="390" clip-path="url(#clipPath23)" fill="none" width="19" height="39" stroke="rgb(194,239,255)" />
      <text xml:space="preserve" x="902" y="417" clip-path="url(#clipPath24)" stroke="none">in03</text>
      <rect x="881" y="750" clip-path="url(#clipPath25)" fill="rgb(194,239,255)" width="20" height="40" stroke="none" />
      <rect x="881" y="750" clip-path="url(#clipPath25)" fill="none" width="19" height="39" stroke="rgb(194,239,255)" />
      <text xml:space="preserve" x="902" y="777" clip-path="url(#clipPath26)" stroke="none">in06</text>
      <rect x="967" y="10" clip-path="url(#clipPath27)" fill="rgb(255,245,181)" width="122" height="50" stroke="none" />
      <rect x="967" y="10" clip-path="url(#clipPath27)" fill="none" width="121" height="49" />
      <text xml:space="preserve" x="992" y="29" clip-path="url(#clipPath28)" stroke="none">steve</text>
      <text xml:space="preserve" x="968" y="62" clip-path="url(#clipPath29)" stroke="none">: actCo...</text>
      <line clip-path="url(#clipPath30)" fill="none" x1="1027" x2="1027" y1="60" y2="1260" stroke-dasharray="10,10" stroke-width="1.1" />
    </g>
    <g stroke-linecap="butt" font-size="28" fill="rgb(39,76,114)" font-family="'Lucida Sans'" stroke-dasharray="10,10" stroke="rgb(39,76,114)" stroke-width="1.1">
      <rect x="1018" y="99" clip-path="url(#clipPath31)" width="20" height="40" stroke="none" />
      <rect x="1018" y="99" clip-path="url(#clipPath31)" fill="none" width="19" stroke-dasharray="none" height="39" stroke-width="0.1" />
    </g>
    <g stroke-width="0.1" font-size="28" font-family="'Lucida Sans'" stroke-linecap="butt">
      <text xml:space="preserve" x="1039" y="126" clip-path="url(#clipPath32)" stroke="none">out01</text>
      <rect x="1018" y="210" clip-path="url(#clipPath33)" fill="rgb(39,76,114)" width="20" height="40" stroke="none" />
      <rect x="1018" y="210" clip-path="url(#clipPath33)" fill="none" width="19" height="39" stroke="rgb(39,76,114)" />
      <text xml:space="preserve" x="1039" y="237" clip-path="url(#clipPath34)" stroke="none">out02</text>
      <rect x="1018" y="330" clip-path="url(#clipPath35)" fill="rgb(39,76,114)" width="20" height="40" stroke="none" />
      <rect x="1018" y="330" clip-path="url(#clipPath35)" fill="none" width="19" height="39" stroke="rgb(39,76,114)" />
      <text xml:space="preserve" x="1039" y="357" clip-path="url(#clipPath36)" stroke="none">out03</text>
      <rect x="1018" y="570" clip-path="url(#clipPath37)" fill="rgb(39,76,114)" width="20" height="40" stroke="none" />
      <rect x="1018" y="570" clip-path="url(#clipPath37)" fill="none" width="19" height="39" stroke="rgb(39,76,114)" />
      <text xml:space="preserve" x="1039" y="597" clip-path="url(#clipPath38)" stroke="none">out05</text>
      <rect x="1018" y="870" clip-path="url(#clipPath39)" fill="rgb(39,76,114)" width="20" height="40" stroke="none" />
      <rect x="1018" y="870" clip-path="url(#clipPath39)" fill="none" width="19" height="39" stroke="rgb(39,76,114)" />
      <text xml:space="preserve" x="1039" y="897" clip-path="url(#clipPath40)" stroke="none">out08</text>
      <rect x="1018" y="990" clip-path="url(#clipPath41)" fill="rgb(39,76,114)" width="20" height="40" stroke="none" />
      <rect x="1018" y="990" clip-path="url(#clipPath41)" fill="none" width="19" height="39" stroke="rgb(39,76,114)" />
      <text xml:space="preserve" x="1039" y="1017" clip-path="url(#clipPath42)" stroke="none">out09</text>
      <rect x="1018" y="1110" clip-path="url(#clipPath43)" fill="rgb(39,76,114)" width="20" height="40" stroke="none" />
      <rect x="1018" y="1110" clip-path="url(#clipPath43)" fill="none" width="19" height="39" stroke="rgb(39,76,114)" />
      <text xml:space="preserve" x="1039" y="1137" clip-path="url(#clipPath44)" stroke="none">out10</text>
      <rect x="1018" y="150" clip-path="url(#clipPath45)" fill="rgb(194,239,255)" width="20" height="40" stroke="none" />
      <rect x="1018" y="150" clip-path="url(#clipPath45)" fill="none" width="19" height="39" stroke="rgb(194,239,255)" />
      <text xml:space="preserve" x="1039" y="177" clip-path="url(#clipPath46)" stroke="none">in01</text>
      <rect x="1018" y="263" clip-path="url(#clipPath47)" fill="rgb(194,239,255)" width="20" height="40" stroke="none" />
      <rect x="1018" y="263" clip-path="url(#clipPath47)" fill="none" width="19" height="39" stroke="rgb(194,239,255)" />
      <text xml:space="preserve" x="1039" y="290" clip-path="url(#clipPath48)" stroke="none">in02</text>
      <rect x="1018" y="450" clip-path="url(#clipPath49)" fill="rgb(194,239,255)" width="20" height="40" stroke="none" />
      <rect x="1018" y="450" clip-path="url(#clipPath49)" fill="none" width="19" height="39" stroke="rgb(194,239,255)" />
      <text xml:space="preserve" x="1039" y="477" clip-path="url(#clipPath50)" stroke="none">in04</text>
      <rect x="1018" y="630" clip-path="url(#clipPath51)" fill="rgb(194,239,255)" width="20" height="40" stroke="none" />
      <rect x="1018" y="630" clip-path="url(#clipPath51)" fill="none" width="19" height="39" stroke="rgb(194,239,255)" />
      <text xml:space="preserve" x="1039" y="657" clip-path="url(#clipPath52)" stroke="none">in05</text>
      <rect x="1018" y="930" clip-path="url(#clipPath53)" fill="rgb(194,239,255)" width="20" height="40" stroke="none" />
      <rect x="1018" y="930" clip-path="url(#clipPath53)" fill="none" width="19" height="39" stroke="rgb(194,239,255)" />
      <text xml:space="preserve" x="1039" y="957" clip-path="url(#clipPath54)" stroke="none">in07</text>
      <rect x="1018" y="1050" clip-path="url(#clipPath55)" fill="rgb(194,239,255)" width="20" height="40" stroke="none" />
      <rect x="1018" y="1050" clip-path="url(#clipPath55)" fill="none" width="19" height="39" stroke="rgb(194,239,255)" />
      <text xml:space="preserve" x="1039" y="1077" clip-path="url(#clipPath56)" stroke="none">in08</text>
      <rect x="1018" y="1170" clip-path="url(#clipPath57)" fill="rgb(194,239,255)" width="20" height="40" stroke="none" />
      <rect x="1018" y="1170" clip-path="url(#clipPath57)" fill="none" width="19" height="39" stroke="rgb(194,239,255)" />
      <text xml:space="preserve" x="1039" y="1197" clip-path="url(#clipPath58)" stroke="none">in09</text>
      <line clip-path="url(#clipPath59)" fill="none" x1="1018" x2="361" y1="98" y2="98" stroke="rgb(136,136,136)" stroke-width="2.1" />
      <text x="220" y="94" clip-path="url(#clipPath60)" stroke="none" stroke-width="2.1" xml:space="preserve">oeLogin("steve","pwdMessirExcalibur2017")</text>
      <line clip-path="url(#clipPath61)" fill="none" x1="368" x2="361" y1="95" y2="98" stroke="rgb(136,136,136)" stroke-width="2.1" />
      <line clip-path="url(#clipPath61)" fill="none" x1="361" x2="368" y1="98" y2="101" stroke="rgb(136,136,136)" stroke-width="2.1" />
      <line clip-path="url(#clipPath59)" fill="none" x1="1018" x2="361" y1="209" y2="209" stroke="rgb(136,136,136)" stroke-width="2.1" />
      <text x="282" y="205" clip-path="url(#clipPath62)" stroke="none" stroke-width="2.1" xml:space="preserve">oeGetCrisisSet("pending")</text>
      <line clip-path="url(#clipPath63)" fill="none" x1="368" x2="361" y1="206" y2="209" stroke="rgb(136,136,136)" stroke-width="2.1" />
      <line clip-path="url(#clipPath63)" fill="none" x1="361" x2="368" y1="209" y2="212" stroke="rgb(136,136,136)" stroke-width="2.1" />
      <line clip-path="url(#clipPath59)" fill="none" x1="1018" x2="361" y1="329" y2="329" stroke="rgb(136,136,136)" stroke-width="2.1" />
      <text x="290" y="324" clip-path="url(#clipPath64)" stroke="none" stroke-width="2.1" xml:space="preserve">oeSetCrisisHandler("1")</text>
      <line clip-path="url(#clipPath65)" fill="none" x1="368" x2="361" y1="326" y2="329" stroke="rgb(136,136,136)" stroke-width="2.1" />
      <line clip-path="url(#clipPath65)" fill="none" x1="361" x2="368" y1="329" y2="332" stroke="rgb(136,136,136)" stroke-width="2.1" />
      <line clip-path="url(#clipPath59)" fill="none" x1="605" x2="361" y1="509" y2="509" stroke="rgb(136,136,136)" stroke-width="2.1" />
      <text x="243" y="506" clip-path="url(#clipPath66)" stroke="none" stroke-width="2.1" xml:space="preserve">oeSetClock("2017:11:26 - 10:45:00")</text>
      <line clip-path="url(#clipPath67)" fill="none" x1="368" x2="361" y1="506" y2="509" stroke="rgb(136,136,136)" stroke-width="2.1" />
      <line clip-path="url(#clipPath67)" fill="none" x1="361" x2="368" y1="509" y2="512" stroke="rgb(136,136,136)" stroke-width="2.1" />
      <line clip-path="url(#clipPath59)" fill="none" x1="1018" x2="361" y1="569" y2="569" stroke="rgb(136,136,136)" stroke-width="2.1" />
      <text x="302" y="565" clip-path="url(#clipPath68)" stroke="none" stroke-width="2.1" xml:space="preserve">oeValidateAlert("1")</text>
      <line clip-path="url(#clipPath69)" fill="none" x1="368" x2="361" y1="566" y2="569" stroke="rgb(136,136,136)" stroke-width="2.1" />
      <line clip-path="url(#clipPath69)" fill="none" x1="361" x2="368" y1="569" y2="572" stroke="rgb(136,136,136)" stroke-width="2.1" />
      <line clip-path="url(#clipPath59)" fill="none" x1="881" x2="361" y1="689" y2="689" stroke="rgb(136,136,136)" stroke-width="2.1" />
      <text x="374" y="674" clip-path="url(#clipPath70)" stroke="none" stroke-width="2.1" xml:space="preserve">oeAlert("witness","2017:11:26","1...</text>
      <line clip-path="url(#clipPath71)" fill="none" x1="368" x2="361" y1="686" y2="689" stroke="rgb(136,136,136)" stroke-width="2.1" />
      <line clip-path="url(#clipPath71)" fill="none" x1="361" x2="368" y1="689" y2="692" stroke="rgb(136,136,136)" stroke-width="2.1" />
      <line clip-path="url(#clipPath59)" fill="none" x1="605" x2="361" y1="809" y2="809" stroke="rgb(136,136,136)" stroke-width="2.1" />
      <text x="244" y="805" clip-path="url(#clipPath72)" stroke="none" stroke-width="2.1" xml:space="preserve">oeSetClock("2017:11:26 - 12:45:00")</text>
      <line clip-path="url(#clipPath73)" fill="none" x1="368" x2="361" y1="806" y2="809" stroke="rgb(136,136,136)" stroke-width="2.1" />
      <line clip-path="url(#clipPath73)" fill="none" x1="361" x2="368" y1="809" y2="812" stroke="rgb(136,136,136)" stroke-width="2.1" />
      <line clip-path="url(#clipPath59)" fill="none" x1="1018" x2="361" y1="869" y2="869" stroke="rgb(136,136,136)" stroke-width="2.1" />
      <text x="268" y="865" clip-path="url(#clipPath74)" stroke="none" stroke-width="2.1" xml:space="preserve">oeSetCrisisStatus("1","solved")</text>
      <line clip-path="url(#clipPath75)" fill="none" x1="368" x2="361" y1="866" y2="869" stroke="rgb(136,136,136)" stroke-width="2.1" />
      <line clip-path="url(#clipPath75)" fill="none" x1="361" x2="368" y1="869" y2="872" stroke="rgb(136,136,136)" stroke-width="2.1" />
      <line clip-path="url(#clipPath59)" fill="none" x1="1018" x2="361" y1="989" y2="989" stroke="rgb(136,136,136)" stroke-width="2.1" />
      <text x="43" y="990" clip-path="url(#clipPath76)" stroke="none" stroke-width="2.1" xml:space="preserve">oeReportOnCrisis("1","3 victims sent to hospital, 2 cars evacuated and 4 rescue unit mobilized")</text>
      <line clip-path="url(#clipPath77)" fill="none" x1="368" x2="361" y1="986" y2="989" stroke="rgb(136,136,136)" stroke-width="2.1" />
      <line clip-path="url(#clipPath77)" fill="none" x1="361" x2="368" y1="989" y2="992" stroke="rgb(136,136,136)" stroke-width="2.1" />
      <line clip-path="url(#clipPath59)" fill="none" x1="1018" x2="361" y1="1109" y2="1109" stroke="rgb(136,136,136)" stroke-width="2.1" />
      <text x="308" y="1105" clip-path="url(#clipPath78)" stroke="none" stroke-width="2.1" xml:space="preserve">oeCloseCrisis("1")</text>
      <line clip-path="url(#clipPath79)" fill="none" x1="368" x2="361" y1="1106" y2="1109" stroke="rgb(136,136,136)" stroke-width="2.1" />
      <line clip-path="url(#clipPath79)" fill="none" x1="361" x2="368" y1="1109" y2="1112" stroke="rgb(136,136,136)" stroke-width="2.1" />
    </g>
    <g stroke-linecap="butt" font-size="28" fill="rgb(136,136,136)" font-family="'Lucida Sans'" stroke-dasharray="5,5" stroke="rgb(136,136,136)" stroke-width="2.1">
      <line clip-path="url(#clipPath59)" fill="none" x1="1018" x2="361" y1="149" y2="149" />
      <text x="228" y="146" clip-path="url(#clipPath80)" fill="black" stroke="none" xml:space="preserve">ieMessage(You are logged ! Welcome ...)</text>
      <line clip-path="url(#clipPath81)" fill="none" x1="1011" x2="1018" y1="152" y2="149" stroke-dasharray="none" />
      <line clip-path="url(#clipPath81)" fill="none" x1="1018" x2="1011" y1="149" y2="146" stroke-dasharray="none" />
      <line clip-path="url(#clipPath59)" fill="none" x1="1018" x2="361" y1="262" y2="262" />
      <text x="243" y="260" clip-path="url(#clipPath82)" fill="black" stroke="none" xml:space="preserve">ieSendACrisis(crisis with ID 1 details)</text>
      <line clip-path="url(#clipPath83)" fill="none" x1="1011" x2="1018" y1="265" y2="262" stroke-dasharray="none" />
      <line clip-path="url(#clipPath83)" fill="none" x1="1018" x2="1011" y1="262" y2="259" stroke-dasharray="none" />
      <line clip-path="url(#clipPath59)" fill="none" x1="881" x2="361" y1="389" y2="389" />
      <text x="70" y="386" clip-path="url(#clipPath84)" fill="black" stroke="none" xml:space="preserve">ieSmsSend(+3524666445252,The handling of your alert by our services is in progress !)</text>
      <line clip-path="url(#clipPath85)" fill="none" x1="874" x2="881" y1="392" y2="389" stroke-dasharray="none" />
      <line clip-path="url(#clipPath85)" fill="none" x1="881" x2="874" y1="389" y2="386" stroke-dasharray="none" />
      <line clip-path="url(#clipPath59)" fill="none" x1="1018" x2="361" y1="449" y2="449" />
      <text x="169" y="444" clip-path="url(#clipPath86)" fill="black" stroke="none" xml:space="preserve">ieMessage(You are now considered as handling the crisis !)</text>
      <line clip-path="url(#clipPath87)" fill="none" x1="1011" x2="1018" y1="452" y2="449" stroke-dasharray="none" />
      <line clip-path="url(#clipPath87)" fill="none" x1="1018" x2="1011" y1="449" y2="446" stroke-dasharray="none" />
      <line clip-path="url(#clipPath59)" fill="none" x1="1018" x2="361" y1="629" y2="629" />
      <text x="211" y="625" clip-path="url(#clipPath88)" fill="black" stroke="none" xml:space="preserve">ieMessage(The Alert is now declared as valid !)</text>
      <line clip-path="url(#clipPath89)" fill="none" x1="1011" x2="1018" y1="632" y2="629" stroke-dasharray="none" />
      <line clip-path="url(#clipPath89)" fill="none" x1="1018" x2="1011" y1="629" y2="626" stroke-dasharray="none" />
      <line clip-path="url(#clipPath59)" fill="none" x1="881" x2="361" y1="749" y2="749" />
      <text x="24" y="748" clip-path="url(#clipPath90)" fill="black" stroke="none" xml:space="preserve">ieSmsSend(+3524666445000,Your alert has been registered. We will handle it and keep you informed)</text>
      <line clip-path="url(#clipPath91)" fill="none" x1="874" x2="881" y1="752" y2="749" stroke-dasharray="none" />
      <line clip-path="url(#clipPath91)" fill="none" x1="881" x2="874" y1="749" y2="746" stroke-dasharray="none" />
      <line clip-path="url(#clipPath59)" fill="none" x1="1018" x2="361" y1="929" y2="929" />
      <text x="205" y="926" clip-path="url(#clipPath92)" fill="black" stroke="none" xml:space="preserve">ieMessage(The crisis status has been updated !)</text>
      <line clip-path="url(#clipPath93)" fill="none" x1="1011" x2="1018" y1="932" y2="929" stroke-dasharray="none" />
      <line clip-path="url(#clipPath93)" fill="none" x1="1018" x2="1011" y1="929" y2="926" stroke-dasharray="none" />
      <line clip-path="url(#clipPath59)" fill="none" x1="1018" x2="361" y1="1049" y2="1049" />
      <text x="192" y="1045" clip-path="url(#clipPath94)" fill="black" stroke="none" xml:space="preserve">ieMessage(The crisis comment has been updated !)</text>
      <line clip-path="url(#clipPath95)" fill="none" x1="1011" x2="1018" y1="1052" y2="1049" stroke-dasharray="none" />
      <line clip-path="url(#clipPath95)" fill="none" x1="1018" x2="1011" y1="1049" y2="1046" stroke-dasharray="none" />
      <line clip-path="url(#clipPath59)" fill="none" x1="1018" x2="361" y1="1169" y2="1169" />
      <text x="245" y="1164" clip-path="url(#clipPath96)" fill="black" stroke="none" xml:space="preserve">ieMessage(The crisis is now closed !)</text>
      <line clip-path="url(#clipPath97)" fill="none" x1="1011" x2="1018" y1="1172" y2="1169" stroke-dasharray="none" />
      <line clip-path="url(#clipPath97)" fill="none" x1="1018" x2="1011" y1="1169" y2="1166" stroke-dasharray="none" />
    </g>
  </g>
</svg>

