<?xml version="1.0" encoding="UTF-8"?>
<svg xmlns="http://www.w3.org/2000/svg" xmlns:xlink="http://www.w3.org/1999/xlink" stroke-dasharray="none" shape-rendering="auto" font-family="'Dialog'" width="1016" text-rendering="auto" fill-opacity="1" contentScriptType="text/ecmascript" color-interpolation="auto" color-rendering="auto" preserveAspectRatio="xMidYMid meet" font-size="12" viewBox="0 0 1016 1270" fill="black" stroke="black" image-rendering="auto" stroke-miterlimit="10" zoomAndPan="magnify" version="1.0" stroke-linecap="square" stroke-linejoin="miter" contentStyleType="text/css" font-style="normal" height="1270" stroke-width="1" stroke-dashoffset="0" font-weight="normal" stroke-opacity="1">
  <!--Generated by the Batik Graphics2D SVG Generator-->
  <defs id="genericDefs" />
  <g>
    <defs id="defs1">
      <clipPath clipPathUnits="userSpaceOnUse" id="clipPath1">
        <path d="M110 9 L182 9 L182 41 L110 41 L110 9 Z" />
      </clipPath>
      <clipPath clipPathUnits="userSpaceOnUse" id="clipPath2">
        <path d="M110 9 L187 9 L187 41 L110 41 L110 9 Z" />
      </clipPath>
      <clipPath clipPathUnits="userSpaceOnUse" id="clipPath3">
        <path d="M140 39 L152 39 L152 1261 L140 1261 L140 39 Z" />
      </clipPath>
      <clipPath clipPathUnits="userSpaceOnUse" id="clipPath4">
        <path d="M210 9 L332 9 L332 61 L210 61 L210 9 Z" />
      </clipPath>
      <clipPath clipPathUnits="userSpaceOnUse" id="clipPath5">
        <path d="M210 9 L337 9 L337 61 L210 61 L210 9 Z" />
      </clipPath>
      <clipPath clipPathUnits="userSpaceOnUse" id="clipPath6">
        <path d="M210 9 L335 9 L335 61 L210 61 L210 9 Z" />
      </clipPath>
      <clipPath clipPathUnits="userSpaceOnUse" id="clipPath7">
        <path d="M210 9 L336 9 L336 61 L210 61 L210 9 Z" />
      </clipPath>
      <clipPath clipPathUnits="userSpaceOnUse" id="clipPath8">
        <path d="M265 59 L277 59 L277 1261 L265 1261 L265 59 Z" />
      </clipPath>
      <clipPath clipPathUnits="userSpaceOnUse" id="clipPath9">
        <path d="M340 9 L461 9 L461 61 L340 61 L340 9 Z" />
      </clipPath>
      <clipPath clipPathUnits="userSpaceOnUse" id="clipPath10">
        <path d="M340 9 L466 9 L466 61 L340 61 L340 9 Z" />
      </clipPath>
      <clipPath clipPathUnits="userSpaceOnUse" id="clipPath11">
        <path d="M340 9 L464 9 L464 61 L340 61 L340 9 Z" />
      </clipPath>
      <clipPath clipPathUnits="userSpaceOnUse" id="clipPath12">
        <path d="M340 9 L465 9 L465 61 L340 61 L340 9 Z" />
      </clipPath>
      <clipPath clipPathUnits="userSpaceOnUse" id="clipPath13">
        <path d="M394 59 L406 59 L406 1261 L394 1261 L394 59 Z" />
      </clipPath>
      <clipPath clipPathUnits="userSpaceOnUse" id="clipPath14">
        <path d="M389 509 L411 509 L411 551 L389 551 L389 509 Z" />
      </clipPath>
      <clipPath clipPathUnits="userSpaceOnUse" id="clipPath15">
        <path d="M410 509 L472 509 L472 533 L410 533 L410 509 Z" />
      </clipPath>
      <clipPath clipPathUnits="userSpaceOnUse" id="clipPath16">
        <path d="M389 809 L411 809 L411 851 L389 851 L389 809 Z" />
      </clipPath>
      <clipPath clipPathUnits="userSpaceOnUse" id="clipPath17">
        <path d="M410 809 L472 809 L472 833 L410 833 L410 809 Z" />
      </clipPath>
      <clipPath clipPathUnits="userSpaceOnUse" id="clipPath18">
        <path d="M469 9 L601 9 L601 61 L469 61 L469 9 Z" />
      </clipPath>
      <clipPath clipPathUnits="userSpaceOnUse" id="clipPath19">
        <path d="M469 9 L604 9 L604 61 L469 61 L469 9 Z" />
      </clipPath>
      <clipPath clipPathUnits="userSpaceOnUse" id="clipPath20">
        <path d="M469 9 L605 9 L605 61 L469 61 L469 9 Z" />
      </clipPath>
      <clipPath clipPathUnits="userSpaceOnUse" id="clipPath21">
        <path d="M529 59 L541 59 L541 1261 L529 1261 L529 59 Z" />
      </clipPath>
      <clipPath clipPathUnits="userSpaceOnUse" id="clipPath22">
        <path d="M609 9 L743 9 L743 61 L609 61 L609 9 Z" />
      </clipPath>
      <clipPath clipPathUnits="userSpaceOnUse" id="clipPath23">
        <path d="M609 9 L748 9 L748 61 L609 61 L609 9 Z" />
      </clipPath>
      <clipPath clipPathUnits="userSpaceOnUse" id="clipPath24">
        <path d="M609 9 L746 9 L746 61 L609 61 L609 9 Z" />
      </clipPath>
      <clipPath clipPathUnits="userSpaceOnUse" id="clipPath25">
        <path d="M670 59 L682 59 L682 1261 L670 1261 L670 59 Z" />
      </clipPath>
      <clipPath clipPathUnits="userSpaceOnUse" id="clipPath26">
        <path d="M665 689 L687 689 L687 731 L665 731 L665 689 Z" />
      </clipPath>
      <clipPath clipPathUnits="userSpaceOnUse" id="clipPath27">
        <path d="M686 689 L748 689 L748 713 L686 713 L686 689 Z" />
      </clipPath>
      <clipPath clipPathUnits="userSpaceOnUse" id="clipPath28">
        <path d="M665 389 L687 389 L687 431 L665 431 L665 389 Z" />
      </clipPath>
      <clipPath clipPathUnits="userSpaceOnUse" id="clipPath29">
        <path d="M686 389 L735 389 L735 413 L686 413 L686 389 Z" />
      </clipPath>
      <clipPath clipPathUnits="userSpaceOnUse" id="clipPath30">
        <path d="M665 749 L687 749 L687 791 L665 791 L665 749 Z" />
      </clipPath>
      <clipPath clipPathUnits="userSpaceOnUse" id="clipPath31">
        <path d="M686 749 L735 749 L735 773 L686 773 L686 749 Z" />
      </clipPath>
      <clipPath clipPathUnits="userSpaceOnUse" id="clipPath32">
        <path d="M751 9 L875 9 L875 61 L751 61 L751 9 Z" />
      </clipPath>
      <clipPath clipPathUnits="userSpaceOnUse" id="clipPath33">
        <path d="M751 9 L879 9 L879 61 L751 61 L751 9 Z" />
      </clipPath>
      <clipPath clipPathUnits="userSpaceOnUse" id="clipPath34">
        <path d="M751 9 L878 9 L878 61 L751 61 L751 9 Z" />
      </clipPath>
      <clipPath clipPathUnits="userSpaceOnUse" id="clipPath35">
        <path d="M807 59 L819 59 L819 1261 L807 1261 L807 59 Z" />
      </clipPath>
      <clipPath clipPathUnits="userSpaceOnUse" id="clipPath36">
        <path d="M802 98 L824 98 L824 140 L802 140 L802 98 Z" />
      </clipPath>
      <clipPath clipPathUnits="userSpaceOnUse" id="clipPath37">
        <path d="M823 98 L885 98 L885 122 L823 122 L823 98 Z" />
      </clipPath>
      <clipPath clipPathUnits="userSpaceOnUse" id="clipPath38">
        <path d="M802 209 L824 209 L824 251 L802 251 L802 209 Z" />
      </clipPath>
      <clipPath clipPathUnits="userSpaceOnUse" id="clipPath39">
        <path d="M823 209 L885 209 L885 233 L823 233 L823 209 Z" />
      </clipPath>
      <clipPath clipPathUnits="userSpaceOnUse" id="clipPath40">
        <path d="M802 329 L824 329 L824 371 L802 371 L802 329 Z" />
      </clipPath>
      <clipPath clipPathUnits="userSpaceOnUse" id="clipPath41">
        <path d="M823 329 L885 329 L885 353 L823 353 L823 329 Z" />
      </clipPath>
      <clipPath clipPathUnits="userSpaceOnUse" id="clipPath42">
        <path d="M802 569 L824 569 L824 611 L802 611 L802 569 Z" />
      </clipPath>
      <clipPath clipPathUnits="userSpaceOnUse" id="clipPath43">
        <path d="M823 569 L885 569 L885 593 L823 593 L823 569 Z" />
      </clipPath>
      <clipPath clipPathUnits="userSpaceOnUse" id="clipPath44">
        <path d="M802 869 L824 869 L824 911 L802 911 L802 869 Z" />
      </clipPath>
      <clipPath clipPathUnits="userSpaceOnUse" id="clipPath45">
        <path d="M823 869 L885 869 L885 893 L823 893 L823 869 Z" />
      </clipPath>
      <clipPath clipPathUnits="userSpaceOnUse" id="clipPath46">
        <path d="M802 989 L824 989 L824 1031 L802 1031 L802 989 Z" />
      </clipPath>
      <clipPath clipPathUnits="userSpaceOnUse" id="clipPath47">
        <path d="M823 989 L885 989 L885 1013 L823 1013 L823 989 Z" />
      </clipPath>
      <clipPath clipPathUnits="userSpaceOnUse" id="clipPath48">
        <path d="M802 1109 L824 1109 L824 1151 L802 1151 L802 1109 Z" />
      </clipPath>
      <clipPath clipPathUnits="userSpaceOnUse" id="clipPath49">
        <path d="M823 1109 L885 1109 L885 1133 L823 1133 L823 1109 Z" />
      </clipPath>
      <clipPath clipPathUnits="userSpaceOnUse" id="clipPath50">
        <path d="M802 149 L824 149 L824 191 L802 191 L802 149 Z" />
      </clipPath>
      <clipPath clipPathUnits="userSpaceOnUse" id="clipPath51">
        <path d="M823 149 L872 149 L872 173 L823 173 L823 149 Z" />
      </clipPath>
      <clipPath clipPathUnits="userSpaceOnUse" id="clipPath52">
        <path d="M802 262 L824 262 L824 304 L802 304 L802 262 Z" />
      </clipPath>
      <clipPath clipPathUnits="userSpaceOnUse" id="clipPath53">
        <path d="M823 262 L872 262 L872 286 L823 286 L823 262 Z" />
      </clipPath>
      <clipPath clipPathUnits="userSpaceOnUse" id="clipPath54">
        <path d="M802 449 L824 449 L824 491 L802 491 L802 449 Z" />
      </clipPath>
      <clipPath clipPathUnits="userSpaceOnUse" id="clipPath55">
        <path d="M823 449 L872 449 L872 473 L823 473 L823 449 Z" />
      </clipPath>
      <clipPath clipPathUnits="userSpaceOnUse" id="clipPath56">
        <path d="M802 629 L824 629 L824 671 L802 671 L802 629 Z" />
      </clipPath>
      <clipPath clipPathUnits="userSpaceOnUse" id="clipPath57">
        <path d="M823 629 L872 629 L872 653 L823 653 L823 629 Z" />
      </clipPath>
      <clipPath clipPathUnits="userSpaceOnUse" id="clipPath58">
        <path d="M802 929 L824 929 L824 971 L802 971 L802 929 Z" />
      </clipPath>
      <clipPath clipPathUnits="userSpaceOnUse" id="clipPath59">
        <path d="M823 929 L872 929 L872 953 L823 953 L823 929 Z" />
      </clipPath>
      <clipPath clipPathUnits="userSpaceOnUse" id="clipPath60">
        <path d="M802 1049 L824 1049 L824 1091 L802 1091 L802 1049 Z" />
      </clipPath>
      <clipPath clipPathUnits="userSpaceOnUse" id="clipPath61">
        <path d="M823 1049 L872 1049 L872 1073 L823 1073 L823 1049 Z" />
      </clipPath>
      <clipPath clipPathUnits="userSpaceOnUse" id="clipPath62">
        <path d="M802 1169 L824 1169 L824 1211 L802 1211 L802 1169 Z" />
      </clipPath>
      <clipPath clipPathUnits="userSpaceOnUse" id="clipPath63">
        <path d="M823 1169 L872 1169 L872 1193 L823 1193 L823 1169 Z" />
      </clipPath>
      <clipPath clipPathUnits="userSpaceOnUse" id="clipPath64">
        <path d="M-1 -1 L1017 -1 L1017 1271 L-1 1271 L-1 -1 Z" />
      </clipPath>
      <clipPath clipPathUnits="userSpaceOnUse" id="clipPath65">
        <path d="M94 71 L505 71 L505 95 L94 95 L94 71 Z" />
      </clipPath>
      <clipPath clipPathUnits="userSpaceOnUse" id="clipPath66">
        <path d="M144 93 L156 93 L156 104 L144 104 L144 93 Z" />
      </clipPath>
      <clipPath clipPathUnits="userSpaceOnUse" id="clipPath67">
        <path d="M118 182 L363 182 L363 206 L118 206 L118 182 Z" />
      </clipPath>
      <clipPath clipPathUnits="userSpaceOnUse" id="clipPath68">
        <path d="M144 204 L156 204 L156 215 L144 215 L144 204 Z" />
      </clipPath>
      <clipPath clipPathUnits="userSpaceOnUse" id="clipPath69">
        <path d="M121 301 L343 301 L343 325 L121 325 L121 301 Z" />
      </clipPath>
      <clipPath clipPathUnits="userSpaceOnUse" id="clipPath70">
        <path d="M144 324 L156 324 L156 335 L144 335 L144 324 Z" />
      </clipPath>
      <clipPath clipPathUnits="userSpaceOnUse" id="clipPath71">
        <path d="M109 483 L459 483 L459 507 L109 507 L109 483 Z" />
      </clipPath>
      <clipPath clipPathUnits="userSpaceOnUse" id="clipPath72">
        <path d="M144 504 L156 504 L156 515 L144 515 L144 504 Z" />
      </clipPath>
      <clipPath clipPathUnits="userSpaceOnUse" id="clipPath73">
        <path d="M125 542 L313 542 L313 566 L125 566 L125 542 Z" />
      </clipPath>
      <clipPath clipPathUnits="userSpaceOnUse" id="clipPath74">
        <path d="M144 564 L156 564 L156 575 L144 575 L144 564 Z" />
      </clipPath>
      <clipPath clipPathUnits="userSpaceOnUse" id="clipPath75">
        <path d="M150 635 L655 635 L655 693 L150 693 L150 635 Z" />
      </clipPath>
      <clipPath clipPathUnits="userSpaceOnUse" id="clipPath76">
        <path d="M150 635 L656 635 L656 693 L150 693 L150 635 Z" />
      </clipPath>
      <clipPath clipPathUnits="userSpaceOnUse" id="clipPath77">
        <path d="M144 684 L156 684 L156 695 L144 695 L144 684 Z" />
      </clipPath>
      <clipPath clipPathUnits="userSpaceOnUse" id="clipPath78">
        <path d="M110 782 L460 782 L460 806 L110 806 L110 782 Z" />
      </clipPath>
      <clipPath clipPathUnits="userSpaceOnUse" id="clipPath79">
        <path d="M144 804 L156 804 L156 815 L144 815 L144 804 Z" />
      </clipPath>
      <clipPath clipPathUnits="userSpaceOnUse" id="clipPath80">
        <path d="M113 842 L399 842 L399 866 L113 866 L113 842 Z" />
      </clipPath>
      <clipPath clipPathUnits="userSpaceOnUse" id="clipPath81">
        <path d="M144 864 L156 864 L156 875 L144 875 L144 864 Z" />
      </clipPath>
      <clipPath clipPathUnits="userSpaceOnUse" id="clipPath82">
        <path d="M23 967 L930 967 L930 991 L23 991 L23 967 Z" />
      </clipPath>
      <clipPath clipPathUnits="userSpaceOnUse" id="clipPath83">
        <path d="M144 984 L156 984 L156 995 L144 995 L144 984 Z" />
      </clipPath>
      <clipPath clipPathUnits="userSpaceOnUse" id="clipPath84">
        <path d="M127 1082 L299 1082 L299 1106 L127 1106 L127 1082 Z" />
      </clipPath>
      <clipPath clipPathUnits="userSpaceOnUse" id="clipPath85">
        <path d="M144 1104 L156 1104 L156 1115 L144 1115 L144 1104 Z" />
      </clipPath>
      <clipPath clipPathUnits="userSpaceOnUse" id="clipPath86">
        <path d="M96 123 L481 123 L481 147 L96 147 L96 123 Z" />
      </clipPath>
      <clipPath clipPathUnits="userSpaceOnUse" id="clipPath87">
        <path d="M794 144 L806 144 L806 155 L794 155 L794 144 Z" />
      </clipPath>
      <clipPath clipPathUnits="userSpaceOnUse" id="clipPath88">
        <path d="M102 237 L456 237 L456 261 L102 261 L102 237 Z" />
      </clipPath>
      <clipPath clipPathUnits="userSpaceOnUse" id="clipPath89">
        <path d="M794 257 L806 257 L806 268 L794 268 L794 257 Z" />
      </clipPath>
      <clipPath clipPathUnits="userSpaceOnUse" id="clipPath90">
        <path d="M40 363 L876 363 L876 387 L40 387 L40 363 Z" />
      </clipPath>
      <clipPath clipPathUnits="userSpaceOnUse" id="clipPath91">
        <path d="M657 384 L669 384 L669 395 L657 395 L657 384 Z" />
      </clipPath>
      <clipPath clipPathUnits="userSpaceOnUse" id="clipPath92">
        <path d="M72 421 L635 421 L635 445 L72 445 L72 421 Z" />
      </clipPath>
      <clipPath clipPathUnits="userSpaceOnUse" id="clipPath93">
        <path d="M794 444 L806 444 L806 455 L794 455 L794 444 Z" />
      </clipPath>
      <clipPath clipPathUnits="userSpaceOnUse" id="clipPath94">
        <path d="M91 602 L537 602 L537 626 L91 626 L91 602 Z" />
      </clipPath>
      <clipPath clipPathUnits="userSpaceOnUse" id="clipPath95">
        <path d="M794 624 L806 624 L806 635 L794 635 L794 624 Z" />
      </clipPath>
      <clipPath clipPathUnits="userSpaceOnUse" id="clipPath96">
        <path d="M25 725 L997 725 L997 749 L25 749 L25 725 Z" />
      </clipPath>
      <clipPath clipPathUnits="userSpaceOnUse" id="clipPath97">
        <path d="M657 744 L669 744 L669 755 L657 755 L657 744 Z" />
      </clipPath>
      <clipPath clipPathUnits="userSpaceOnUse" id="clipPath98">
        <path d="M87 903 L543 903 L543 927 L87 927 L87 903 Z" />
      </clipPath>
      <clipPath clipPathUnits="userSpaceOnUse" id="clipPath99">
        <path d="M794 924 L806 924 L806 935 L794 935 L794 924 Z" />
      </clipPath>
      <clipPath clipPathUnits="userSpaceOnUse" id="clipPath100">
        <path d="M82 1022 L570 1022 L570 1046 L82 1046 L82 1022 Z" />
      </clipPath>
      <clipPath clipPathUnits="userSpaceOnUse" id="clipPath101">
        <path d="M794 1044 L806 1044 L806 1055 L794 1055 L794 1044 Z" />
      </clipPath>
      <clipPath clipPathUnits="userSpaceOnUse" id="clipPath102">
        <path d="M104 1141 L457 1141 L457 1165 L104 1165 L104 1141 Z" />
      </clipPath>
      <clipPath clipPathUnits="userSpaceOnUse" id="clipPath103">
        <path d="M794 1164 L806 1164 L806 1175 L794 1175 L794 1164 Z" />
      </clipPath>
    </defs>
    <g font-size="19" fill="rgb(238,201,142)" font-family="'Lucida Sans'" stroke-linejoin="round" stroke="rgb(238,201,142)" stroke-width="0" stroke-miterlimit="0">
      <rect x="111" y="10" clip-path="url(#clipPath1)" width="70" height="30" stroke="none" />
    </g>
    <g stroke-width="0.1" font-size="19" font-family="'Lucida Sans'" stroke-linecap="butt">
      <rect x="111" y="10" clip-path="url(#clipPath1)" fill="none" width="69" height="29" />
      <text xml:space="preserve" x="113" y="33" clip-path="url(#clipPath2)" stroke="none">System</text>
      <line clip-path="url(#clipPath3)" fill="none" x1="145" x2="145" y1="40" y2="1260" stroke-dasharray="10,10" stroke-width="1.1" />
    </g>
    <g stroke-linecap="butt" font-size="19" fill="rgb(255,245,181)" font-family="'Lucida Sans'" stroke-dasharray="10,10" stroke="rgb(255,245,181)" stroke-width="1.1">
      <rect x="211" y="10" clip-path="url(#clipPath4)" width="120" height="50" stroke="none" />
    </g>
    <g stroke-width="0.1" font-size="19" font-family="'Lucida Sans'" stroke-linecap="butt">
      <rect x="211" y="10" clip-path="url(#clipPath4)" fill="none" width="119" height="49" />
      <text xml:space="preserve" x="221" y="21" clip-path="url(#clipPath5)" stroke="none">theCreator</text>
      <text xml:space="preserve" x="265" y="43" clip-path="url(#clipPath6)" stroke="none">: </text>
      <text xml:space="preserve" x="215" y="65" clip-path="url(#clipPath7)" stroke="none">actMsrCre...</text>
      <line clip-path="url(#clipPath8)" fill="none" x1="270" x2="270" y1="60" y2="1260" stroke-dasharray="10,10" stroke-width="1.1" />
    </g>
    <g stroke-linecap="butt" font-size="19" fill="rgb(255,245,181)" font-family="'Lucida Sans'" stroke-dasharray="10,10" stroke="rgb(255,245,181)" stroke-width="1.1">
      <rect x="341" y="10" clip-path="url(#clipPath9)" width="119" height="50" stroke="none" />
    </g>
    <g stroke-width="0.1" font-size="19" font-family="'Lucida Sans'" stroke-linecap="butt">
      <rect x="341" y="10" clip-path="url(#clipPath9)" fill="none" width="118" height="49" />
      <text xml:space="preserve" x="359" y="21" clip-path="url(#clipPath10)" stroke="none">theClock</text>
      <text xml:space="preserve" x="394" y="43" clip-path="url(#clipPath11)" stroke="none">: </text>
      <text xml:space="preserve" x="344" y="65" clip-path="url(#clipPath12)" stroke="none">actActivator</text>
      <line clip-path="url(#clipPath13)" fill="none" x1="399" x2="399" y1="60" y2="1260" stroke-dasharray="10,10" stroke-width="1.1" />
    </g>
    <g stroke-linecap="butt" font-size="19" fill="rgb(39,76,114)" font-family="'Lucida Sans'" stroke-dasharray="10,10" stroke="rgb(39,76,114)" stroke-width="1.1">
      <rect x="390" y="510" clip-path="url(#clipPath14)" width="20" height="40" stroke="none" />
      <rect x="390" y="510" clip-path="url(#clipPath14)" fill="none" width="19" stroke-dasharray="none" height="39" stroke-width="0.1" />
    </g>
    <g stroke-width="0.1" font-size="19" font-family="'Lucida Sans'" stroke-linecap="butt">
      <text xml:space="preserve" x="411" y="529" clip-path="url(#clipPath15)" stroke="none">out04</text>
      <rect x="390" y="810" clip-path="url(#clipPath16)" fill="rgb(39,76,114)" width="20" height="40" stroke="none" />
      <rect x="390" y="810" clip-path="url(#clipPath16)" fill="none" width="19" height="39" stroke="rgb(39,76,114)" />
      <text xml:space="preserve" x="411" y="829" clip-path="url(#clipPath17)" stroke="none">out07</text>
      <rect x="470" y="10" clip-path="url(#clipPath18)" fill="rgb(255,245,181)" width="130" height="50" stroke="none" />
      <rect x="470" y="10" clip-path="url(#clipPath18)" fill="none" width="129" height="49" />
      <text xml:space="preserve" x="519" y="21" clip-path="url(#clipPath19)" stroke="none">bill</text>
      <text xml:space="preserve" x="528" y="43" clip-path="url(#clipPath19)" stroke="none">: </text>
      <text xml:space="preserve" x="473" y="65" clip-path="url(#clipPath20)" stroke="none">actAdminis...</text>
      <line clip-path="url(#clipPath21)" fill="none" x1="534" x2="534" y1="60" y2="1260" stroke-dasharray="10,10" stroke-width="1.1" />
    </g>
    <g stroke-linecap="butt" font-size="19" fill="rgb(255,245,181)" font-family="'Lucida Sans'" stroke-dasharray="10,10" stroke="rgb(255,245,181)" stroke-width="1.1">
      <rect x="610" y="10" clip-path="url(#clipPath22)" width="132" height="50" stroke="none" />
    </g>
    <g stroke-width="0.1" font-size="19" font-family="'Lucida Sans'" stroke-linecap="butt">
      <rect x="610" y="10" clip-path="url(#clipPath22)" fill="none" width="131" height="49" />
      <text xml:space="preserve" x="649" y="21" clip-path="url(#clipPath23)" stroke="none">tango</text>
      <text xml:space="preserve" x="670" y="43" clip-path="url(#clipPath24)" stroke="none">: </text>
      <text xml:space="preserve" x="619" y="65" clip-path="url(#clipPath23)" stroke="none">actComCo...</text>
      <line clip-path="url(#clipPath25)" fill="none" x1="675" x2="675" y1="60" y2="1260" stroke-dasharray="10,10" stroke-width="1.1" />
    </g>
    <g stroke-linecap="butt" font-size="19" fill="rgb(39,76,114)" font-family="'Lucida Sans'" stroke-dasharray="10,10" stroke="rgb(39,76,114)" stroke-width="1.1">
      <rect x="666" y="690" clip-path="url(#clipPath26)" width="20" height="40" stroke="none" />
      <rect x="666" y="690" clip-path="url(#clipPath26)" fill="none" width="19" stroke-dasharray="none" height="39" stroke-width="0.1" />
    </g>
    <g stroke-width="0.1" font-size="19" font-family="'Lucida Sans'" stroke-linecap="butt">
      <text xml:space="preserve" x="687" y="709" clip-path="url(#clipPath27)" stroke="none">out06</text>
      <rect x="666" y="390" clip-path="url(#clipPath28)" fill="rgb(194,239,255)" width="20" height="40" stroke="none" />
      <rect x="666" y="390" clip-path="url(#clipPath28)" fill="none" width="19" height="39" stroke="rgb(194,239,255)" />
      <text xml:space="preserve" x="687" y="409" clip-path="url(#clipPath29)" stroke="none">in03</text>
      <rect x="666" y="750" clip-path="url(#clipPath30)" fill="rgb(194,239,255)" width="20" height="40" stroke="none" />
      <rect x="666" y="750" clip-path="url(#clipPath30)" fill="none" width="19" height="39" stroke="rgb(194,239,255)" />
      <text xml:space="preserve" x="687" y="769" clip-path="url(#clipPath31)" stroke="none">in06</text>
      <rect x="752" y="10" clip-path="url(#clipPath32)" fill="rgb(255,245,181)" width="122" height="50" stroke="none" />
      <rect x="752" y="10" clip-path="url(#clipPath32)" fill="none" width="121" height="49" />
      <text xml:space="preserve" x="788" y="21" clip-path="url(#clipPath33)" stroke="none">steve</text>
      <text xml:space="preserve" x="806" y="43" clip-path="url(#clipPath34)" stroke="none">: </text>
      <text xml:space="preserve" x="752" y="65" clip-path="url(#clipPath33)" stroke="none">actCoordin...</text>
      <line clip-path="url(#clipPath35)" fill="none" x1="812" x2="812" y1="60" y2="1260" stroke-dasharray="10,10" stroke-width="1.1" />
    </g>
    <g stroke-linecap="butt" font-size="19" fill="rgb(39,76,114)" font-family="'Lucida Sans'" stroke-dasharray="10,10" stroke="rgb(39,76,114)" stroke-width="1.1">
      <rect x="803" y="99" clip-path="url(#clipPath36)" width="20" height="40" stroke="none" />
      <rect x="803" y="99" clip-path="url(#clipPath36)" fill="none" width="19" stroke-dasharray="none" height="39" stroke-width="0.1" />
    </g>
    <g stroke-width="0.1" font-size="19" font-family="'Lucida Sans'" stroke-linecap="butt">
      <text xml:space="preserve" x="824" y="118" clip-path="url(#clipPath37)" stroke="none">out01</text>
      <rect x="803" y="210" clip-path="url(#clipPath38)" fill="rgb(39,76,114)" width="20" height="40" stroke="none" />
      <rect x="803" y="210" clip-path="url(#clipPath38)" fill="none" width="19" height="39" stroke="rgb(39,76,114)" />
      <text xml:space="preserve" x="824" y="229" clip-path="url(#clipPath39)" stroke="none">out02</text>
      <rect x="803" y="330" clip-path="url(#clipPath40)" fill="rgb(39,76,114)" width="20" height="40" stroke="none" />
      <rect x="803" y="330" clip-path="url(#clipPath40)" fill="none" width="19" height="39" stroke="rgb(39,76,114)" />
      <text xml:space="preserve" x="824" y="349" clip-path="url(#clipPath41)" stroke="none">out03</text>
      <rect x="803" y="570" clip-path="url(#clipPath42)" fill="rgb(39,76,114)" width="20" height="40" stroke="none" />
      <rect x="803" y="570" clip-path="url(#clipPath42)" fill="none" width="19" height="39" stroke="rgb(39,76,114)" />
      <text xml:space="preserve" x="824" y="589" clip-path="url(#clipPath43)" stroke="none">out05</text>
      <rect x="803" y="870" clip-path="url(#clipPath44)" fill="rgb(39,76,114)" width="20" height="40" stroke="none" />
      <rect x="803" y="870" clip-path="url(#clipPath44)" fill="none" width="19" height="39" stroke="rgb(39,76,114)" />
      <text xml:space="preserve" x="824" y="889" clip-path="url(#clipPath45)" stroke="none">out08</text>
      <rect x="803" y="990" clip-path="url(#clipPath46)" fill="rgb(39,76,114)" width="20" height="40" stroke="none" />
      <rect x="803" y="990" clip-path="url(#clipPath46)" fill="none" width="19" height="39" stroke="rgb(39,76,114)" />
      <text xml:space="preserve" x="824" y="1009" clip-path="url(#clipPath47)" stroke="none">out09</text>
      <rect x="803" y="1110" clip-path="url(#clipPath48)" fill="rgb(39,76,114)" width="20" height="40" stroke="none" />
      <rect x="803" y="1110" clip-path="url(#clipPath48)" fill="none" width="19" height="39" stroke="rgb(39,76,114)" />
      <text xml:space="preserve" x="824" y="1129" clip-path="url(#clipPath49)" stroke="none">out10</text>
      <rect x="803" y="150" clip-path="url(#clipPath50)" fill="rgb(194,239,255)" width="20" height="40" stroke="none" />
      <rect x="803" y="150" clip-path="url(#clipPath50)" fill="none" width="19" height="39" stroke="rgb(194,239,255)" />
      <text xml:space="preserve" x="824" y="169" clip-path="url(#clipPath51)" stroke="none">in01</text>
      <rect x="803" y="263" clip-path="url(#clipPath52)" fill="rgb(194,239,255)" width="20" height="40" stroke="none" />
      <rect x="803" y="263" clip-path="url(#clipPath52)" fill="none" width="19" height="39" stroke="rgb(194,239,255)" />
      <text xml:space="preserve" x="824" y="282" clip-path="url(#clipPath53)" stroke="none">in02</text>
      <rect x="803" y="450" clip-path="url(#clipPath54)" fill="rgb(194,239,255)" width="20" height="40" stroke="none" />
      <rect x="803" y="450" clip-path="url(#clipPath54)" fill="none" width="19" height="39" stroke="rgb(194,239,255)" />
      <text xml:space="preserve" x="824" y="469" clip-path="url(#clipPath55)" stroke="none">in04</text>
      <rect x="803" y="630" clip-path="url(#clipPath56)" fill="rgb(194,239,255)" width="20" height="40" stroke="none" />
      <rect x="803" y="630" clip-path="url(#clipPath56)" fill="none" width="19" height="39" stroke="rgb(194,239,255)" />
      <text xml:space="preserve" x="824" y="649" clip-path="url(#clipPath57)" stroke="none">in05</text>
      <rect x="803" y="930" clip-path="url(#clipPath58)" fill="rgb(194,239,255)" width="20" height="40" stroke="none" />
      <rect x="803" y="930" clip-path="url(#clipPath58)" fill="none" width="19" height="39" stroke="rgb(194,239,255)" />
      <text xml:space="preserve" x="824" y="949" clip-path="url(#clipPath59)" stroke="none">in07</text>
      <rect x="803" y="1050" clip-path="url(#clipPath60)" fill="rgb(194,239,255)" width="20" height="40" stroke="none" />
      <rect x="803" y="1050" clip-path="url(#clipPath60)" fill="none" width="19" height="39" stroke="rgb(194,239,255)" />
      <text xml:space="preserve" x="824" y="1069" clip-path="url(#clipPath61)" stroke="none">in08</text>
      <rect x="803" y="1170" clip-path="url(#clipPath62)" fill="rgb(194,239,255)" width="20" height="40" stroke="none" />
      <rect x="803" y="1170" clip-path="url(#clipPath62)" fill="none" width="19" height="39" stroke="rgb(194,239,255)" />
      <text xml:space="preserve" x="824" y="1189" clip-path="url(#clipPath63)" stroke="none">in09</text>
      <line clip-path="url(#clipPath64)" fill="none" x1="803" x2="146" y1="98" y2="98" stroke="rgb(136,136,136)" stroke-width="2.1" />
      <text x="95" y="91" clip-path="url(#clipPath65)" stroke="none" stroke-width="2.1" xml:space="preserve">oeLogin("steve","pwdMessirExcalibur2017")</text>
      <line clip-path="url(#clipPath66)" fill="none" x1="153" x2="146" y1="95" y2="98" stroke="rgb(136,136,136)" stroke-width="2.1" />
      <line clip-path="url(#clipPath66)" fill="none" x1="146" x2="153" y1="98" y2="101" stroke="rgb(136,136,136)" stroke-width="2.1" />
      <line clip-path="url(#clipPath64)" fill="none" x1="803" x2="146" y1="209" y2="209" stroke="rgb(136,136,136)" stroke-width="2.1" />
      <text x="119" y="202" clip-path="url(#clipPath67)" stroke="none" stroke-width="2.1" xml:space="preserve">oeGetCrisisSet("pending")</text>
      <line clip-path="url(#clipPath68)" fill="none" x1="153" x2="146" y1="206" y2="209" stroke="rgb(136,136,136)" stroke-width="2.1" />
      <line clip-path="url(#clipPath68)" fill="none" x1="146" x2="153" y1="209" y2="212" stroke="rgb(136,136,136)" stroke-width="2.1" />
      <line clip-path="url(#clipPath64)" fill="none" x1="803" x2="146" y1="329" y2="329" stroke="rgb(136,136,136)" stroke-width="2.1" />
      <text x="122" y="321" clip-path="url(#clipPath69)" stroke="none" stroke-width="2.1" xml:space="preserve">oeSetCrisisHandler("1")</text>
      <line clip-path="url(#clipPath70)" fill="none" x1="153" x2="146" y1="326" y2="329" stroke="rgb(136,136,136)" stroke-width="2.1" />
      <line clip-path="url(#clipPath70)" fill="none" x1="146" x2="153" y1="329" y2="332" stroke="rgb(136,136,136)" stroke-width="2.1" />
      <line clip-path="url(#clipPath64)" fill="none" x1="390" x2="146" y1="509" y2="509" stroke="rgb(136,136,136)" stroke-width="2.1" />
      <text x="110" y="503" clip-path="url(#clipPath71)" stroke="none" stroke-width="2.1" xml:space="preserve">oeSetClock("2017:11:26 - 10:45:00")</text>
      <line clip-path="url(#clipPath72)" fill="none" x1="153" x2="146" y1="506" y2="509" stroke="rgb(136,136,136)" stroke-width="2.1" />
      <line clip-path="url(#clipPath72)" fill="none" x1="146" x2="153" y1="509" y2="512" stroke="rgb(136,136,136)" stroke-width="2.1" />
      <line clip-path="url(#clipPath64)" fill="none" x1="803" x2="146" y1="569" y2="569" stroke="rgb(136,136,136)" stroke-width="2.1" />
      <text x="126" y="562" clip-path="url(#clipPath73)" stroke="none" stroke-width="2.1" xml:space="preserve">oeValidateAlert("1")</text>
      <line clip-path="url(#clipPath74)" fill="none" x1="153" x2="146" y1="566" y2="569" stroke="rgb(136,136,136)" stroke-width="2.1" />
      <line clip-path="url(#clipPath74)" fill="none" x1="146" x2="153" y1="569" y2="572" stroke="rgb(136,136,136)" stroke-width="2.1" />
      <line clip-path="url(#clipPath64)" fill="none" x1="666" x2="146" y1="689" y2="689" stroke="rgb(136,136,136)" stroke-width="2.1" />
      <text x="198" y="661" clip-path="url(#clipPath75)" stroke="none" stroke-width="2.1" xml:space="preserve">oeAlert("witness","2017:11:26","10:20:00","</text>
      <text x="155" y="683" clip-path="url(#clipPath76)" stroke="none" stroke-width="2.1" xml:space="preserve">+3524666445000","49.627095:6.160251","A car c...</text>
      <line clip-path="url(#clipPath77)" fill="none" x1="153" x2="146" y1="686" y2="689" stroke="rgb(136,136,136)" stroke-width="2.1" />
      <line clip-path="url(#clipPath77)" fill="none" x1="146" x2="153" y1="689" y2="692" stroke="rgb(136,136,136)" stroke-width="2.1" />
      <line clip-path="url(#clipPath64)" fill="none" x1="390" x2="146" y1="809" y2="809" stroke="rgb(136,136,136)" stroke-width="2.1" />
      <text x="111" y="802" clip-path="url(#clipPath78)" stroke="none" stroke-width="2.1" xml:space="preserve">oeSetClock("2017:11:26 - 12:45:00")</text>
      <line clip-path="url(#clipPath79)" fill="none" x1="153" x2="146" y1="806" y2="809" stroke="rgb(136,136,136)" stroke-width="2.1" />
      <line clip-path="url(#clipPath79)" fill="none" x1="146" x2="153" y1="809" y2="812" stroke="rgb(136,136,136)" stroke-width="2.1" />
      <line clip-path="url(#clipPath64)" fill="none" x1="803" x2="146" y1="869" y2="869" stroke="rgb(136,136,136)" stroke-width="2.1" />
      <text x="114" y="862" clip-path="url(#clipPath80)" stroke="none" stroke-width="2.1" xml:space="preserve">oeSetCrisisStatus("1","solved")</text>
      <line clip-path="url(#clipPath81)" fill="none" x1="153" x2="146" y1="866" y2="869" stroke="rgb(136,136,136)" stroke-width="2.1" />
      <line clip-path="url(#clipPath81)" fill="none" x1="146" x2="153" y1="869" y2="872" stroke="rgb(136,136,136)" stroke-width="2.1" />
      <line clip-path="url(#clipPath64)" fill="none" x1="803" x2="146" y1="989" y2="989" stroke="rgb(136,136,136)" stroke-width="2.1" />
      <text x="24" y="987" clip-path="url(#clipPath82)" stroke="none" stroke-width="2.1" xml:space="preserve">oeReportOnCrisis("1","3 victims sent to hospital, 2 cars evacuated and 4 rescue unit mobilized")</text>
      <line clip-path="url(#clipPath83)" fill="none" x1="153" x2="146" y1="986" y2="989" stroke="rgb(136,136,136)" stroke-width="2.1" />
      <line clip-path="url(#clipPath83)" fill="none" x1="146" x2="153" y1="989" y2="992" stroke="rgb(136,136,136)" stroke-width="2.1" />
      <line clip-path="url(#clipPath64)" fill="none" x1="803" x2="146" y1="1109" y2="1109" stroke="rgb(136,136,136)" stroke-width="2.1" />
      <text x="128" y="1102" clip-path="url(#clipPath84)" stroke="none" stroke-width="2.1" xml:space="preserve">oeCloseCrisis("1")</text>
      <line clip-path="url(#clipPath85)" fill="none" x1="153" x2="146" y1="1106" y2="1109" stroke="rgb(136,136,136)" stroke-width="2.1" />
      <line clip-path="url(#clipPath85)" fill="none" x1="146" x2="153" y1="1109" y2="1112" stroke="rgb(136,136,136)" stroke-width="2.1" />
    </g>
    <g stroke-linecap="butt" font-size="19" fill="rgb(136,136,136)" font-family="'Lucida Sans'" stroke-dasharray="5,5" stroke="rgb(136,136,136)" stroke-width="2.1">
      <line clip-path="url(#clipPath64)" fill="none" x1="803" x2="146" y1="149" y2="149" />
      <text x="97" y="143" clip-path="url(#clipPath86)" fill="black" stroke="none" xml:space="preserve">ieMessage(You are logged ! Welcome ...)</text>
      <line clip-path="url(#clipPath87)" fill="none" x1="796" x2="803" y1="152" y2="149" stroke-dasharray="none" />
      <line clip-path="url(#clipPath87)" fill="none" x1="803" x2="796" y1="149" y2="146" stroke-dasharray="none" />
      <line clip-path="url(#clipPath64)" fill="none" x1="803" x2="146" y1="262" y2="262" />
      <text x="103" y="257" clip-path="url(#clipPath88)" fill="black" stroke="none" xml:space="preserve">ieSendACrisis(crisis with ID 1 details)</text>
      <line clip-path="url(#clipPath89)" fill="none" x1="796" x2="803" y1="265" y2="262" stroke-dasharray="none" />
      <line clip-path="url(#clipPath89)" fill="none" x1="803" x2="796" y1="262" y2="259" stroke-dasharray="none" />
      <line clip-path="url(#clipPath64)" fill="none" x1="666" x2="146" y1="389" y2="389" />
      <text x="41" y="383" clip-path="url(#clipPath90)" fill="black" stroke="none" xml:space="preserve">ieSmsSend(+3524666445252,The handling of your alert by our services is in progress !)</text>
      <line clip-path="url(#clipPath91)" fill="none" x1="659" x2="666" y1="392" y2="389" stroke-dasharray="none" />
      <line clip-path="url(#clipPath91)" fill="none" x1="666" x2="659" y1="389" y2="386" stroke-dasharray="none" />
      <line clip-path="url(#clipPath64)" fill="none" x1="803" x2="146" y1="449" y2="449" />
      <text x="73" y="441" clip-path="url(#clipPath92)" fill="black" stroke="none" xml:space="preserve">ieMessage(You are now considered as handling the crisis !)</text>
      <line clip-path="url(#clipPath93)" fill="none" x1="796" x2="803" y1="452" y2="449" stroke-dasharray="none" />
      <line clip-path="url(#clipPath93)" fill="none" x1="803" x2="796" y1="449" y2="446" stroke-dasharray="none" />
      <line clip-path="url(#clipPath64)" fill="none" x1="803" x2="146" y1="629" y2="629" />
      <text x="92" y="622" clip-path="url(#clipPath94)" fill="black" stroke="none" xml:space="preserve">ieMessage(The Alert is now declared as valid !)</text>
      <line clip-path="url(#clipPath95)" fill="none" x1="796" x2="803" y1="632" y2="629" stroke-dasharray="none" />
      <line clip-path="url(#clipPath95)" fill="none" x1="803" x2="796" y1="629" y2="626" stroke-dasharray="none" />
      <line clip-path="url(#clipPath64)" fill="none" x1="666" x2="146" y1="749" y2="749" />
      <text x="26" y="745" clip-path="url(#clipPath96)" fill="black" stroke="none" xml:space="preserve">ieSmsSend(+3524666445000,Your alert has been registered. We will handle it and keep you informed)</text>
      <line clip-path="url(#clipPath97)" fill="none" x1="659" x2="666" y1="752" y2="749" stroke-dasharray="none" />
      <line clip-path="url(#clipPath97)" fill="none" x1="666" x2="659" y1="749" y2="746" stroke-dasharray="none" />
      <line clip-path="url(#clipPath64)" fill="none" x1="803" x2="146" y1="929" y2="929" />
      <text x="88" y="923" clip-path="url(#clipPath98)" fill="black" stroke="none" xml:space="preserve">ieMessage(The crisis status has been updated !)</text>
      <line clip-path="url(#clipPath99)" fill="none" x1="796" x2="803" y1="932" y2="929" stroke-dasharray="none" />
      <line clip-path="url(#clipPath99)" fill="none" x1="803" x2="796" y1="929" y2="926" stroke-dasharray="none" />
      <line clip-path="url(#clipPath64)" fill="none" x1="803" x2="146" y1="1049" y2="1049" />
      <text x="83" y="1042" clip-path="url(#clipPath100)" fill="black" stroke="none" xml:space="preserve">ieMessage(The crisis comment has been updated !)</text>
      <line clip-path="url(#clipPath101)" fill="none" x1="796" x2="803" y1="1052" y2="1049" stroke-dasharray="none" />
      <line clip-path="url(#clipPath101)" fill="none" x1="803" x2="796" y1="1049" y2="1046" stroke-dasharray="none" />
      <line clip-path="url(#clipPath64)" fill="none" x1="803" x2="146" y1="1169" y2="1169" />
      <text x="105" y="1161" clip-path="url(#clipPath102)" fill="black" stroke="none" xml:space="preserve">ieMessage(The crisis is now closed !)</text>
      <line clip-path="url(#clipPath103)" fill="none" x1="796" x2="803" y1="1172" y2="1169" stroke-dasharray="none" />
      <line clip-path="url(#clipPath103)" fill="none" x1="803" x2="796" y1="1169" y2="1166" stroke-dasharray="none" />
    </g>
  </g>
</svg>

