<?xml version="1.0" encoding="UTF-8"?>
<svg xmlns="http://www.w3.org/2000/svg" xmlns:xlink="http://www.w3.org/1999/xlink" stroke-dasharray="none" shape-rendering="auto" font-family="'Dialog'" width="1448" text-rendering="auto" fill-opacity="1" contentScriptType="text/ecmascript" color-interpolation="auto" color-rendering="auto" preserveAspectRatio="xMidYMid meet" font-size="12" viewBox="0 0 1448 1085" fill="black" stroke="black" image-rendering="auto" stroke-miterlimit="10" zoomAndPan="magnify" version="1.0" stroke-linecap="square" stroke-linejoin="miter" contentStyleType="text/css" font-style="normal" height="1085" stroke-width="1" stroke-dashoffset="0" font-weight="normal" stroke-opacity="1">
  <!--Generated by the Batik Graphics2D SVG Generator-->
  <defs id="genericDefs" />
  <g>
    <defs id="defs1">
      <clipPath clipPathUnits="userSpaceOnUse" id="clipPath1">
        <path d="M334 9 L406 9 L406 41 L334 41 L334 9 Z" />
      </clipPath>
      <clipPath clipPathUnits="userSpaceOnUse" id="clipPath2">
        <path d="M364 39 L376 39 L376 1076 L364 1076 L364 39 Z" />
      </clipPath>
      <clipPath clipPathUnits="userSpaceOnUse" id="clipPath3">
        <path d="M493 9 L611 9 L611 61 L493 61 L493 9 Z" />
      </clipPath>
      <clipPath clipPathUnits="userSpaceOnUse" id="clipPath4">
        <path d="M493 9 L617 9 L617 61 L493 61 L493 9 Z" />
      </clipPath>
      <clipPath clipPathUnits="userSpaceOnUse" id="clipPath5">
        <path d="M546 59 L558 59 L558 1076 L546 1076 L546 59 Z" />
      </clipPath>
      <clipPath clipPathUnits="userSpaceOnUse" id="clipPath6">
        <path d="M541 89 L563 89 L563 131 L541 131 L541 89 Z" />
      </clipPath>
      <clipPath clipPathUnits="userSpaceOnUse" id="clipPath7">
        <path d="M562 89 L652 89 L652 124 L562 124 L562 89 Z" />
      </clipPath>
      <clipPath clipPathUnits="userSpaceOnUse" id="clipPath8">
        <path d="M619 9 L720 9 L720 61 L619 61 L619 9 Z" />
      </clipPath>
      <clipPath clipPathUnits="userSpaceOnUse" id="clipPath9">
        <path d="M619 9 L726 9 L726 61 L619 61 L619 9 Z" />
      </clipPath>
      <clipPath clipPathUnits="userSpaceOnUse" id="clipPath10">
        <path d="M663 59 L675 59 L675 1076 L663 1076 L663 59 Z" />
      </clipPath>
      <clipPath clipPathUnits="userSpaceOnUse" id="clipPath11">
        <path d="M658 149 L680 149 L680 191 L658 191 L658 149 Z" />
      </clipPath>
      <clipPath clipPathUnits="userSpaceOnUse" id="clipPath12">
        <path d="M679 149 L769 149 L769 184 L679 184 L679 149 Z" />
      </clipPath>
      <clipPath clipPathUnits="userSpaceOnUse" id="clipPath13">
        <path d="M658 569 L680 569 L680 611 L658 611 L658 569 Z" />
      </clipPath>
      <clipPath clipPathUnits="userSpaceOnUse" id="clipPath14">
        <path d="M679 569 L769 569 L769 604 L679 604 L679 569 Z" />
      </clipPath>
      <clipPath clipPathUnits="userSpaceOnUse" id="clipPath15">
        <path d="M658 789 L680 789 L680 831 L658 831 L658 789 Z" />
      </clipPath>
      <clipPath clipPathUnits="userSpaceOnUse" id="clipPath16">
        <path d="M679 789 L769 789 L769 824 L679 824 L679 789 Z" />
      </clipPath>
      <clipPath clipPathUnits="userSpaceOnUse" id="clipPath17">
        <path d="M658 849 L680 849 L680 891 L658 891 L658 849 Z" />
      </clipPath>
      <clipPath clipPathUnits="userSpaceOnUse" id="clipPath18">
        <path d="M679 849 L769 849 L769 884 L679 884 L679 849 Z" />
      </clipPath>
      <clipPath clipPathUnits="userSpaceOnUse" id="clipPath19">
        <path d="M728 9 L859 9 L859 61 L728 61 L728 9 Z" />
      </clipPath>
      <clipPath clipPathUnits="userSpaceOnUse" id="clipPath20">
        <path d="M728 9 L864 9 L864 61 L728 61 L728 9 Z" />
      </clipPath>
      <clipPath clipPathUnits="userSpaceOnUse" id="clipPath21">
        <path d="M728 9 L865 9 L865 61 L728 61 L728 9 Z" />
      </clipPath>
      <clipPath clipPathUnits="userSpaceOnUse" id="clipPath22">
        <path d="M787 59 L799 59 L799 1076 L787 1076 L787 59 Z" />
      </clipPath>
      <clipPath clipPathUnits="userSpaceOnUse" id="clipPath23">
        <path d="M782 209 L804 209 L804 251 L782 251 L782 209 Z" />
      </clipPath>
      <clipPath clipPathUnits="userSpaceOnUse" id="clipPath24">
        <path d="M803 209 L893 209 L893 244 L803 244 L803 209 Z" />
      </clipPath>
      <clipPath clipPathUnits="userSpaceOnUse" id="clipPath25">
        <path d="M782 329 L804 329 L804 371 L782 371 L782 329 Z" />
      </clipPath>
      <clipPath clipPathUnits="userSpaceOnUse" id="clipPath26">
        <path d="M803 329 L893 329 L893 364 L803 364 L803 329 Z" />
      </clipPath>
      <clipPath clipPathUnits="userSpaceOnUse" id="clipPath27">
        <path d="M782 449 L804 449 L804 491 L782 491 L782 449 Z" />
      </clipPath>
      <clipPath clipPathUnits="userSpaceOnUse" id="clipPath28">
        <path d="M803 449 L893 449 L893 484 L803 484 L803 449 Z" />
      </clipPath>
      <clipPath clipPathUnits="userSpaceOnUse" id="clipPath29">
        <path d="M782 258 L804 258 L804 300 L782 300 L782 258 Z" />
      </clipPath>
      <clipPath clipPathUnits="userSpaceOnUse" id="clipPath30">
        <path d="M803 258 L873 258 L873 293 L803 293 L803 258 Z" />
      </clipPath>
      <clipPath clipPathUnits="userSpaceOnUse" id="clipPath31">
        <path d="M782 381 L804 381 L804 423 L782 423 L782 381 Z" />
      </clipPath>
      <clipPath clipPathUnits="userSpaceOnUse" id="clipPath32">
        <path d="M803 381 L873 381 L873 416 L803 416 L803 381 Z" />
      </clipPath>
      <clipPath clipPathUnits="userSpaceOnUse" id="clipPath33">
        <path d="M782 499 L804 499 L804 541 L782 541 L782 499 Z" />
      </clipPath>
      <clipPath clipPathUnits="userSpaceOnUse" id="clipPath34">
        <path d="M803 499 L873 499 L873 534 L803 534 L803 499 Z" />
      </clipPath>
      <clipPath clipPathUnits="userSpaceOnUse" id="clipPath35">
        <path d="M782 915 L804 915 L804 957 L782 957 L782 915 Z" />
      </clipPath>
      <clipPath clipPathUnits="userSpaceOnUse" id="clipPath36">
        <path d="M803 915 L873 915 L873 950 L803 950 L803 915 Z" />
      </clipPath>
      <clipPath clipPathUnits="userSpaceOnUse" id="clipPath37">
        <path d="M867 9 L1003 9 L1003 61 L867 61 L867 9 Z" />
      </clipPath>
      <clipPath clipPathUnits="userSpaceOnUse" id="clipPath38">
        <path d="M867 9 L1010 9 L1010 61 L867 61 L867 9 Z" />
      </clipPath>
      <clipPath clipPathUnits="userSpaceOnUse" id="clipPath39">
        <path d="M867 9 L1009 9 L1009 61 L867 61 L867 9 Z" />
      </clipPath>
      <clipPath clipPathUnits="userSpaceOnUse" id="clipPath40">
        <path d="M929 59 L941 59 L941 1076 L929 1076 L929 59 Z" />
      </clipPath>
      <clipPath clipPathUnits="userSpaceOnUse" id="clipPath41">
        <path d="M924 664 L946 664 L946 706 L924 706 L924 664 Z" />
      </clipPath>
      <clipPath clipPathUnits="userSpaceOnUse" id="clipPath42">
        <path d="M945 664 L1035 664 L1035 699 L945 699 L945 664 Z" />
      </clipPath>
      <clipPath clipPathUnits="userSpaceOnUse" id="clipPath43">
        <path d="M924 729 L946 729 L946 771 L924 771 L924 729 Z" />
      </clipPath>
      <clipPath clipPathUnits="userSpaceOnUse" id="clipPath44">
        <path d="M945 729 L1015 729 L1015 764 L945 764 L945 729 Z" />
      </clipPath>
      <clipPath clipPathUnits="userSpaceOnUse" id="clipPath45">
        <path d="M1011 9 L1141 9 L1141 61 L1011 61 L1011 9 Z" />
      </clipPath>
      <clipPath clipPathUnits="userSpaceOnUse" id="clipPath46">
        <path d="M1011 9 L1148 9 L1148 61 L1011 61 L1011 9 Z" />
      </clipPath>
      <clipPath clipPathUnits="userSpaceOnUse" id="clipPath47">
        <path d="M1011 9 L1147 9 L1147 61 L1011 61 L1011 9 Z" />
      </clipPath>
      <clipPath clipPathUnits="userSpaceOnUse" id="clipPath48">
        <path d="M1070 59 L1082 59 L1082 1076 L1070 1076 L1070 59 Z" />
      </clipPath>
      <clipPath clipPathUnits="userSpaceOnUse" id="clipPath49">
        <path d="M1065 984 L1087 984 L1087 1026 L1065 1026 L1065 984 Z" />
      </clipPath>
      <clipPath clipPathUnits="userSpaceOnUse" id="clipPath50">
        <path d="M1086 984 L1156 984 L1156 1019 L1086 1019 L1086 984 Z" />
      </clipPath>
      <clipPath clipPathUnits="userSpaceOnUse" id="clipPath51">
        <path d="M-1 -1 L1449 -1 L1449 1086 L-1 1086 L-1 -1 Z" />
      </clipPath>
      <clipPath clipPathUnits="userSpaceOnUse" id="clipPath52">
        <path d="M255 59 L759 59 L759 94 L255 94 L255 59 Z" />
      </clipPath>
      <clipPath clipPathUnits="userSpaceOnUse" id="clipPath53">
        <path d="M368 85 L380 85 L380 96 L368 96 L368 85 Z" />
      </clipPath>
      <clipPath clipPathUnits="userSpaceOnUse" id="clipPath54">
        <path d="M248 120 L765 120 L765 155 L248 155 L248 120 Z" />
      </clipPath>
      <clipPath clipPathUnits="userSpaceOnUse" id="clipPath55">
        <path d="M368 145 L380 145 L380 156 L368 156 L368 145 Z" />
      </clipPath>
      <clipPath clipPathUnits="userSpaceOnUse" id="clipPath56">
        <path d="M251 177 L748 177 L748 212 L251 212 L251 177 Z" />
      </clipPath>
      <clipPath clipPathUnits="userSpaceOnUse" id="clipPath57">
        <path d="M368 205 L380 205 L380 216 L368 216 L368 205 Z" />
      </clipPath>
      <clipPath clipPathUnits="userSpaceOnUse" id="clipPath58">
        <path d="M185 296 L967 296 L967 331 L185 331 L185 296 Z" />
      </clipPath>
      <clipPath clipPathUnits="userSpaceOnUse" id="clipPath59">
        <path d="M368 325 L380 325 L380 336 L368 336 L368 325 Z" />
      </clipPath>
      <clipPath clipPathUnits="userSpaceOnUse" id="clipPath60">
        <path d="M339 417 L492 417 L492 452 L339 452 L339 417 Z" />
      </clipPath>
      <clipPath clipPathUnits="userSpaceOnUse" id="clipPath61">
        <path d="M368 445 L380 445 L380 456 L368 456 L368 445 Z" />
      </clipPath>
      <clipPath clipPathUnits="userSpaceOnUse" id="clipPath62">
        <path d="M249 539 L766 539 L766 574 L249 574 L249 539 Z" />
      </clipPath>
      <clipPath clipPathUnits="userSpaceOnUse" id="clipPath63">
        <path d="M368 565 L380 565 L380 576 L368 576 L368 565 Z" />
      </clipPath>
      <clipPath clipPathUnits="userSpaceOnUse" id="clipPath64">
        <path d="M359 604 L865 604 L865 683 L359 683 L359 604 Z" />
      </clipPath>
      <clipPath clipPathUnits="userSpaceOnUse" id="clipPath65">
        <path d="M359 604 L866 604 L866 683 L359 683 L359 604 Z" />
      </clipPath>
      <clipPath clipPathUnits="userSpaceOnUse" id="clipPath66">
        <path d="M368 660 L380 660 L380 671 L368 671 L368 660 Z" />
      </clipPath>
      <clipPath clipPathUnits="userSpaceOnUse" id="clipPath67">
        <path d="M246 754 L763 754 L763 789 L246 789 L246 754 Z" />
      </clipPath>
      <clipPath clipPathUnits="userSpaceOnUse" id="clipPath68">
        <path d="M368 785 L380 785 L380 796 L368 796 L368 785 Z" />
      </clipPath>
      <clipPath clipPathUnits="userSpaceOnUse" id="clipPath69">
        <path d="M282 816 L665 816 L665 851 L282 851 L282 816 Z" />
      </clipPath>
      <clipPath clipPathUnits="userSpaceOnUse" id="clipPath70">
        <path d="M368 845 L380 845 L380 856 L368 856 L368 845 Z" />
      </clipPath>
      <clipPath clipPathUnits="userSpaceOnUse" id="clipPath71">
        <path d="M240 227 L795 227 L795 262 L240 262 L240 227 Z" />
      </clipPath>
      <clipPath clipPathUnits="userSpaceOnUse" id="clipPath72">
        <path d="M774 254 L786 254 L786 265 L774 265 L774 254 Z" />
      </clipPath>
      <clipPath clipPathUnits="userSpaceOnUse" id="clipPath73">
        <path d="M276 351 L692 351 L692 386 L276 386 L276 351 Z" />
      </clipPath>
      <clipPath clipPathUnits="userSpaceOnUse" id="clipPath74">
        <path d="M774 377 L786 377 L786 388 L774 388 L774 377 Z" />
      </clipPath>
      <clipPath clipPathUnits="userSpaceOnUse" id="clipPath75">
        <path d="M224 469 L838 469 L838 504 L224 504 L224 469 Z" />
      </clipPath>
      <clipPath clipPathUnits="userSpaceOnUse" id="clipPath76">
        <path d="M774 495 L786 495 L786 506 L774 506 L774 495 Z" />
      </clipPath>
      <clipPath clipPathUnits="userSpaceOnUse" id="clipPath77">
        <path d="M23 700 L1432 700 L1432 735 L23 735 L23 700 Z" />
      </clipPath>
      <clipPath clipPathUnits="userSpaceOnUse" id="clipPath78">
        <path d="M916 725 L928 725 L928 736 L916 736 L916 725 Z" />
      </clipPath>
      <clipPath clipPathUnits="userSpaceOnUse" id="clipPath79">
        <path d="M89 886 L1275 886 L1275 921 L89 921 L89 886 Z" />
      </clipPath>
      <clipPath clipPathUnits="userSpaceOnUse" id="clipPath80">
        <path d="M774 911 L786 911 L786 922 L774 922 L774 911 Z" />
      </clipPath>
      <clipPath clipPathUnits="userSpaceOnUse" id="clipPath81">
        <path d="M85 954 L1271 954 L1271 989 L85 989 L85 954 Z" />
      </clipPath>
      <clipPath clipPathUnits="userSpaceOnUse" id="clipPath82">
        <path d="M1057 980 L1069 980 L1069 991 L1057 991 L1057 980 Z" />
      </clipPath>
    </defs>
    <g font-size="28" fill="rgb(238,201,142)" font-family="'Lucida Sans'" stroke-linejoin="round" stroke="rgb(238,201,142)" stroke-width="0" stroke-miterlimit="0">
      <rect x="335" y="10" clip-path="url(#clipPath1)" width="70" height="30" stroke="none" />
    </g>
    <g stroke-width="0.1" font-size="28" font-family="'Lucida Sans'" stroke-linecap="butt">
      <rect x="335" y="10" clip-path="url(#clipPath1)" fill="none" width="69" height="29" />
      <line clip-path="url(#clipPath2)" fill="none" x1="369" x2="369" y1="40" y2="1075" stroke-dasharray="10,10" stroke-width="1.1" />
    </g>
    <g stroke-linecap="butt" font-size="28" fill="rgb(255,245,181)" font-family="'Lucida Sans'" stroke-dasharray="10,10" stroke="rgb(255,245,181)" stroke-width="1.1">
      <rect x="494" y="10" clip-path="url(#clipPath3)" width="116" height="50" stroke="none" />
    </g>
    <g stroke-width="0.1" font-size="28" font-family="'Lucida Sans'" stroke-linecap="butt">
      <rect x="494" y="10" clip-path="url(#clipPath3)" fill="none" width="115" height="49" />
      <text xml:space="preserve" x="502" y="45" clip-path="url(#clipPath4)" stroke="none">theCr...</text>
      <line clip-path="url(#clipPath5)" fill="none" x1="551" x2="551" y1="60" y2="1075" stroke-dasharray="10,10" stroke-width="1.1" />
    </g>
    <g stroke-linecap="butt" font-size="28" fill="rgb(39,76,114)" font-family="'Lucida Sans'" stroke-dasharray="10,10" stroke="rgb(39,76,114)" stroke-width="1.1">
      <rect x="542" y="90" clip-path="url(#clipPath6)" width="20" height="40" stroke="none" />
      <rect x="542" y="90" clip-path="url(#clipPath6)" fill="none" width="19" stroke-dasharray="none" height="39" stroke-width="0.1" />
    </g>
    <g stroke-width="0.1" font-size="28" font-family="'Lucida Sans'" stroke-linecap="butt">
      <text xml:space="preserve" x="563" y="117" clip-path="url(#clipPath7)" stroke="none">out01</text>
      <rect x="620" y="10" clip-path="url(#clipPath8)" fill="rgb(255,245,181)" width="99" height="50" stroke="none" />
      <rect x="620" y="10" clip-path="url(#clipPath8)" fill="none" width="98" height="49" />
      <text xml:space="preserve" x="621" y="45" clip-path="url(#clipPath9)" stroke="none">theCl...</text>
      <line clip-path="url(#clipPath10)" fill="none" x1="668" x2="668" y1="60" y2="1075" stroke-dasharray="10,10" stroke-width="1.1" />
    </g>
    <g stroke-linecap="butt" font-size="28" fill="rgb(39,76,114)" font-family="'Lucida Sans'" stroke-dasharray="10,10" stroke="rgb(39,76,114)" stroke-width="1.1">
      <rect x="659" y="150" clip-path="url(#clipPath11)" width="20" height="40" stroke="none" />
      <rect x="659" y="150" clip-path="url(#clipPath11)" fill="none" width="19" stroke-dasharray="none" height="39" stroke-width="0.1" />
    </g>
    <g stroke-width="0.1" font-size="28" font-family="'Lucida Sans'" stroke-linecap="butt">
      <text xml:space="preserve" x="680" y="177" clip-path="url(#clipPath12)" stroke="none">out02</text>
      <rect x="659" y="570" clip-path="url(#clipPath13)" fill="rgb(39,76,114)" width="20" height="40" stroke="none" />
      <rect x="659" y="570" clip-path="url(#clipPath13)" fill="none" width="19" height="39" stroke="rgb(39,76,114)" />
      <text xml:space="preserve" x="680" y="597" clip-path="url(#clipPath14)" stroke="none">out06</text>
      <rect x="659" y="790" clip-path="url(#clipPath15)" fill="rgb(39,76,114)" width="20" height="40" stroke="none" />
      <rect x="659" y="790" clip-path="url(#clipPath15)" fill="none" width="19" height="39" stroke="rgb(39,76,114)" />
      <text xml:space="preserve" x="680" y="817" clip-path="url(#clipPath16)" stroke="none">out08</text>
      <rect x="659" y="850" clip-path="url(#clipPath17)" fill="rgb(39,76,114)" width="20" height="40" stroke="none" />
      <rect x="659" y="850" clip-path="url(#clipPath17)" fill="none" width="19" height="39" stroke="rgb(39,76,114)" />
      <text xml:space="preserve" x="680" y="877" clip-path="url(#clipPath18)" stroke="none">out09</text>
      <rect x="729" y="10" clip-path="url(#clipPath19)" fill="rgb(255,245,181)" width="129" height="50" stroke="none" />
      <rect x="729" y="10" clip-path="url(#clipPath19)" fill="none" width="128" height="49" />
      <text xml:space="preserve" x="772" y="29" clip-path="url(#clipPath20)" stroke="none">bill</text>
      <text xml:space="preserve" x="733" y="62" clip-path="url(#clipPath21)" stroke="none">: actAd...</text>
      <line clip-path="url(#clipPath22)" fill="none" x1="792" x2="792" y1="60" y2="1075" stroke-dasharray="10,10" stroke-width="1.1" />
    </g>
    <g stroke-linecap="butt" font-size="28" fill="rgb(39,76,114)" font-family="'Lucida Sans'" stroke-dasharray="10,10" stroke="rgb(39,76,114)" stroke-width="1.1">
      <rect x="783" y="210" clip-path="url(#clipPath23)" width="20" height="40" stroke="none" />
      <rect x="783" y="210" clip-path="url(#clipPath23)" fill="none" width="19" stroke-dasharray="none" height="39" stroke-width="0.1" />
    </g>
    <g stroke-width="0.1" font-size="28" font-family="'Lucida Sans'" stroke-linecap="butt">
      <text xml:space="preserve" x="804" y="237" clip-path="url(#clipPath24)" stroke="none">out03</text>
      <rect x="783" y="330" clip-path="url(#clipPath25)" fill="rgb(39,76,114)" width="20" height="40" stroke="none" />
      <rect x="783" y="330" clip-path="url(#clipPath25)" fill="none" width="19" height="39" stroke="rgb(39,76,114)" />
      <text xml:space="preserve" x="804" y="357" clip-path="url(#clipPath26)" stroke="none">out04</text>
      <rect x="783" y="450" clip-path="url(#clipPath27)" fill="rgb(39,76,114)" width="20" height="40" stroke="none" />
      <rect x="783" y="450" clip-path="url(#clipPath27)" fill="none" width="19" height="39" stroke="rgb(39,76,114)" />
      <text xml:space="preserve" x="804" y="477" clip-path="url(#clipPath28)" stroke="none">out05</text>
      <rect x="783" y="259" clip-path="url(#clipPath29)" fill="rgb(194,239,255)" width="20" height="40" stroke="none" />
      <rect x="783" y="259" clip-path="url(#clipPath29)" fill="none" width="19" height="39" stroke="rgb(194,239,255)" />
      <text xml:space="preserve" x="804" y="286" clip-path="url(#clipPath30)" stroke="none">in01</text>
      <rect x="783" y="382" clip-path="url(#clipPath31)" fill="rgb(194,239,255)" width="20" height="40" stroke="none" />
      <rect x="783" y="382" clip-path="url(#clipPath31)" fill="none" width="19" height="39" stroke="rgb(194,239,255)" />
      <text xml:space="preserve" x="804" y="409" clip-path="url(#clipPath32)" stroke="none">in02</text>
      <rect x="783" y="500" clip-path="url(#clipPath33)" fill="rgb(194,239,255)" width="20" height="40" stroke="none" />
      <rect x="783" y="500" clip-path="url(#clipPath33)" fill="none" width="19" height="39" stroke="rgb(194,239,255)" />
      <text xml:space="preserve" x="804" y="527" clip-path="url(#clipPath34)" stroke="none">in03</text>
      <rect x="783" y="916" clip-path="url(#clipPath35)" fill="rgb(194,239,255)" width="20" height="40" stroke="none" />
      <rect x="783" y="916" clip-path="url(#clipPath35)" fill="none" width="19" height="39" stroke="rgb(194,239,255)" />
      <text xml:space="preserve" x="804" y="943" clip-path="url(#clipPath36)" stroke="none">in05</text>
      <rect x="868" y="10" clip-path="url(#clipPath37)" fill="rgb(255,245,181)" width="134" height="50" stroke="none" />
      <rect x="868" y="10" clip-path="url(#clipPath37)" fill="none" width="133" height="49" />
      <text xml:space="preserve" x="897" y="29" clip-path="url(#clipPath38)" stroke="none">tango</text>
      <text xml:space="preserve" x="875" y="62" clip-path="url(#clipPath39)" stroke="none">: actCo...</text>
      <line clip-path="url(#clipPath40)" fill="none" x1="934" x2="934" y1="60" y2="1075" stroke-dasharray="10,10" stroke-width="1.1" />
    </g>
    <g stroke-linecap="butt" font-size="28" fill="rgb(39,76,114)" font-family="'Lucida Sans'" stroke-dasharray="10,10" stroke="rgb(39,76,114)" stroke-width="1.1">
      <rect x="925" y="665" clip-path="url(#clipPath41)" width="20" height="40" stroke="none" />
      <rect x="925" y="665" clip-path="url(#clipPath41)" fill="none" width="19" stroke-dasharray="none" height="39" stroke-width="0.1" />
    </g>
    <g stroke-width="0.1" font-size="28" font-family="'Lucida Sans'" stroke-linecap="butt">
      <text xml:space="preserve" x="946" y="692" clip-path="url(#clipPath42)" stroke="none">out07</text>
      <rect x="925" y="730" clip-path="url(#clipPath43)" fill="rgb(194,239,255)" width="20" height="40" stroke="none" />
      <rect x="925" y="730" clip-path="url(#clipPath43)" fill="none" width="19" height="39" stroke="rgb(194,239,255)" />
      <text xml:space="preserve" x="946" y="757" clip-path="url(#clipPath44)" stroke="none">in04</text>
      <rect x="1012" y="10" clip-path="url(#clipPath45)" fill="rgb(255,245,181)" width="128" height="50" stroke="none" />
      <rect x="1012" y="10" clip-path="url(#clipPath45)" fill="none" width="127" height="49" />
      <text xml:space="preserve" x="1040" y="29" clip-path="url(#clipPath46)" stroke="none">steve</text>
      <text xml:space="preserve" x="1016" y="62" clip-path="url(#clipPath47)" stroke="none">: actCo...</text>
      <line clip-path="url(#clipPath48)" fill="none" x1="1075" x2="1075" y1="60" y2="1075" stroke-dasharray="10,10" stroke-width="1.1" />
    </g>
    <g stroke-linecap="butt" font-size="28" fill="rgb(194,239,255)" font-family="'Lucida Sans'" stroke-dasharray="10,10" stroke="rgb(194,239,255)" stroke-width="1.1">
      <rect x="1066" y="985" clip-path="url(#clipPath49)" width="20" height="40" stroke="none" />
      <rect x="1066" y="985" clip-path="url(#clipPath49)" fill="none" width="19" stroke-dasharray="none" height="39" stroke-width="0.1" />
    </g>
    <g stroke-width="0.1" font-size="28" font-family="'Lucida Sans'" stroke-linecap="butt">
      <text xml:space="preserve" x="1087" y="1012" clip-path="url(#clipPath50)" stroke="none">in06</text>
      <line clip-path="url(#clipPath51)" fill="none" x1="542" x2="370" y1="90" y2="90" stroke="rgb(136,136,136)" stroke-width="2.1" />
      <text x="256" y="87" clip-path="url(#clipPath52)" stroke="none" stroke-width="2.1" xml:space="preserve">oeCreateSystemAndEnvironment("4")</text>
      <line clip-path="url(#clipPath53)" fill="none" x1="377" x2="370" y1="87" y2="90" stroke="rgb(136,136,136)" stroke-width="2.1" />
      <line clip-path="url(#clipPath53)" fill="none" x1="370" x2="377" y1="90" y2="93" stroke="rgb(136,136,136)" stroke-width="2.1" />
      <line clip-path="url(#clipPath51)" fill="none" x1="659" x2="370" y1="150" y2="150" stroke="rgb(136,136,136)" stroke-width="2.1" />
      <text x="249" y="148" clip-path="url(#clipPath54)" stroke="none" stroke-width="2.1" xml:space="preserve">oeSetClock("2017:11:24 - 03:20:00")</text>
      <line clip-path="url(#clipPath55)" fill="none" x1="377" x2="370" y1="147" y2="150" stroke="rgb(136,136,136)" stroke-width="2.1" />
      <line clip-path="url(#clipPath55)" fill="none" x1="370" x2="377" y1="150" y2="153" stroke="rgb(136,136,136)" stroke-width="2.1" />
      <line clip-path="url(#clipPath51)" fill="none" x1="783" x2="370" y1="210" y2="210" stroke="rgb(136,136,136)" stroke-width="2.1" />
      <text x="252" y="205" clip-path="url(#clipPath56)" stroke="none" stroke-width="2.1" xml:space="preserve">oeLogin("icrashadmin","7WXC1359")</text>
      <line clip-path="url(#clipPath57)" fill="none" x1="377" x2="370" y1="207" y2="210" stroke="rgb(136,136,136)" stroke-width="2.1" />
      <line clip-path="url(#clipPath57)" fill="none" x1="370" x2="377" y1="210" y2="213" stroke="rgb(136,136,136)" stroke-width="2.1" />
      <line clip-path="url(#clipPath51)" fill="none" x1="783" x2="370" y1="330" y2="330" stroke="rgb(136,136,136)" stroke-width="2.1" />
      <text x="186" y="324" clip-path="url(#clipPath58)" stroke="none" stroke-width="2.1" xml:space="preserve">oeAddCoordinator("1","steve","pwdMessirExcalibur2017")</text>
      <line clip-path="url(#clipPath59)" fill="none" x1="377" x2="370" y1="327" y2="330" stroke="rgb(136,136,136)" stroke-width="2.1" />
      <line clip-path="url(#clipPath59)" fill="none" x1="370" x2="377" y1="330" y2="333" stroke="rgb(136,136,136)" stroke-width="2.1" />
      <line clip-path="url(#clipPath51)" fill="none" x1="783" x2="370" y1="450" y2="450" stroke="rgb(136,136,136)" stroke-width="2.1" />
      <text x="340" y="445" clip-path="url(#clipPath60)" stroke="none" stroke-width="2.1" xml:space="preserve">oeLogout()</text>
      <line clip-path="url(#clipPath61)" fill="none" x1="377" x2="370" y1="447" y2="450" stroke="rgb(136,136,136)" stroke-width="2.1" />
      <line clip-path="url(#clipPath61)" fill="none" x1="370" x2="377" y1="450" y2="453" stroke="rgb(136,136,136)" stroke-width="2.1" />
      <line clip-path="url(#clipPath51)" fill="none" x1="659" x2="370" y1="570" y2="570" stroke="rgb(136,136,136)" stroke-width="2.1" />
      <text x="250" y="567" clip-path="url(#clipPath62)" stroke="none" stroke-width="2.1" xml:space="preserve">oeSetClock("2017:11:26 - 10:15:00")</text>
      <line clip-path="url(#clipPath63)" fill="none" x1="377" x2="370" y1="567" y2="570" stroke="rgb(136,136,136)" stroke-width="2.1" />
      <line clip-path="url(#clipPath63)" fill="none" x1="370" x2="377" y1="570" y2="573" stroke="rgb(136,136,136)" stroke-width="2.1" />
      <line clip-path="url(#clipPath51)" fill="none" x1="925" x2="370" y1="665" y2="665" stroke="rgb(136,136,136)" stroke-width="2.1" />
      <text x="367" y="637" clip-path="url(#clipPath64)" stroke="none" stroke-width="2.1" xml:space="preserve">oeAlert("witness","2017:11:26","10:</text>
      <text x="366" y="670" clip-path="url(#clipPath65)" stroke="none" stroke-width="2.1" xml:space="preserve">10:16","+3524666445252","49.6...</text>
      <line clip-path="url(#clipPath66)" fill="none" x1="377" x2="370" y1="662" y2="665" stroke="rgb(136,136,136)" stroke-width="2.1" />
      <line clip-path="url(#clipPath66)" fill="none" x1="370" x2="377" y1="665" y2="668" stroke="rgb(136,136,136)" stroke-width="2.1" />
      <line clip-path="url(#clipPath51)" fill="none" x1="659" x2="370" y1="790" y2="790" stroke="rgb(136,136,136)" stroke-width="2.1" />
      <text x="247" y="782" clip-path="url(#clipPath67)" stroke="none" stroke-width="2.1" xml:space="preserve">oeSetClock("2017:11:26 - 10:30:00")</text>
      <line clip-path="url(#clipPath68)" fill="none" x1="377" x2="370" y1="787" y2="790" stroke="rgb(136,136,136)" stroke-width="2.1" />
      <line clip-path="url(#clipPath68)" fill="none" x1="370" x2="377" y1="790" y2="793" stroke="rgb(136,136,136)" stroke-width="2.1" />
      <line clip-path="url(#clipPath51)" fill="none" x1="659" x2="370" y1="850" y2="850" stroke="rgb(136,136,136)" stroke-width="2.1" />
      <text x="283" y="844" clip-path="url(#clipPath69)" stroke="none" stroke-width="2.1" xml:space="preserve">oeSollicitateCrisisHandling()</text>
      <line clip-path="url(#clipPath70)" fill="none" x1="377" x2="370" y1="847" y2="850" stroke="rgb(136,136,136)" stroke-width="2.1" />
      <line clip-path="url(#clipPath70)" fill="none" x1="370" x2="377" y1="850" y2="853" stroke="rgb(136,136,136)" stroke-width="2.1" />
    </g>
    <g stroke-linecap="butt" font-size="28" fill="rgb(136,136,136)" font-family="'Lucida Sans'" stroke-dasharray="5,5" stroke="rgb(136,136,136)" stroke-width="2.1">
      <line clip-path="url(#clipPath51)" fill="none" x1="783" x2="370" y1="259" y2="259" />
      <text x="241" y="255" clip-path="url(#clipPath71)" fill="black" stroke="none" xml:space="preserve">ieMessage(You are logged ! Welcome ...)</text>
      <line clip-path="url(#clipPath72)" fill="none" x1="776" x2="783" y1="262" y2="259" stroke-dasharray="none" />
      <line clip-path="url(#clipPath72)" fill="none" x1="783" x2="776" y1="259" y2="256" stroke-dasharray="none" />
      <line clip-path="url(#clipPath51)" fill="none" x1="783" x2="370" y1="382" y2="382" />
      <text x="277" y="379" clip-path="url(#clipPath73)" fill="black" stroke="none" xml:space="preserve">ieCoordinatorAddedreturned()</text>
      <line clip-path="url(#clipPath74)" fill="none" x1="776" x2="783" y1="385" y2="382" stroke-dasharray="none" />
      <line clip-path="url(#clipPath74)" fill="none" x1="783" x2="776" y1="382" y2="379" stroke-dasharray="none" />
      <line clip-path="url(#clipPath51)" fill="none" x1="783" x2="370" y1="500" y2="500" />
      <text x="225" y="497" clip-path="url(#clipPath75)" fill="black" stroke="none" xml:space="preserve">ieMessage(You are logged out ! Good Bye ...)</text>
      <line clip-path="url(#clipPath76)" fill="none" x1="776" x2="783" y1="503" y2="500" stroke-dasharray="none" />
      <line clip-path="url(#clipPath76)" fill="none" x1="783" x2="776" y1="500" y2="497" stroke-dasharray="none" />
      <line clip-path="url(#clipPath51)" fill="none" x1="925" x2="370" y1="730" y2="730" />
      <text x="24" y="728" clip-path="url(#clipPath77)" fill="black" stroke="none" xml:space="preserve">ieSmsSend(+3524666445252,Your alert has been registered. We will handle it and keep you informed)</text>
      <line clip-path="url(#clipPath78)" fill="none" x1="918" x2="925" y1="733" y2="730" stroke-dasharray="none" />
      <line clip-path="url(#clipPath78)" fill="none" x1="925" x2="918" y1="730" y2="727" stroke-dasharray="none" />
      <line clip-path="url(#clipPath51)" fill="none" x1="783" x2="370" y1="916" y2="916" />
      <text x="90" y="914" clip-path="url(#clipPath79)" fill="black" stroke="none" xml:space="preserve">ieMessage(There are alerts pending since more than the defined delay. Please REACT !)</text>
      <line clip-path="url(#clipPath80)" fill="none" x1="776" x2="783" y1="919" y2="916" stroke-dasharray="none" />
      <line clip-path="url(#clipPath80)" fill="none" x1="783" x2="776" y1="916" y2="913" stroke-dasharray="none" />
      <line clip-path="url(#clipPath51)" fill="none" x1="1066" x2="370" y1="985" y2="985" />
      <text x="86" y="982" clip-path="url(#clipPath81)" fill="black" stroke="none" xml:space="preserve">ieMessage(There are alerts pending since more than the defined delay. Please REACT !)</text>
      <line clip-path="url(#clipPath82)" fill="none" x1="1059" x2="1066" y1="988" y2="985" stroke-dasharray="none" />
      <line clip-path="url(#clipPath82)" fill="none" x1="1066" x2="1059" y1="985" y2="982" stroke-dasharray="none" />
    </g>
  </g>
</svg>

