<?xml version="1.0" encoding="UTF-8"?>
<svg xmlns="http://www.w3.org/2000/svg" xmlns:xlink="http://www.w3.org/1999/xlink" stroke-dasharray="none" shape-rendering="auto" font-family="'Dialog'" width="1014" text-rendering="auto" fill-opacity="1" contentScriptType="text/ecmascript" color-interpolation="auto" color-rendering="auto" preserveAspectRatio="xMidYMid meet" font-size="12" viewBox="0 0 1014 1085" fill="black" stroke="black" image-rendering="auto" stroke-miterlimit="10" zoomAndPan="magnify" version="1.0" stroke-linecap="square" stroke-linejoin="miter" contentStyleType="text/css" font-style="normal" height="1085" stroke-width="1" stroke-dashoffset="0" font-weight="normal" stroke-opacity="1">
  <!--Generated by the Batik Graphics2D SVG Generator-->
  <defs id="genericDefs" />
  <g>
    <defs id="defs1">
      <clipPath clipPathUnits="userSpaceOnUse" id="clipPath1">
        <path d="M117 9 L189 9 L189 41 L117 41 L117 9 Z" />
      </clipPath>
      <clipPath clipPathUnits="userSpaceOnUse" id="clipPath2">
        <path d="M117 9 L194 9 L194 41 L117 41 L117 9 Z" />
      </clipPath>
      <clipPath clipPathUnits="userSpaceOnUse" id="clipPath3">
        <path d="M147 39 L159 39 L159 1076 L147 1076 L147 39 Z" />
      </clipPath>
      <clipPath clipPathUnits="userSpaceOnUse" id="clipPath4">
        <path d="M276 9 L394 9 L394 61 L276 61 L276 9 Z" />
      </clipPath>
      <clipPath clipPathUnits="userSpaceOnUse" id="clipPath5">
        <path d="M276 9 L399 9 L399 61 L276 61 L276 9 Z" />
      </clipPath>
      <clipPath clipPathUnits="userSpaceOnUse" id="clipPath6">
        <path d="M276 9 L397 9 L397 61 L276 61 L276 9 Z" />
      </clipPath>
      <clipPath clipPathUnits="userSpaceOnUse" id="clipPath7">
        <path d="M276 9 L398 9 L398 61 L276 61 L276 9 Z" />
      </clipPath>
      <clipPath clipPathUnits="userSpaceOnUse" id="clipPath8">
        <path d="M329 59 L341 59 L341 1076 L329 1076 L329 59 Z" />
      </clipPath>
      <clipPath clipPathUnits="userSpaceOnUse" id="clipPath9">
        <path d="M324 89 L346 89 L346 131 L324 131 L324 89 Z" />
      </clipPath>
      <clipPath clipPathUnits="userSpaceOnUse" id="clipPath10">
        <path d="M345 89 L407 89 L407 113 L345 113 L345 89 Z" />
      </clipPath>
      <clipPath clipPathUnits="userSpaceOnUse" id="clipPath11">
        <path d="M402 9 L503 9 L503 61 L402 61 L402 9 Z" />
      </clipPath>
      <clipPath clipPathUnits="userSpaceOnUse" id="clipPath12">
        <path d="M402 9 L508 9 L508 61 L402 61 L402 9 Z" />
      </clipPath>
      <clipPath clipPathUnits="userSpaceOnUse" id="clipPath13">
        <path d="M402 9 L506 9 L506 61 L402 61 L402 9 Z" />
      </clipPath>
      <clipPath clipPathUnits="userSpaceOnUse" id="clipPath14">
        <path d="M402 9 L507 9 L507 61 L402 61 L402 9 Z" />
      </clipPath>
      <clipPath clipPathUnits="userSpaceOnUse" id="clipPath15">
        <path d="M446 59 L458 59 L458 1076 L446 1076 L446 59 Z" />
      </clipPath>
      <clipPath clipPathUnits="userSpaceOnUse" id="clipPath16">
        <path d="M441 149 L463 149 L463 191 L441 191 L441 149 Z" />
      </clipPath>
      <clipPath clipPathUnits="userSpaceOnUse" id="clipPath17">
        <path d="M462 149 L524 149 L524 173 L462 173 L462 149 Z" />
      </clipPath>
      <clipPath clipPathUnits="userSpaceOnUse" id="clipPath18">
        <path d="M441 569 L463 569 L463 611 L441 611 L441 569 Z" />
      </clipPath>
      <clipPath clipPathUnits="userSpaceOnUse" id="clipPath19">
        <path d="M462 569 L524 569 L524 593 L462 593 L462 569 Z" />
      </clipPath>
      <clipPath clipPathUnits="userSpaceOnUse" id="clipPath20">
        <path d="M441 789 L463 789 L463 831 L441 831 L441 789 Z" />
      </clipPath>
      <clipPath clipPathUnits="userSpaceOnUse" id="clipPath21">
        <path d="M462 789 L524 789 L524 813 L462 813 L462 789 Z" />
      </clipPath>
      <clipPath clipPathUnits="userSpaceOnUse" id="clipPath22">
        <path d="M441 849 L463 849 L463 891 L441 891 L441 849 Z" />
      </clipPath>
      <clipPath clipPathUnits="userSpaceOnUse" id="clipPath23">
        <path d="M462 849 L524 849 L524 873 L462 873 L462 849 Z" />
      </clipPath>
      <clipPath clipPathUnits="userSpaceOnUse" id="clipPath24">
        <path d="M511 9 L642 9 L642 61 L511 61 L511 9 Z" />
      </clipPath>
      <clipPath clipPathUnits="userSpaceOnUse" id="clipPath25">
        <path d="M511 9 L645 9 L645 61 L511 61 L511 9 Z" />
      </clipPath>
      <clipPath clipPathUnits="userSpaceOnUse" id="clipPath26">
        <path d="M511 9 L646 9 L646 61 L511 61 L511 9 Z" />
      </clipPath>
      <clipPath clipPathUnits="userSpaceOnUse" id="clipPath27">
        <path d="M570 59 L582 59 L582 1076 L570 1076 L570 59 Z" />
      </clipPath>
      <clipPath clipPathUnits="userSpaceOnUse" id="clipPath28">
        <path d="M565 209 L587 209 L587 251 L565 251 L565 209 Z" />
      </clipPath>
      <clipPath clipPathUnits="userSpaceOnUse" id="clipPath29">
        <path d="M586 209 L648 209 L648 233 L586 233 L586 209 Z" />
      </clipPath>
      <clipPath clipPathUnits="userSpaceOnUse" id="clipPath30">
        <path d="M565 329 L587 329 L587 371 L565 371 L565 329 Z" />
      </clipPath>
      <clipPath clipPathUnits="userSpaceOnUse" id="clipPath31">
        <path d="M586 329 L648 329 L648 353 L586 353 L586 329 Z" />
      </clipPath>
      <clipPath clipPathUnits="userSpaceOnUse" id="clipPath32">
        <path d="M565 449 L587 449 L587 491 L565 491 L565 449 Z" />
      </clipPath>
      <clipPath clipPathUnits="userSpaceOnUse" id="clipPath33">
        <path d="M586 449 L648 449 L648 473 L586 473 L586 449 Z" />
      </clipPath>
      <clipPath clipPathUnits="userSpaceOnUse" id="clipPath34">
        <path d="M565 258 L587 258 L587 300 L565 300 L565 258 Z" />
      </clipPath>
      <clipPath clipPathUnits="userSpaceOnUse" id="clipPath35">
        <path d="M586 258 L635 258 L635 282 L586 282 L586 258 Z" />
      </clipPath>
      <clipPath clipPathUnits="userSpaceOnUse" id="clipPath36">
        <path d="M565 381 L587 381 L587 423 L565 423 L565 381 Z" />
      </clipPath>
      <clipPath clipPathUnits="userSpaceOnUse" id="clipPath37">
        <path d="M586 381 L635 381 L635 405 L586 405 L586 381 Z" />
      </clipPath>
      <clipPath clipPathUnits="userSpaceOnUse" id="clipPath38">
        <path d="M565 499 L587 499 L587 541 L565 541 L565 499 Z" />
      </clipPath>
      <clipPath clipPathUnits="userSpaceOnUse" id="clipPath39">
        <path d="M586 499 L635 499 L635 523 L586 523 L586 499 Z" />
      </clipPath>
      <clipPath clipPathUnits="userSpaceOnUse" id="clipPath40">
        <path d="M565 915 L587 915 L587 957 L565 957 L565 915 Z" />
      </clipPath>
      <clipPath clipPathUnits="userSpaceOnUse" id="clipPath41">
        <path d="M586 915 L635 915 L635 939 L586 939 L586 915 Z" />
      </clipPath>
      <clipPath clipPathUnits="userSpaceOnUse" id="clipPath42">
        <path d="M650 9 L786 9 L786 61 L650 61 L650 9 Z" />
      </clipPath>
      <clipPath clipPathUnits="userSpaceOnUse" id="clipPath43">
        <path d="M650 9 L791 9 L791 61 L650 61 L650 9 Z" />
      </clipPath>
      <clipPath clipPathUnits="userSpaceOnUse" id="clipPath44">
        <path d="M650 9 L789 9 L789 61 L650 61 L650 9 Z" />
      </clipPath>
      <clipPath clipPathUnits="userSpaceOnUse" id="clipPath45">
        <path d="M712 59 L724 59 L724 1076 L712 1076 L712 59 Z" />
      </clipPath>
      <clipPath clipPathUnits="userSpaceOnUse" id="clipPath46">
        <path d="M707 664 L729 664 L729 706 L707 706 L707 664 Z" />
      </clipPath>
      <clipPath clipPathUnits="userSpaceOnUse" id="clipPath47">
        <path d="M728 664 L790 664 L790 688 L728 688 L728 664 Z" />
      </clipPath>
      <clipPath clipPathUnits="userSpaceOnUse" id="clipPath48">
        <path d="M707 729 L729 729 L729 771 L707 771 L707 729 Z" />
      </clipPath>
      <clipPath clipPathUnits="userSpaceOnUse" id="clipPath49">
        <path d="M728 729 L777 729 L777 753 L728 753 L728 729 Z" />
      </clipPath>
      <clipPath clipPathUnits="userSpaceOnUse" id="clipPath50">
        <path d="M794 9 L924 9 L924 61 L794 61 L794 9 Z" />
      </clipPath>
      <clipPath clipPathUnits="userSpaceOnUse" id="clipPath51">
        <path d="M794 9 L928 9 L928 61 L794 61 L794 9 Z" />
      </clipPath>
      <clipPath clipPathUnits="userSpaceOnUse" id="clipPath52">
        <path d="M794 9 L927 9 L927 61 L794 61 L794 9 Z" />
      </clipPath>
      <clipPath clipPathUnits="userSpaceOnUse" id="clipPath53">
        <path d="M853 59 L865 59 L865 1076 L853 1076 L853 59 Z" />
      </clipPath>
      <clipPath clipPathUnits="userSpaceOnUse" id="clipPath54">
        <path d="M848 984 L870 984 L870 1026 L848 1026 L848 984 Z" />
      </clipPath>
      <clipPath clipPathUnits="userSpaceOnUse" id="clipPath55">
        <path d="M869 984 L918 984 L918 1008 L869 1008 L869 984 Z" />
      </clipPath>
      <clipPath clipPathUnits="userSpaceOnUse" id="clipPath56">
        <path d="M-1 -1 L1015 -1 L1015 1086 L-1 1086 L-1 -1 Z" />
      </clipPath>
      <clipPath clipPathUnits="userSpaceOnUse" id="clipPath57">
        <path d="M114 64 L464 64 L464 88 L114 88 L114 64 Z" />
      </clipPath>
      <clipPath clipPathUnits="userSpaceOnUse" id="clipPath58">
        <path d="M151 85 L163 85 L163 96 L151 96 L151 85 Z" />
      </clipPath>
      <clipPath clipPathUnits="userSpaceOnUse" id="clipPath59">
        <path d="M113 125 L463 125 L463 149 L113 149 L113 125 Z" />
      </clipPath>
      <clipPath clipPathUnits="userSpaceOnUse" id="clipPath60">
        <path d="M151 145 L163 145 L163 156 L151 156 L151 145 Z" />
      </clipPath>
      <clipPath clipPathUnits="userSpaceOnUse" id="clipPath61">
        <path d="M109 182 L454 182 L454 206 L109 206 L109 182 Z" />
      </clipPath>
      <clipPath clipPathUnits="userSpaceOnUse" id="clipPath62">
        <path d="M151 205 L163 205 L163 216 L151 216 L151 205 Z" />
      </clipPath>
      <clipPath clipPathUnits="userSpaceOnUse" id="clipPath63">
        <path d="M87 301 L628 301 L628 325 L87 325 L87 301 Z" />
      </clipPath>
      <clipPath clipPathUnits="userSpaceOnUse" id="clipPath64">
        <path d="M151 325 L163 325 L163 336 L151 336 L151 325 Z" />
      </clipPath>
      <clipPath clipPathUnits="userSpaceOnUse" id="clipPath65">
        <path d="M144 422 L251 422 L251 446 L144 446 L144 422 Z" />
      </clipPath>
      <clipPath clipPathUnits="userSpaceOnUse" id="clipPath66">
        <path d="M151 445 L163 445 L163 456 L151 456 L151 445 Z" />
      </clipPath>
      <clipPath clipPathUnits="userSpaceOnUse" id="clipPath67">
        <path d="M114 544 L464 544 L464 568 L114 568 L114 544 Z" />
      </clipPath>
      <clipPath clipPathUnits="userSpaceOnUse" id="clipPath68">
        <path d="M151 565 L163 565 L163 576 L151 576 L151 565 Z" />
      </clipPath>
      <clipPath clipPathUnits="userSpaceOnUse" id="clipPath69">
        <path d="M142 604 L646 604 L646 683 L142 683 L142 604 Z" />
      </clipPath>
      <clipPath clipPathUnits="userSpaceOnUse" id="clipPath70">
        <path d="M142 604 L647 604 L647 683 L142 683 L142 604 Z" />
      </clipPath>
      <clipPath clipPathUnits="userSpaceOnUse" id="clipPath71">
        <path d="M151 660 L163 660 L163 671 L151 671 L151 660 Z" />
      </clipPath>
      <clipPath clipPathUnits="userSpaceOnUse" id="clipPath72">
        <path d="M111 759 L461 759 L461 783 L111 783 L111 759 Z" />
      </clipPath>
      <clipPath clipPathUnits="userSpaceOnUse" id="clipPath73">
        <path d="M151 785 L163 785 L163 796 L151 796 L151 785 Z" />
      </clipPath>
      <clipPath clipPathUnits="userSpaceOnUse" id="clipPath74">
        <path d="M120 821 L391 821 L391 845 L120 845 L120 821 Z" />
      </clipPath>
      <clipPath clipPathUnits="userSpaceOnUse" id="clipPath75">
        <path d="M151 845 L163 845 L163 856 L151 856 L151 845 Z" />
      </clipPath>
      <clipPath clipPathUnits="userSpaceOnUse" id="clipPath76">
        <path d="M107 232 L492 232 L492 256 L107 256 L107 232 Z" />
      </clipPath>
      <clipPath clipPathUnits="userSpaceOnUse" id="clipPath77">
        <path d="M557 254 L569 254 L569 265 L557 265 L557 254 Z" />
      </clipPath>
      <clipPath clipPathUnits="userSpaceOnUse" id="clipPath78">
        <path d="M121 356 L411 356 L411 380 L121 380 L121 356 Z" />
      </clipPath>
      <clipPath clipPathUnits="userSpaceOnUse" id="clipPath79">
        <path d="M557 377 L569 377 L569 388 L557 388 L557 377 Z" />
      </clipPath>
      <clipPath clipPathUnits="userSpaceOnUse" id="clipPath80">
        <path d="M100 474 L526 474 L526 498 L100 498 L100 474 Z" />
      </clipPath>
      <clipPath clipPathUnits="userSpaceOnUse" id="clipPath81">
        <path d="M557 495 L569 495 L569 506 L557 506 L557 495 Z" />
      </clipPath>
      <clipPath clipPathUnits="userSpaceOnUse" id="clipPath82">
        <path d="M23 705 L995 705 L995 729 L23 729 L23 705 Z" />
      </clipPath>
      <clipPath clipPathUnits="userSpaceOnUse" id="clipPath83">
        <path d="M699 725 L711 725 L711 736 L699 736 L699 725 Z" />
      </clipPath>
      <clipPath clipPathUnits="userSpaceOnUse" id="clipPath84">
        <path d="M52 891 L877 891 L877 915 L52 915 L52 891 Z" />
      </clipPath>
      <clipPath clipPathUnits="userSpaceOnUse" id="clipPath85">
        <path d="M557 911 L569 911 L569 922 L557 922 L557 911 Z" />
      </clipPath>
      <clipPath clipPathUnits="userSpaceOnUse" id="clipPath86">
        <path d="M48 959 L873 959 L873 983 L48 983 L48 959 Z" />
      </clipPath>
      <clipPath clipPathUnits="userSpaceOnUse" id="clipPath87">
        <path d="M840 980 L852 980 L852 991 L840 991 L840 980 Z" />
      </clipPath>
    </defs>
    <g font-size="19" fill="rgb(238,201,142)" font-family="'Lucida Sans'" stroke-linejoin="round" stroke="rgb(238,201,142)" stroke-width="0" stroke-miterlimit="0">
      <rect x="118" y="10" clip-path="url(#clipPath1)" width="70" height="30" stroke="none" />
    </g>
    <g stroke-width="0.1" font-size="19" font-family="'Lucida Sans'" stroke-linecap="butt">
      <rect x="118" y="10" clip-path="url(#clipPath1)" fill="none" width="69" height="29" />
      <text xml:space="preserve" x="120" y="33" clip-path="url(#clipPath2)" stroke="none">System</text>
      <line clip-path="url(#clipPath3)" fill="none" x1="152" x2="152" y1="40" y2="1075" stroke-dasharray="10,10" stroke-width="1.1" />
    </g>
    <g stroke-linecap="butt" font-size="19" fill="rgb(255,245,181)" font-family="'Lucida Sans'" stroke-dasharray="10,10" stroke="rgb(255,245,181)" stroke-width="1.1">
      <rect x="277" y="10" clip-path="url(#clipPath4)" width="116" height="50" stroke="none" />
    </g>
    <g stroke-width="0.1" font-size="19" font-family="'Lucida Sans'" stroke-linecap="butt">
      <rect x="277" y="10" clip-path="url(#clipPath4)" fill="none" width="115" height="49" />
      <text xml:space="preserve" x="285" y="21" clip-path="url(#clipPath5)" stroke="none">theCreator</text>
      <text xml:space="preserve" x="329" y="43" clip-path="url(#clipPath6)" stroke="none">: </text>
      <text xml:space="preserve" x="279" y="65" clip-path="url(#clipPath7)" stroke="none">actMsrCre...</text>
      <line clip-path="url(#clipPath8)" fill="none" x1="334" x2="334" y1="60" y2="1075" stroke-dasharray="10,10" stroke-width="1.1" />
    </g>
    <g stroke-linecap="butt" font-size="19" fill="rgb(39,76,114)" font-family="'Lucida Sans'" stroke-dasharray="10,10" stroke="rgb(39,76,114)" stroke-width="1.1">
      <rect x="325" y="90" clip-path="url(#clipPath9)" width="20" height="40" stroke="none" />
      <rect x="325" y="90" clip-path="url(#clipPath9)" fill="none" width="19" stroke-dasharray="none" height="39" stroke-width="0.1" />
    </g>
    <g stroke-width="0.1" font-size="19" font-family="'Lucida Sans'" stroke-linecap="butt">
      <text xml:space="preserve" x="346" y="109" clip-path="url(#clipPath10)" stroke="none">out01</text>
      <rect x="403" y="10" clip-path="url(#clipPath11)" fill="rgb(255,245,181)" width="99" height="50" stroke="none" />
      <rect x="403" y="10" clip-path="url(#clipPath11)" fill="none" width="98" height="49" />
      <text xml:space="preserve" x="411" y="21" clip-path="url(#clipPath12)" stroke="none">theClock</text>
      <text xml:space="preserve" x="446" y="43" clip-path="url(#clipPath13)" stroke="none">: </text>
      <text xml:space="preserve" x="406" y="65" clip-path="url(#clipPath14)" stroke="none">actActiv...</text>
      <line clip-path="url(#clipPath15)" fill="none" x1="451" x2="451" y1="60" y2="1075" stroke-dasharray="10,10" stroke-width="1.1" />
    </g>
    <g stroke-linecap="butt" font-size="19" fill="rgb(39,76,114)" font-family="'Lucida Sans'" stroke-dasharray="10,10" stroke="rgb(39,76,114)" stroke-width="1.1">
      <rect x="442" y="150" clip-path="url(#clipPath16)" width="20" height="40" stroke="none" />
      <rect x="442" y="150" clip-path="url(#clipPath16)" fill="none" width="19" stroke-dasharray="none" height="39" stroke-width="0.1" />
    </g>
    <g stroke-width="0.1" font-size="19" font-family="'Lucida Sans'" stroke-linecap="butt">
      <text xml:space="preserve" x="463" y="169" clip-path="url(#clipPath17)" stroke="none">out02</text>
      <rect x="442" y="570" clip-path="url(#clipPath18)" fill="rgb(39,76,114)" width="20" height="40" stroke="none" />
      <rect x="442" y="570" clip-path="url(#clipPath18)" fill="none" width="19" height="39" stroke="rgb(39,76,114)" />
      <text xml:space="preserve" x="463" y="589" clip-path="url(#clipPath19)" stroke="none">out06</text>
      <rect x="442" y="790" clip-path="url(#clipPath20)" fill="rgb(39,76,114)" width="20" height="40" stroke="none" />
      <rect x="442" y="790" clip-path="url(#clipPath20)" fill="none" width="19" height="39" stroke="rgb(39,76,114)" />
      <text xml:space="preserve" x="463" y="809" clip-path="url(#clipPath21)" stroke="none">out08</text>
      <rect x="442" y="850" clip-path="url(#clipPath22)" fill="rgb(39,76,114)" width="20" height="40" stroke="none" />
      <rect x="442" y="850" clip-path="url(#clipPath22)" fill="none" width="19" height="39" stroke="rgb(39,76,114)" />
      <text xml:space="preserve" x="463" y="869" clip-path="url(#clipPath23)" stroke="none">out09</text>
      <rect x="512" y="10" clip-path="url(#clipPath24)" fill="rgb(255,245,181)" width="129" height="50" stroke="none" />
      <rect x="512" y="10" clip-path="url(#clipPath24)" fill="none" width="128" height="49" />
      <text xml:space="preserve" x="561" y="21" clip-path="url(#clipPath25)" stroke="none">bill</text>
      <text xml:space="preserve" x="570" y="43" clip-path="url(#clipPath25)" stroke="none">: </text>
      <text xml:space="preserve" x="515" y="65" clip-path="url(#clipPath26)" stroke="none">actAdminis...</text>
      <line clip-path="url(#clipPath27)" fill="none" x1="575" x2="575" y1="60" y2="1075" stroke-dasharray="10,10" stroke-width="1.1" />
    </g>
    <g stroke-linecap="butt" font-size="19" fill="rgb(39,76,114)" font-family="'Lucida Sans'" stroke-dasharray="10,10" stroke="rgb(39,76,114)" stroke-width="1.1">
      <rect x="566" y="210" clip-path="url(#clipPath28)" width="20" height="40" stroke="none" />
      <rect x="566" y="210" clip-path="url(#clipPath28)" fill="none" width="19" stroke-dasharray="none" height="39" stroke-width="0.1" />
    </g>
    <g stroke-width="0.1" font-size="19" font-family="'Lucida Sans'" stroke-linecap="butt">
      <text xml:space="preserve" x="587" y="229" clip-path="url(#clipPath29)" stroke="none">out03</text>
      <rect x="566" y="330" clip-path="url(#clipPath30)" fill="rgb(39,76,114)" width="20" height="40" stroke="none" />
      <rect x="566" y="330" clip-path="url(#clipPath30)" fill="none" width="19" height="39" stroke="rgb(39,76,114)" />
      <text xml:space="preserve" x="587" y="349" clip-path="url(#clipPath31)" stroke="none">out04</text>
      <rect x="566" y="450" clip-path="url(#clipPath32)" fill="rgb(39,76,114)" width="20" height="40" stroke="none" />
      <rect x="566" y="450" clip-path="url(#clipPath32)" fill="none" width="19" height="39" stroke="rgb(39,76,114)" />
      <text xml:space="preserve" x="587" y="469" clip-path="url(#clipPath33)" stroke="none">out05</text>
      <rect x="566" y="259" clip-path="url(#clipPath34)" fill="rgb(194,239,255)" width="20" height="40" stroke="none" />
      <rect x="566" y="259" clip-path="url(#clipPath34)" fill="none" width="19" height="39" stroke="rgb(194,239,255)" />
      <text xml:space="preserve" x="587" y="278" clip-path="url(#clipPath35)" stroke="none">in01</text>
      <rect x="566" y="382" clip-path="url(#clipPath36)" fill="rgb(194,239,255)" width="20" height="40" stroke="none" />
      <rect x="566" y="382" clip-path="url(#clipPath36)" fill="none" width="19" height="39" stroke="rgb(194,239,255)" />
      <text xml:space="preserve" x="587" y="401" clip-path="url(#clipPath37)" stroke="none">in02</text>
      <rect x="566" y="500" clip-path="url(#clipPath38)" fill="rgb(194,239,255)" width="20" height="40" stroke="none" />
      <rect x="566" y="500" clip-path="url(#clipPath38)" fill="none" width="19" height="39" stroke="rgb(194,239,255)" />
      <text xml:space="preserve" x="587" y="519" clip-path="url(#clipPath39)" stroke="none">in03</text>
      <rect x="566" y="916" clip-path="url(#clipPath40)" fill="rgb(194,239,255)" width="20" height="40" stroke="none" />
      <rect x="566" y="916" clip-path="url(#clipPath40)" fill="none" width="19" height="39" stroke="rgb(194,239,255)" />
      <text xml:space="preserve" x="587" y="935" clip-path="url(#clipPath41)" stroke="none">in05</text>
      <rect x="651" y="10" clip-path="url(#clipPath42)" fill="rgb(255,245,181)" width="134" height="50" stroke="none" />
      <rect x="651" y="10" clip-path="url(#clipPath42)" fill="none" width="133" height="49" />
      <text xml:space="preserve" x="691" y="21" clip-path="url(#clipPath43)" stroke="none">tango</text>
      <text xml:space="preserve" x="712" y="43" clip-path="url(#clipPath44)" stroke="none">: </text>
      <text xml:space="preserve" x="652" y="65" clip-path="url(#clipPath43)" stroke="none">actComCom...</text>
      <line clip-path="url(#clipPath45)" fill="none" x1="717" x2="717" y1="60" y2="1075" stroke-dasharray="10,10" stroke-width="1.1" />
    </g>
    <g stroke-linecap="butt" font-size="19" fill="rgb(39,76,114)" font-family="'Lucida Sans'" stroke-dasharray="10,10" stroke="rgb(39,76,114)" stroke-width="1.1">
      <rect x="708" y="665" clip-path="url(#clipPath46)" width="20" height="40" stroke="none" />
      <rect x="708" y="665" clip-path="url(#clipPath46)" fill="none" width="19" stroke-dasharray="none" height="39" stroke-width="0.1" />
    </g>
    <g stroke-width="0.1" font-size="19" font-family="'Lucida Sans'" stroke-linecap="butt">
      <text xml:space="preserve" x="729" y="684" clip-path="url(#clipPath47)" stroke="none">out07</text>
      <rect x="708" y="730" clip-path="url(#clipPath48)" fill="rgb(194,239,255)" width="20" height="40" stroke="none" />
      <rect x="708" y="730" clip-path="url(#clipPath48)" fill="none" width="19" height="39" stroke="rgb(194,239,255)" />
      <text xml:space="preserve" x="729" y="749" clip-path="url(#clipPath49)" stroke="none">in04</text>
      <rect x="795" y="10" clip-path="url(#clipPath50)" fill="rgb(255,245,181)" width="128" height="50" stroke="none" />
      <rect x="795" y="10" clip-path="url(#clipPath50)" fill="none" width="127" height="49" />
      <text xml:space="preserve" x="834" y="21" clip-path="url(#clipPath51)" stroke="none">steve</text>
      <text xml:space="preserve" x="852" y="43" clip-path="url(#clipPath52)" stroke="none">: </text>
      <text xml:space="preserve" x="798" y="65" clip-path="url(#clipPath51)" stroke="none">actCoordin...</text>
      <line clip-path="url(#clipPath53)" fill="none" x1="858" x2="858" y1="60" y2="1075" stroke-dasharray="10,10" stroke-width="1.1" />
    </g>
    <g stroke-linecap="butt" font-size="19" fill="rgb(194,239,255)" font-family="'Lucida Sans'" stroke-dasharray="10,10" stroke="rgb(194,239,255)" stroke-width="1.1">
      <rect x="849" y="985" clip-path="url(#clipPath54)" width="20" height="40" stroke="none" />
      <rect x="849" y="985" clip-path="url(#clipPath54)" fill="none" width="19" stroke-dasharray="none" height="39" stroke-width="0.1" />
    </g>
    <g stroke-width="0.1" font-size="19" font-family="'Lucida Sans'" stroke-linecap="butt">
      <text xml:space="preserve" x="870" y="1004" clip-path="url(#clipPath55)" stroke="none">in06</text>
      <line clip-path="url(#clipPath56)" fill="none" x1="325" x2="153" y1="90" y2="90" stroke="rgb(136,136,136)" stroke-width="2.1" />
      <text x="115" y="84" clip-path="url(#clipPath57)" stroke="none" stroke-width="2.1" xml:space="preserve">oeCreateSystemAndEnvironment("4")</text>
      <line clip-path="url(#clipPath58)" fill="none" x1="160" x2="153" y1="87" y2="90" stroke="rgb(136,136,136)" stroke-width="2.1" />
      <line clip-path="url(#clipPath58)" fill="none" x1="153" x2="160" y1="90" y2="93" stroke="rgb(136,136,136)" stroke-width="2.1" />
      <line clip-path="url(#clipPath56)" fill="none" x1="442" x2="153" y1="150" y2="150" stroke="rgb(136,136,136)" stroke-width="2.1" />
      <text x="114" y="145" clip-path="url(#clipPath59)" stroke="none" stroke-width="2.1" xml:space="preserve">oeSetClock("2017:11:24 - 03:20:00")</text>
      <line clip-path="url(#clipPath60)" fill="none" x1="160" x2="153" y1="147" y2="150" stroke="rgb(136,136,136)" stroke-width="2.1" />
      <line clip-path="url(#clipPath60)" fill="none" x1="153" x2="160" y1="150" y2="153" stroke="rgb(136,136,136)" stroke-width="2.1" />
      <line clip-path="url(#clipPath56)" fill="none" x1="566" x2="153" y1="210" y2="210" stroke="rgb(136,136,136)" stroke-width="2.1" />
      <text x="110" y="202" clip-path="url(#clipPath61)" stroke="none" stroke-width="2.1" xml:space="preserve">oeLogin("icrashadmin","7WXC1359")</text>
      <line clip-path="url(#clipPath62)" fill="none" x1="160" x2="153" y1="207" y2="210" stroke="rgb(136,136,136)" stroke-width="2.1" />
      <line clip-path="url(#clipPath62)" fill="none" x1="153" x2="160" y1="210" y2="213" stroke="rgb(136,136,136)" stroke-width="2.1" />
      <line clip-path="url(#clipPath56)" fill="none" x1="566" x2="153" y1="330" y2="330" stroke="rgb(136,136,136)" stroke-width="2.1" />
      <text x="88" y="321" clip-path="url(#clipPath63)" stroke="none" stroke-width="2.1" xml:space="preserve">oeAddCoordinator("1","steve","pwdMessirExcalibur2017")</text>
      <line clip-path="url(#clipPath64)" fill="none" x1="160" x2="153" y1="327" y2="330" stroke="rgb(136,136,136)" stroke-width="2.1" />
      <line clip-path="url(#clipPath64)" fill="none" x1="153" x2="160" y1="330" y2="333" stroke="rgb(136,136,136)" stroke-width="2.1" />
      <line clip-path="url(#clipPath56)" fill="none" x1="566" x2="153" y1="450" y2="450" stroke="rgb(136,136,136)" stroke-width="2.1" />
      <text x="145" y="442" clip-path="url(#clipPath65)" stroke="none" stroke-width="2.1" xml:space="preserve">oeLogout()</text>
      <line clip-path="url(#clipPath66)" fill="none" x1="160" x2="153" y1="447" y2="450" stroke="rgb(136,136,136)" stroke-width="2.1" />
      <line clip-path="url(#clipPath66)" fill="none" x1="153" x2="160" y1="450" y2="453" stroke="rgb(136,136,136)" stroke-width="2.1" />
      <line clip-path="url(#clipPath56)" fill="none" x1="442" x2="153" y1="570" y2="570" stroke="rgb(136,136,136)" stroke-width="2.1" />
      <text x="115" y="564" clip-path="url(#clipPath67)" stroke="none" stroke-width="2.1" xml:space="preserve">oeSetClock("2017:11:26 - 10:15:00")</text>
      <line clip-path="url(#clipPath68)" fill="none" x1="160" x2="153" y1="567" y2="570" stroke="rgb(136,136,136)" stroke-width="2.1" />
      <line clip-path="url(#clipPath68)" fill="none" x1="153" x2="160" y1="570" y2="573" stroke="rgb(136,136,136)" stroke-width="2.1" />
      <line clip-path="url(#clipPath56)" fill="none" x1="708" x2="153" y1="665" y2="665" stroke="rgb(136,136,136)" stroke-width="2.1" />
      <text x="190" y="629" clip-path="url(#clipPath69)" stroke="none" stroke-width="2.1" xml:space="preserve">oeAlert("witness","2017:11:26","10:10:16","</text>
      <text x="156" y="651" clip-path="url(#clipPath70)" stroke="none" stroke-width="2.1" xml:space="preserve">+3524666445252","49.627675:6.159590","3 cars </text>
      <text x="274" y="673" clip-path="url(#clipPath69)" stroke="none" stroke-width="2.1" xml:space="preserve">involved in an accident.")</text>
      <line clip-path="url(#clipPath71)" fill="none" x1="160" x2="153" y1="662" y2="665" stroke="rgb(136,136,136)" stroke-width="2.1" />
      <line clip-path="url(#clipPath71)" fill="none" x1="153" x2="160" y1="665" y2="668" stroke="rgb(136,136,136)" stroke-width="2.1" />
      <line clip-path="url(#clipPath56)" fill="none" x1="442" x2="153" y1="790" y2="790" stroke="rgb(136,136,136)" stroke-width="2.1" />
      <text x="112" y="779" clip-path="url(#clipPath72)" stroke="none" stroke-width="2.1" xml:space="preserve">oeSetClock("2017:11:26 - 10:30:00")</text>
      <line clip-path="url(#clipPath73)" fill="none" x1="160" x2="153" y1="787" y2="790" stroke="rgb(136,136,136)" stroke-width="2.1" />
      <line clip-path="url(#clipPath73)" fill="none" x1="153" x2="160" y1="790" y2="793" stroke="rgb(136,136,136)" stroke-width="2.1" />
      <line clip-path="url(#clipPath56)" fill="none" x1="442" x2="153" y1="850" y2="850" stroke="rgb(136,136,136)" stroke-width="2.1" />
      <text x="121" y="841" clip-path="url(#clipPath74)" stroke="none" stroke-width="2.1" xml:space="preserve">oeSollicitateCrisisHandling()</text>
      <line clip-path="url(#clipPath75)" fill="none" x1="160" x2="153" y1="847" y2="850" stroke="rgb(136,136,136)" stroke-width="2.1" />
      <line clip-path="url(#clipPath75)" fill="none" x1="153" x2="160" y1="850" y2="853" stroke="rgb(136,136,136)" stroke-width="2.1" />
    </g>
    <g stroke-linecap="butt" font-size="19" fill="rgb(136,136,136)" font-family="'Lucida Sans'" stroke-dasharray="5,5" stroke="rgb(136,136,136)" stroke-width="2.1">
      <line clip-path="url(#clipPath56)" fill="none" x1="566" x2="153" y1="259" y2="259" />
      <text x="108" y="252" clip-path="url(#clipPath76)" fill="black" stroke="none" xml:space="preserve">ieMessage(You are logged ! Welcome ...)</text>
      <line clip-path="url(#clipPath77)" fill="none" x1="559" x2="566" y1="262" y2="259" stroke-dasharray="none" />
      <line clip-path="url(#clipPath77)" fill="none" x1="566" x2="559" y1="259" y2="256" stroke-dasharray="none" />
      <line clip-path="url(#clipPath56)" fill="none" x1="566" x2="153" y1="382" y2="382" />
      <text x="122" y="376" clip-path="url(#clipPath78)" fill="black" stroke="none" xml:space="preserve">ieCoordinatorAddedreturned()</text>
      <line clip-path="url(#clipPath79)" fill="none" x1="559" x2="566" y1="385" y2="382" stroke-dasharray="none" />
      <line clip-path="url(#clipPath79)" fill="none" x1="566" x2="559" y1="382" y2="379" stroke-dasharray="none" />
      <line clip-path="url(#clipPath56)" fill="none" x1="566" x2="153" y1="500" y2="500" />
      <text x="101" y="494" clip-path="url(#clipPath80)" fill="black" stroke="none" xml:space="preserve">ieMessage(You are logged out ! Good Bye ...)</text>
      <line clip-path="url(#clipPath81)" fill="none" x1="559" x2="566" y1="503" y2="500" stroke-dasharray="none" />
      <line clip-path="url(#clipPath81)" fill="none" x1="566" x2="559" y1="500" y2="497" stroke-dasharray="none" />
      <line clip-path="url(#clipPath56)" fill="none" x1="708" x2="153" y1="730" y2="730" />
      <text x="24" y="725" clip-path="url(#clipPath82)" fill="black" stroke="none" xml:space="preserve">ieSmsSend(+3524666445252,Your alert has been registered. We will handle it and keep you informed)</text>
      <line clip-path="url(#clipPath83)" fill="none" x1="701" x2="708" y1="733" y2="730" stroke-dasharray="none" />
      <line clip-path="url(#clipPath83)" fill="none" x1="708" x2="701" y1="730" y2="727" stroke-dasharray="none" />
      <line clip-path="url(#clipPath56)" fill="none" x1="566" x2="153" y1="916" y2="916" />
      <text x="53" y="911" clip-path="url(#clipPath84)" fill="black" stroke="none" xml:space="preserve">ieMessage(There are alerts pending since more than the defined delay. Please REACT !)</text>
      <line clip-path="url(#clipPath85)" fill="none" x1="559" x2="566" y1="919" y2="916" stroke-dasharray="none" />
      <line clip-path="url(#clipPath85)" fill="none" x1="566" x2="559" y1="916" y2="913" stroke-dasharray="none" />
      <line clip-path="url(#clipPath56)" fill="none" x1="849" x2="153" y1="985" y2="985" />
      <text x="49" y="979" clip-path="url(#clipPath86)" fill="black" stroke="none" xml:space="preserve">ieMessage(There are alerts pending since more than the defined delay. Please REACT !)</text>
      <line clip-path="url(#clipPath87)" fill="none" x1="842" x2="849" y1="988" y2="985" stroke-dasharray="none" />
      <line clip-path="url(#clipPath87)" fill="none" x1="849" x2="842" y1="985" y2="982" stroke-dasharray="none" />
    </g>
  </g>
</svg>

