<?xml version="1.0" encoding="UTF-8"?>
<svg xmlns="http://www.w3.org/2000/svg" xmlns:xlink="http://www.w3.org/1999/xlink" stroke-dasharray="none" shape-rendering="auto" font-family="'Dialog'" width="1539" text-rendering="auto" fill-opacity="1" contentScriptType="text/ecmascript" color-interpolation="auto" color-rendering="auto" preserveAspectRatio="xMidYMid meet" font-size="12" viewBox="0 0 1539 585" fill="black" stroke="black" image-rendering="auto" stroke-miterlimit="10" zoomAndPan="magnify" version="1.0" stroke-linecap="square" stroke-linejoin="miter" contentStyleType="text/css" font-style="normal" height="585" stroke-width="1" stroke-dashoffset="0" font-weight="normal" stroke-opacity="1">
  <!--Generated by the Batik Graphics2D SVG Generator-->
  <defs id="genericDefs" />
  <g>
    <defs id="defs1">
      <clipPath clipPathUnits="userSpaceOnUse" id="clipPath1">
        <path d="M9 9 L81 9 L81 41 L9 41 L9 9 Z" />
      </clipPath>
      <clipPath clipPathUnits="userSpaceOnUse" id="clipPath2">
        <path d="M39 39 L51 39 L51 576 L39 576 L39 39 Z" />
      </clipPath>
      <clipPath clipPathUnits="userSpaceOnUse" id="clipPath3">
        <path d="M468 9 L853 9 L853 116 L468 116 L468 9 Z" />
      </clipPath>
      <clipPath clipPathUnits="userSpaceOnUse" id="clipPath4">
        <path d="M468 9 L858 9 L858 116 L468 116 L468 9 Z" />
      </clipPath>
      <clipPath clipPathUnits="userSpaceOnUse" id="clipPath5">
        <path d="M468 9 L859 9 L859 116 L468 116 L468 9 Z" />
      </clipPath>
      <clipPath clipPathUnits="userSpaceOnUse" id="clipPath6">
        <path d="M654 114 L666 114 L666 576 L654 576 L654 114 Z" />
      </clipPath>
      <clipPath clipPathUnits="userSpaceOnUse" id="clipPath7">
        <path d="M649 124 L671 124 L671 166 L649 166 L649 124 Z" />
      </clipPath>
      <clipPath clipPathUnits="userSpaceOnUse" id="clipPath8">
        <path d="M670 124 L760 124 L760 160 L670 160 L670 124 Z" />
      </clipPath>
      <clipPath clipPathUnits="userSpaceOnUse" id="clipPath9">
        <path d="M649 450 L671 450 L671 466 L649 466 L649 450 Z" />
      </clipPath>
      <clipPath clipPathUnits="userSpaceOnUse" id="clipPath10">
        <path d="M619 465 L709 465 L709 501 L619 501 L619 465 Z" />
      </clipPath>
      <clipPath clipPathUnits="userSpaceOnUse" id="clipPath11">
        <path d="M649 216 L671 216 L671 226 L649 226 L649 216 Z" />
      </clipPath>
      <clipPath clipPathUnits="userSpaceOnUse" id="clipPath12">
        <path d="M629 225 L699 225 L699 261 L629 261 L629 225 Z" />
      </clipPath>
      <clipPath clipPathUnits="userSpaceOnUse" id="clipPath13">
        <path d="M649 505 L671 505 L671 526 L649 526 L649 505 Z" />
      </clipPath>
      <clipPath clipPathUnits="userSpaceOnUse" id="clipPath14">
        <path d="M670 490 L740 490 L740 526 L670 526 L670 490 Z" />
      </clipPath>
      <clipPath clipPathUnits="userSpaceOnUse" id="clipPath15">
        <path d="M861 9 L1268 9 L1268 105 L861 105 L861 9 Z" />
      </clipPath>
      <clipPath clipPathUnits="userSpaceOnUse" id="clipPath16">
        <path d="M861 9 L1275 9 L1275 105 L861 105 L861 9 Z" />
      </clipPath>
      <clipPath clipPathUnits="userSpaceOnUse" id="clipPath17">
        <path d="M861 9 L1276 9 L1276 105 L861 105 L861 9 Z" />
      </clipPath>
      <clipPath clipPathUnits="userSpaceOnUse" id="clipPath18">
        <path d="M1058 103 L1070 103 L1070 576 L1058 576 L1058 103 Z" />
      </clipPath>
      <clipPath clipPathUnits="userSpaceOnUse" id="clipPath19">
        <path d="M1053 377 L1075 377 L1075 406 L1053 406 L1053 377 Z" />
      </clipPath>
      <clipPath clipPathUnits="userSpaceOnUse" id="clipPath20">
        <path d="M1074 370 L1164 370 L1164 406 L1074 406 L1074 370 Z" />
      </clipPath>
      <clipPath clipPathUnits="userSpaceOnUse" id="clipPath21">
        <path d="M1053 325 L1075 325 L1075 346 L1053 346 L1053 325 Z" />
      </clipPath>
      <clipPath clipPathUnits="userSpaceOnUse" id="clipPath22">
        <path d="M1074 310 L1144 310 L1144 346 L1074 346 L1074 310 Z" />
      </clipPath>
      <clipPath clipPathUnits="userSpaceOnUse" id="clipPath23">
        <path d="M1307 9 L1530 9 L1530 81 L1307 81 L1307 9 Z" />
      </clipPath>
      <clipPath clipPathUnits="userSpaceOnUse" id="clipPath24">
        <path d="M1307 9 L1538 9 L1538 81 L1307 81 L1307 9 Z" />
      </clipPath>
      <clipPath clipPathUnits="userSpaceOnUse" id="clipPath25">
        <path d="M1307 9 L1536 9 L1536 81 L1307 81 L1307 9 Z" />
      </clipPath>
      <clipPath clipPathUnits="userSpaceOnUse" id="clipPath26">
        <path d="M1412 79 L1424 79 L1424 576 L1412 576 L1412 79 Z" />
      </clipPath>
      <clipPath clipPathUnits="userSpaceOnUse" id="clipPath27">
        <path d="M1407 274 L1429 274 L1429 286 L1407 286 L1407 274 Z" />
      </clipPath>
      <clipPath clipPathUnits="userSpaceOnUse" id="clipPath28">
        <path d="M1377 285 L1467 285 L1467 321 L1377 321 L1377 285 Z" />
      </clipPath>
      <clipPath clipPathUnits="userSpaceOnUse" id="clipPath29">
        <path d="M-1 -1 L1540 -1 L1540 586 L-1 586 L-1 -1 Z" />
      </clipPath>
      <clipPath clipPathUnits="userSpaceOnUse" id="clipPath30">
        <path d="M105 134 L602 134 L602 170 L105 170 L105 134 Z" />
      </clipPath>
      <clipPath clipPathUnits="userSpaceOnUse" id="clipPath31">
        <path d="M43 119 L55 119 L55 130 L43 130 L43 119 Z" />
      </clipPath>
      <clipPath clipPathUnits="userSpaceOnUse" id="clipPath32">
        <path d="M553 247 L906 247 L906 283 L553 283 L553 247 Z" />
      </clipPath>
      <clipPath clipPathUnits="userSpaceOnUse" id="clipPath33">
        <path d="M43 270 L55 270 L55 281 L43 281 L43 270 Z" />
      </clipPath>
      <clipPath clipPathUnits="userSpaceOnUse" id="clipPath34">
        <path d="M364 350 L744 350 L744 386 L364 386 L364 350 Z" />
      </clipPath>
      <clipPath clipPathUnits="userSpaceOnUse" id="clipPath35">
        <path d="M43 373 L55 373 L55 384 L43 384 L43 373 Z" />
      </clipPath>
      <clipPath clipPathUnits="userSpaceOnUse" id="clipPath36">
        <path d="M180 423 L522 423 L522 459 L180 459 L180 423 Z" />
      </clipPath>
      <clipPath clipPathUnits="userSpaceOnUse" id="clipPath37">
        <path d="M43 446 L55 446 L55 457 L43 457 L43 446 Z" />
      </clipPath>
      <clipPath clipPathUnits="userSpaceOnUse" id="clipPath38">
        <path d="M172 189 L530 189 L530 225 L172 225 L172 189 Z" />
      </clipPath>
      <clipPath clipPathUnits="userSpaceOnUse" id="clipPath39">
        <path d="M641 212 L653 212 L653 223 L641 223 L641 212 Z" />
      </clipPath>
      <clipPath clipPathUnits="userSpaceOnUse" id="clipPath40">
        <path d="M416 298 L691 298 L691 334 L416 334 L416 298 Z" />
      </clipPath>
      <clipPath clipPathUnits="userSpaceOnUse" id="clipPath41">
        <path d="M1045 321 L1057 321 L1057 332 L1045 332 L1045 321 Z" />
      </clipPath>
      <clipPath clipPathUnits="userSpaceOnUse" id="clipPath42">
        <path d="M115 478 L587 478 L587 514 L115 514 L115 478 Z" />
      </clipPath>
      <clipPath clipPathUnits="userSpaceOnUse" id="clipPath43">
        <path d="M641 501 L653 501 L653 512 L641 512 L641 501 Z" />
      </clipPath>
    </defs>
    <g font-size="16" fill="rgb(238,201,142)" font-family="'Lucida Sans Unicode'" stroke-linejoin="round" stroke="rgb(238,201,142)" stroke-width="0" stroke-miterlimit="0">
      <rect x="10" y="10" clip-path="url(#clipPath1)" width="70" height="30" stroke="none" />
    </g>
    <g stroke-width="0.1" font-size="16" font-family="'Lucida Sans Unicode'" stroke-linecap="butt">
      <rect x="10" y="10" clip-path="url(#clipPath1)" fill="none" width="69" height="29" />
      <line clip-path="url(#clipPath2)" fill="none" x1="44" x2="44" y1="40" y2="575" stroke-dasharray="10,10" stroke-width="1.1" />
    </g>
    <g stroke-linecap="butt" font-size="16" fill="rgb(255,245,181)" font-family="'Lucida Sans Unicode'" stroke-dasharray="10,10" stroke="rgb(255,245,181)" stroke-width="1.1">
      <rect x="469" y="10" clip-path="url(#clipPath3)" width="383" height="105" stroke="none" />
    </g>
    <g stroke-width="0.1" font-size="16" font-family="'Lucida Sans Unicode'" stroke-linecap="butt">
      <rect x="469" y="10" clip-path="url(#clipPath3)" fill="none" width="382" height="104" />
      <text x="639" font-size="28" y="59" clip-path="url(#clipPath4)" stroke="none" xml:space="preserve">bill</text>
      <text x="538" font-size="28" y="93" clip-path="url(#clipPath5)" stroke="none" xml:space="preserve">: actAuthenticated</text>
      <line clip-path="url(#clipPath6)" fill="none" x1="659" x2="659" y1="115" y2="575" stroke-dasharray="10,10" stroke-width="1.1" />
    </g>
    <g stroke-linecap="butt" font-size="16" fill="rgb(39,76,114)" font-family="'Lucida Sans Unicode'" stroke-dasharray="10,10" stroke="rgb(39,76,114)" stroke-width="1.1">
      <rect x="650" y="125" clip-path="url(#clipPath7)" width="20" height="40" stroke="none" />
      <rect x="650" y="125" clip-path="url(#clipPath7)" fill="none" width="19" stroke-dasharray="none" height="39" stroke-width="0.1" />
    </g>
    <g stroke-width="0.1" font-size="28" font-family="'Lucida Sans Unicode'" stroke-linecap="butt">
      <text xml:space="preserve" x="671" y="156" clip-path="url(#clipPath8)" stroke="none">out01</text>
      <rect x="650" y="451" clip-path="url(#clipPath9)" fill="rgb(39,76,114)" width="20" height="14" stroke="none" />
      <rect x="650" y="451" clip-path="url(#clipPath9)" fill="none" width="19" height="13" stroke="rgb(39,76,114)" />
      <text xml:space="preserve" x="620" y="497" clip-path="url(#clipPath10)" stroke="none">out04</text>
      <rect x="650" y="217" clip-path="url(#clipPath11)" fill="rgb(194,239,255)" width="20" height="8" stroke="none" />
      <rect x="650" y="217" clip-path="url(#clipPath11)" fill="none" width="19" height="7" stroke="rgb(194,239,255)" />
      <text xml:space="preserve" x="630" y="257" clip-path="url(#clipPath12)" stroke="none">in01</text>
      <rect x="650" y="506" clip-path="url(#clipPath13)" fill="rgb(194,239,255)" width="20" height="19" stroke="none" />
      <rect x="650" y="506" clip-path="url(#clipPath13)" fill="none" width="19" height="18" stroke="rgb(194,239,255)" />
      <text xml:space="preserve" x="671" y="522" clip-path="url(#clipPath14)" stroke="none">in03</text>
      <rect x="862" y="10" clip-path="url(#clipPath15)" fill="rgb(255,245,181)" width="405" height="94" stroke="none" />
      <rect x="862" y="10" clip-path="url(#clipPath15)" fill="none" width="404" height="93" />
      <text xml:space="preserve" x="1026" y="54" clip-path="url(#clipPath16)" stroke="none">tango</text>
      <text xml:space="preserve" x="941" y="88" clip-path="url(#clipPath17)" stroke="none">: actComCompany</text>
      <line clip-path="url(#clipPath18)" fill="none" x1="1063" x2="1063" y1="104" y2="575" stroke-dasharray="10,10" stroke-width="1.1" />
    </g>
    <g stroke-linecap="butt" font-size="16" fill="rgb(39,76,114)" font-family="'Lucida Sans Unicode'" stroke-dasharray="10,10" stroke="rgb(39,76,114)" stroke-width="1.1">
      <rect x="1054" y="378" clip-path="url(#clipPath19)" width="20" height="27" stroke="none" />
      <rect x="1054" y="378" clip-path="url(#clipPath19)" fill="none" width="19" stroke-dasharray="none" height="26" stroke-width="0.1" />
    </g>
    <g stroke-width="0.1" font-size="28" font-family="'Lucida Sans Unicode'" stroke-linecap="butt">
      <text xml:space="preserve" x="1075" y="402" clip-path="url(#clipPath20)" stroke="none">out03</text>
      <rect x="1054" y="326" clip-path="url(#clipPath21)" fill="rgb(194,239,255)" width="20" height="19" stroke="none" />
      <rect x="1054" y="326" clip-path="url(#clipPath21)" fill="none" width="19" height="18" stroke="rgb(194,239,255)" />
      <text xml:space="preserve" x="1075" y="342" clip-path="url(#clipPath22)" stroke="none">in02</text>
      <rect x="1308" y="10" clip-path="url(#clipPath23)" fill="rgb(255,245,181)" width="221" height="70" stroke="none" />
      <rect x="1308" y="10" clip-path="url(#clipPath23)" fill="none" width="220" height="69" />
      <text xml:space="preserve" x="1385" y="42" clip-path="url(#clipPath24)" stroke="none">main</text>
      <text xml:space="preserve" x="1331" y="76" clip-path="url(#clipPath25)" stroke="none">: actActivator</text>
      <line clip-path="url(#clipPath26)" fill="none" x1="1417" x2="1417" y1="80" y2="575" stroke-dasharray="10,10" stroke-width="1.1" />
    </g>
    <g stroke-linecap="butt" font-size="16" fill="rgb(39,76,114)" font-family="'Lucida Sans Unicode'" stroke-dasharray="10,10" stroke="rgb(39,76,114)" stroke-width="1.1">
      <rect x="1408" y="275" clip-path="url(#clipPath27)" width="20" height="10" stroke="none" />
      <rect x="1408" y="275" clip-path="url(#clipPath27)" fill="none" width="19" stroke-dasharray="none" height="9" stroke-width="0.1" />
    </g>
    <g stroke-width="0.1" font-size="28" font-family="'Lucida Sans Unicode'" stroke-linecap="butt">
      <text xml:space="preserve" x="1378" y="317" clip-path="url(#clipPath28)" stroke="none">out02</text>
      <line clip-path="url(#clipPath29)" fill="none" x1="650" x2="45" y1="124" y2="124" stroke="rgb(136,136,136)" stroke-width="2.1" />
      <text x="106" y="166" clip-path="url(#clipPath30)" stroke="none" stroke-width="2.1" xml:space="preserve">oeLogin("icrashadmin","7WXC1359")</text>
      <line clip-path="url(#clipPath31)" fill="none" x1="52" x2="45" y1="121" y2="124" stroke="rgb(136,136,136)" stroke-width="2.1" />
      <line clip-path="url(#clipPath31)" fill="none" x1="45" x2="52" y1="124" y2="127" stroke="rgb(136,136,136)" stroke-width="2.1" />
      <line clip-path="url(#clipPath29)" fill="none" x1="1408" x2="45" y1="275" y2="275" stroke="rgb(136,136,136)" stroke-width="2.1" />
      <text x="554" y="279" clip-path="url(#clipPath32)" stroke="none" stroke-width="2.1" xml:space="preserve">oeGenerate(AdtSmsCode)</text>
      <line clip-path="url(#clipPath33)" fill="none" x1="52" x2="45" y1="272" y2="275" stroke="rgb(136,136,136)" stroke-width="2.1" />
      <line clip-path="url(#clipPath33)" fill="none" x1="45" x2="52" y1="275" y2="278" stroke="rgb(136,136,136)" stroke-width="2.1" />
      <line clip-path="url(#clipPath29)" fill="none" x1="1054" x2="45" y1="378" y2="378" stroke="rgb(136,136,136)" stroke-width="2.1" />
      <text x="365" y="382" clip-path="url(#clipPath34)" stroke="none" stroke-width="2.1" xml:space="preserve">oeSendSmsCode("ABC123")</text>
      <line clip-path="url(#clipPath35)" fill="none" x1="52" x2="45" y1="375" y2="378" stroke="rgb(136,136,136)" stroke-width="2.1" />
      <line clip-path="url(#clipPath35)" fill="none" x1="45" x2="52" y1="378" y2="381" stroke="rgb(136,136,136)" stroke-width="2.1" />
      <line clip-path="url(#clipPath29)" fill="none" x1="650" x2="45" y1="451" y2="451" stroke="rgb(136,136,136)" stroke-width="2.1" />
      <text x="181" y="455" clip-path="url(#clipPath36)" stroke="none" stroke-width="2.1" xml:space="preserve">oeSmsControl("ABC123")</text>
      <line clip-path="url(#clipPath37)" fill="none" x1="52" x2="45" y1="448" y2="451" stroke="rgb(136,136,136)" stroke-width="2.1" />
      <line clip-path="url(#clipPath37)" fill="none" x1="45" x2="52" y1="451" y2="454" stroke="rgb(136,136,136)" stroke-width="2.1" />
    </g>
    <g stroke-linecap="butt" font-size="28" fill="rgb(136,136,136)" font-family="'Lucida Sans Unicode'" stroke-dasharray="5,5" stroke="rgb(136,136,136)" stroke-width="2.1">
      <line clip-path="url(#clipPath29)" fill="none" x1="650" x2="45" y1="217" y2="217" />
      <text x="173" y="221" clip-path="url(#clipPath38)" fill="black" stroke="none" xml:space="preserve">ieMessage(SmsCode sent)</text>
      <line clip-path="url(#clipPath39)" fill="none" x1="643" x2="650" y1="220" y2="217" stroke-dasharray="none" />
      <line clip-path="url(#clipPath39)" fill="none" x1="650" x2="643" y1="217" y2="214" stroke-dasharray="none" />
      <line clip-path="url(#clipPath29)" fill="none" x1="1054" x2="45" y1="326" y2="326" />
      <text x="417" y="330" clip-path="url(#clipPath40)" fill="black" stroke="none" xml:space="preserve">ieMessage(ABC123)</text>
      <line clip-path="url(#clipPath41)" fill="none" x1="1047" x2="1054" y1="329" y2="326" stroke-dasharray="none" />
      <line clip-path="url(#clipPath41)" fill="none" x1="1054" x2="1047" y1="326" y2="323" stroke-dasharray="none" />
      <line clip-path="url(#clipPath29)" fill="none" x1="650" x2="45" y1="506" y2="506" />
      <text x="116" y="510" clip-path="url(#clipPath42)" fill="black" stroke="none" xml:space="preserve">ieMessage(Successfully Logged in)</text>
      <line clip-path="url(#clipPath43)" fill="none" x1="643" x2="650" y1="509" y2="506" stroke-dasharray="none" />
      <line clip-path="url(#clipPath43)" fill="none" x1="650" x2="643" y1="506" y2="503" stroke-dasharray="none" />
    </g>
  </g>
</svg>

