<?xml version="1.0" encoding="UTF-8"?>
<svg xmlns="http://www.w3.org/2000/svg" xmlns:xlink="http://www.w3.org/1999/xlink" stroke-dasharray="none" shape-rendering="auto" font-family="'Dialog'" width="1539" text-rendering="auto" fill-opacity="1" contentScriptType="text/ecmascript" color-interpolation="auto" color-rendering="auto" preserveAspectRatio="xMidYMid meet" font-size="12" viewBox="0 0 1539 585" fill="black" stroke="black" image-rendering="auto" stroke-miterlimit="10" zoomAndPan="magnify" version="1.0" stroke-linecap="square" stroke-linejoin="miter" contentStyleType="text/css" font-style="normal" height="585" stroke-width="1" stroke-dashoffset="0" font-weight="normal" stroke-opacity="1">
  <!--Generated by the Batik Graphics2D SVG Generator-->
  <defs id="genericDefs" />
  <g>
    <defs id="defs1">
      <clipPath clipPathUnits="userSpaceOnUse" id="clipPath1">
        <path d="M9 9 L81 9 L81 41 L9 41 L9 9 Z" />
      </clipPath>
      <clipPath clipPathUnits="userSpaceOnUse" id="clipPath2">
        <path d="M9 9 L86 9 L86 41 L9 41 L9 9 Z" />
      </clipPath>
      <clipPath clipPathUnits="userSpaceOnUse" id="clipPath3">
        <path d="M39 39 L51 39 L51 576 L39 576 L39 39 Z" />
      </clipPath>
      <clipPath clipPathUnits="userSpaceOnUse" id="clipPath4">
        <path d="M468 9 L853 9 L853 116 L468 116 L468 9 Z" />
      </clipPath>
      <clipPath clipPathUnits="userSpaceOnUse" id="clipPath5">
        <path d="M468 9 L856 9 L856 116 L468 116 L468 9 Z" />
      </clipPath>
      <clipPath clipPathUnits="userSpaceOnUse" id="clipPath6">
        <path d="M468 9 L857 9 L857 116 L468 116 L468 9 Z" />
      </clipPath>
      <clipPath clipPathUnits="userSpaceOnUse" id="clipPath7">
        <path d="M654 114 L666 114 L666 576 L654 576 L654 114 Z" />
      </clipPath>
      <clipPath clipPathUnits="userSpaceOnUse" id="clipPath8">
        <path d="M649 124 L671 124 L671 166 L649 166 L649 124 Z" />
      </clipPath>
      <clipPath clipPathUnits="userSpaceOnUse" id="clipPath9">
        <path d="M670 124 L732 124 L732 149 L670 149 L670 124 Z" />
      </clipPath>
      <clipPath clipPathUnits="userSpaceOnUse" id="clipPath10">
        <path d="M649 450 L671 450 L671 466 L649 466 L649 450 Z" />
      </clipPath>
      <clipPath clipPathUnits="userSpaceOnUse" id="clipPath11">
        <path d="M670 441 L732 441 L732 466 L670 466 L670 441 Z" />
      </clipPath>
      <clipPath clipPathUnits="userSpaceOnUse" id="clipPath12">
        <path d="M649 216 L671 216 L671 226 L649 226 L649 216 Z" />
      </clipPath>
      <clipPath clipPathUnits="userSpaceOnUse" id="clipPath13">
        <path d="M638 225 L687 225 L687 250 L638 250 L638 225 Z" />
      </clipPath>
      <clipPath clipPathUnits="userSpaceOnUse" id="clipPath14">
        <path d="M649 505 L671 505 L671 526 L649 526 L649 505 Z" />
      </clipPath>
      <clipPath clipPathUnits="userSpaceOnUse" id="clipPath15">
        <path d="M670 501 L719 501 L719 526 L670 526 L670 501 Z" />
      </clipPath>
      <clipPath clipPathUnits="userSpaceOnUse" id="clipPath16">
        <path d="M861 9 L1268 9 L1268 105 L861 105 L861 9 Z" />
      </clipPath>
      <clipPath clipPathUnits="userSpaceOnUse" id="clipPath17">
        <path d="M861 9 L1273 9 L1273 105 L861 105 L861 9 Z" />
      </clipPath>
      <clipPath clipPathUnits="userSpaceOnUse" id="clipPath18">
        <path d="M1058 103 L1070 103 L1070 576 L1058 576 L1058 103 Z" />
      </clipPath>
      <clipPath clipPathUnits="userSpaceOnUse" id="clipPath19">
        <path d="M1053 377 L1075 377 L1075 406 L1053 406 L1053 377 Z" />
      </clipPath>
      <clipPath clipPathUnits="userSpaceOnUse" id="clipPath20">
        <path d="M1074 377 L1136 377 L1136 402 L1074 402 L1074 377 Z" />
      </clipPath>
      <clipPath clipPathUnits="userSpaceOnUse" id="clipPath21">
        <path d="M1053 325 L1075 325 L1075 346 L1053 346 L1053 325 Z" />
      </clipPath>
      <clipPath clipPathUnits="userSpaceOnUse" id="clipPath22">
        <path d="M1074 321 L1123 321 L1123 346 L1074 346 L1074 321 Z" />
      </clipPath>
      <clipPath clipPathUnits="userSpaceOnUse" id="clipPath23">
        <path d="M1307 9 L1530 9 L1530 81 L1307 81 L1307 9 Z" />
      </clipPath>
      <clipPath clipPathUnits="userSpaceOnUse" id="clipPath24">
        <path d="M1307 9 L1535 9 L1535 81 L1307 81 L1307 9 Z" />
      </clipPath>
      <clipPath clipPathUnits="userSpaceOnUse" id="clipPath25">
        <path d="M1307 9 L1534 9 L1534 81 L1307 81 L1307 9 Z" />
      </clipPath>
      <clipPath clipPathUnits="userSpaceOnUse" id="clipPath26">
        <path d="M1412 79 L1424 79 L1424 576 L1412 576 L1412 79 Z" />
      </clipPath>
      <clipPath clipPathUnits="userSpaceOnUse" id="clipPath27">
        <path d="M1407 274 L1429 274 L1429 286 L1407 286 L1407 274 Z" />
      </clipPath>
      <clipPath clipPathUnits="userSpaceOnUse" id="clipPath28">
        <path d="M1390 285 L1452 285 L1452 310 L1390 310 L1390 285 Z" />
      </clipPath>
      <clipPath clipPathUnits="userSpaceOnUse" id="clipPath29">
        <path d="M-1 -1 L1540 -1 L1540 586 L-1 586 L-1 -1 Z" />
      </clipPath>
      <clipPath clipPathUnits="userSpaceOnUse" id="clipPath30">
        <path d="M180 140 L525 140 L525 165 L180 165 L180 140 Z" />
      </clipPath>
      <clipPath clipPathUnits="userSpaceOnUse" id="clipPath31">
        <path d="M43 119 L55 119 L55 130 L43 130 L43 119 Z" />
      </clipPath>
      <clipPath clipPathUnits="userSpaceOnUse" id="clipPath32">
        <path d="M606 253 L851 253 L851 278 L606 278 L606 253 Z" />
      </clipPath>
      <clipPath clipPathUnits="userSpaceOnUse" id="clipPath33">
        <path d="M43 270 L55 270 L55 281 L43 281 L43 270 Z" />
      </clipPath>
      <clipPath clipPathUnits="userSpaceOnUse" id="clipPath34">
        <path d="M423 356 L683 356 L683 381 L423 381 L423 356 Z" />
      </clipPath>
      <clipPath clipPathUnits="userSpaceOnUse" id="clipPath35">
        <path d="M43 373 L55 373 L55 384 L43 384 L43 373 Z" />
      </clipPath>
      <clipPath clipPathUnits="userSpaceOnUse" id="clipPath36">
        <path d="M231 429 L468 429 L468 454 L231 454 L231 429 Z" />
      </clipPath>
      <clipPath clipPathUnits="userSpaceOnUse" id="clipPath37">
        <path d="M43 446 L55 446 L55 457 L43 457 L43 446 Z" />
      </clipPath>
      <clipPath clipPathUnits="userSpaceOnUse" id="clipPath38">
        <path d="M225 195 L474 195 L474 220 L225 220 L225 195 Z" />
      </clipPath>
      <clipPath clipPathUnits="userSpaceOnUse" id="clipPath39">
        <path d="M641 212 L653 212 L653 223 L641 223 L641 212 Z" />
      </clipPath>
      <clipPath clipPathUnits="userSpaceOnUse" id="clipPath40">
        <path d="M458 304 L648 304 L648 329 L458 329 L458 304 Z" />
      </clipPath>
      <clipPath clipPathUnits="userSpaceOnUse" id="clipPath41">
        <path d="M1045 321 L1057 321 L1057 332 L1045 332 L1045 321 Z" />
      </clipPath>
      <clipPath clipPathUnits="userSpaceOnUse" id="clipPath42">
        <path d="M185 484 L514 484 L514 509 L185 509 L185 484 Z" />
      </clipPath>
      <clipPath clipPathUnits="userSpaceOnUse" id="clipPath43">
        <path d="M641 501 L653 501 L653 512 L641 512 L641 501 Z" />
      </clipPath>
    </defs>
    <g font-size="11" fill="rgb(238,201,142)" font-family="'Lucida Sans Unicode'" stroke-linejoin="round" stroke="rgb(238,201,142)" stroke-width="0" stroke-miterlimit="0">
      <rect x="10" y="10" clip-path="url(#clipPath1)" width="70" height="30" stroke="none" />
    </g>
    <g stroke-width="0.1" font-size="11" font-family="'Lucida Sans Unicode'" stroke-linecap="butt">
      <rect x="10" y="10" clip-path="url(#clipPath1)" fill="none" width="69" height="29" />
      <text x="12" font-size="19" y="34" clip-path="url(#clipPath2)" stroke="none" xml:space="preserve">System</text>
      <line clip-path="url(#clipPath3)" fill="none" x1="44" x2="44" y1="40" y2="575" stroke-dasharray="10,10" stroke-width="1.1" />
    </g>
    <g stroke-linecap="butt" font-size="11" fill="rgb(255,245,181)" font-family="'Lucida Sans Unicode'" stroke-dasharray="10,10" stroke="rgb(255,245,181)" stroke-width="1.1">
      <rect x="469" y="10" clip-path="url(#clipPath4)" width="383" height="105" stroke="none" />
    </g>
    <g stroke-width="0.1" font-size="11" font-family="'Lucida Sans Unicode'" stroke-linecap="butt">
      <rect x="469" y="10" clip-path="url(#clipPath4)" fill="none" width="382" height="104" />
      <text x="645" font-size="19" y="60" clip-path="url(#clipPath5)" stroke="none" xml:space="preserve">bill</text>
      <text x="575" font-size="19" y="83" clip-path="url(#clipPath6)" stroke="none" xml:space="preserve">: actAuthenticated</text>
      <line clip-path="url(#clipPath7)" fill="none" x1="659" x2="659" y1="115" y2="575" stroke-dasharray="10,10" stroke-width="1.1" />
    </g>
    <g stroke-linecap="butt" font-size="11" fill="rgb(39,76,114)" font-family="'Lucida Sans Unicode'" stroke-dasharray="10,10" stroke="rgb(39,76,114)" stroke-width="1.1">
      <rect x="650" y="125" clip-path="url(#clipPath8)" width="20" height="40" stroke="none" />
      <rect x="650" y="125" clip-path="url(#clipPath8)" fill="none" width="19" stroke-dasharray="none" height="39" stroke-width="0.1" />
    </g>
    <g stroke-width="0.1" font-size="19" font-family="'Lucida Sans Unicode'" stroke-linecap="butt">
      <text xml:space="preserve" x="671" y="146" clip-path="url(#clipPath9)" stroke="none">out01</text>
      <rect x="650" y="451" clip-path="url(#clipPath10)" fill="rgb(39,76,114)" width="20" height="14" stroke="none" />
      <rect x="650" y="451" clip-path="url(#clipPath10)" fill="none" width="19" height="13" stroke="rgb(39,76,114)" />
      <text xml:space="preserve" x="671" y="463" clip-path="url(#clipPath11)" stroke="none">out04</text>
      <rect x="650" y="217" clip-path="url(#clipPath12)" fill="rgb(194,239,255)" width="20" height="8" stroke="none" />
      <rect x="650" y="217" clip-path="url(#clipPath12)" fill="none" width="19" height="7" stroke="rgb(194,239,255)" />
      <text xml:space="preserve" x="639" y="247" clip-path="url(#clipPath13)" stroke="none">in01</text>
      <rect x="650" y="506" clip-path="url(#clipPath14)" fill="rgb(194,239,255)" width="20" height="19" stroke="none" />
      <rect x="650" y="506" clip-path="url(#clipPath14)" fill="none" width="19" height="18" stroke="rgb(194,239,255)" />
      <text xml:space="preserve" x="671" y="523" clip-path="url(#clipPath15)" stroke="none">in03</text>
      <rect x="862" y="10" clip-path="url(#clipPath16)" fill="rgb(255,245,181)" width="405" height="94" stroke="none" />
      <rect x="862" y="10" clip-path="url(#clipPath16)" fill="none" width="404" height="93" />
      <text xml:space="preserve" x="1037" y="55" clip-path="url(#clipPath17)" stroke="none">tango</text>
      <text xml:space="preserve" x="979" y="78" clip-path="url(#clipPath17)" stroke="none">: actComCompany</text>
      <line clip-path="url(#clipPath18)" fill="none" x1="1063" x2="1063" y1="104" y2="575" stroke-dasharray="10,10" stroke-width="1.1" />
    </g>
    <g stroke-linecap="butt" font-size="11" fill="rgb(39,76,114)" font-family="'Lucida Sans Unicode'" stroke-dasharray="10,10" stroke="rgb(39,76,114)" stroke-width="1.1">
      <rect x="1054" y="378" clip-path="url(#clipPath19)" width="20" height="27" stroke="none" />
      <rect x="1054" y="378" clip-path="url(#clipPath19)" fill="none" width="19" stroke-dasharray="none" height="26" stroke-width="0.1" />
    </g>
    <g stroke-width="0.1" font-size="19" font-family="'Lucida Sans Unicode'" stroke-linecap="butt">
      <text xml:space="preserve" x="1075" y="399" clip-path="url(#clipPath20)" stroke="none">out03</text>
      <rect x="1054" y="326" clip-path="url(#clipPath21)" fill="rgb(194,239,255)" width="20" height="19" stroke="none" />
      <rect x="1054" y="326" clip-path="url(#clipPath21)" fill="none" width="19" height="18" stroke="rgb(194,239,255)" />
      <text xml:space="preserve" x="1075" y="343" clip-path="url(#clipPath22)" stroke="none">in02</text>
      <rect x="1308" y="10" clip-path="url(#clipPath23)" fill="rgb(255,245,181)" width="221" height="70" stroke="none" />
      <rect x="1308" y="10" clip-path="url(#clipPath23)" fill="none" width="220" height="69" />
      <text xml:space="preserve" x="1394" y="43" clip-path="url(#clipPath24)" stroke="none">main</text>
      <text xml:space="preserve" x="1356" y="66" clip-path="url(#clipPath25)" stroke="none">: actActivator</text>
      <line clip-path="url(#clipPath26)" fill="none" x1="1417" x2="1417" y1="80" y2="575" stroke-dasharray="10,10" stroke-width="1.1" />
    </g>
    <g stroke-linecap="butt" font-size="11" fill="rgb(39,76,114)" font-family="'Lucida Sans Unicode'" stroke-dasharray="10,10" stroke="rgb(39,76,114)" stroke-width="1.1">
      <rect x="1408" y="275" clip-path="url(#clipPath27)" width="20" height="10" stroke="none" />
      <rect x="1408" y="275" clip-path="url(#clipPath27)" fill="none" width="19" stroke-dasharray="none" height="9" stroke-width="0.1" />
    </g>
    <g stroke-width="0.1" font-size="19" font-family="'Lucida Sans Unicode'" stroke-linecap="butt">
      <text xml:space="preserve" x="1391" y="307" clip-path="url(#clipPath28)" stroke="none">out02</text>
      <line clip-path="url(#clipPath29)" fill="none" x1="650" x2="45" y1="124" y2="124" stroke="rgb(136,136,136)" stroke-width="2.1" />
      <text x="181" y="162" clip-path="url(#clipPath30)" stroke="none" stroke-width="2.1" xml:space="preserve">oeLogin("icrashadmin","7WXC1359")</text>
      <line clip-path="url(#clipPath31)" fill="none" x1="52" x2="45" y1="121" y2="124" stroke="rgb(136,136,136)" stroke-width="2.1" />
      <line clip-path="url(#clipPath31)" fill="none" x1="45" x2="52" y1="124" y2="127" stroke="rgb(136,136,136)" stroke-width="2.1" />
      <line clip-path="url(#clipPath29)" fill="none" x1="1408" x2="45" y1="275" y2="275" stroke="rgb(136,136,136)" stroke-width="2.1" />
      <text x="607" y="275" clip-path="url(#clipPath32)" stroke="none" stroke-width="2.1" xml:space="preserve">oeGenerate(AdtSmsCode)</text>
      <line clip-path="url(#clipPath33)" fill="none" x1="52" x2="45" y1="272" y2="275" stroke="rgb(136,136,136)" stroke-width="2.1" />
      <line clip-path="url(#clipPath33)" fill="none" x1="45" x2="52" y1="275" y2="278" stroke="rgb(136,136,136)" stroke-width="2.1" />
      <line clip-path="url(#clipPath29)" fill="none" x1="1054" x2="45" y1="378" y2="378" stroke="rgb(136,136,136)" stroke-width="2.1" />
      <text x="424" y="378" clip-path="url(#clipPath34)" stroke="none" stroke-width="2.1" xml:space="preserve">oeSendSmsCode("ABC123")</text>
      <line clip-path="url(#clipPath35)" fill="none" x1="52" x2="45" y1="375" y2="378" stroke="rgb(136,136,136)" stroke-width="2.1" />
      <line clip-path="url(#clipPath35)" fill="none" x1="45" x2="52" y1="378" y2="381" stroke="rgb(136,136,136)" stroke-width="2.1" />
      <line clip-path="url(#clipPath29)" fill="none" x1="650" x2="45" y1="451" y2="451" stroke="rgb(136,136,136)" stroke-width="2.1" />
      <text x="232" y="451" clip-path="url(#clipPath36)" stroke="none" stroke-width="2.1" xml:space="preserve">oeSmsControl("ABC123")</text>
      <line clip-path="url(#clipPath37)" fill="none" x1="52" x2="45" y1="448" y2="451" stroke="rgb(136,136,136)" stroke-width="2.1" />
      <line clip-path="url(#clipPath37)" fill="none" x1="45" x2="52" y1="451" y2="454" stroke="rgb(136,136,136)" stroke-width="2.1" />
    </g>
    <g stroke-linecap="butt" font-size="19" fill="rgb(136,136,136)" font-family="'Lucida Sans Unicode'" stroke-dasharray="5,5" stroke="rgb(136,136,136)" stroke-width="2.1">
      <line clip-path="url(#clipPath29)" fill="none" x1="650" x2="45" y1="217" y2="217" />
      <text x="226" y="217" clip-path="url(#clipPath38)" fill="black" stroke="none" xml:space="preserve">ieMessage(SmsCode sent)</text>
      <line clip-path="url(#clipPath39)" fill="none" x1="643" x2="650" y1="220" y2="217" stroke-dasharray="none" />
      <line clip-path="url(#clipPath39)" fill="none" x1="650" x2="643" y1="217" y2="214" stroke-dasharray="none" />
      <line clip-path="url(#clipPath29)" fill="none" x1="1054" x2="45" y1="326" y2="326" />
      <text x="459" y="326" clip-path="url(#clipPath40)" fill="black" stroke="none" xml:space="preserve">ieMessage(ABC123)</text>
      <line clip-path="url(#clipPath41)" fill="none" x1="1047" x2="1054" y1="329" y2="326" stroke-dasharray="none" />
      <line clip-path="url(#clipPath41)" fill="none" x1="1054" x2="1047" y1="326" y2="323" stroke-dasharray="none" />
      <line clip-path="url(#clipPath29)" fill="none" x1="650" x2="45" y1="506" y2="506" />
      <text x="186" y="506" clip-path="url(#clipPath42)" fill="black" stroke="none" xml:space="preserve">ieMessage(Successfully Logged in)</text>
      <line clip-path="url(#clipPath43)" fill="none" x1="643" x2="650" y1="509" y2="506" stroke-dasharray="none" />
      <line clip-path="url(#clipPath43)" fill="none" x1="650" x2="643" y1="506" y2="503" stroke-dasharray="none" />
    </g>
  </g>
</svg>

