<?xml version="1.0" encoding="UTF-8"?>
<svg xmlns="http://www.w3.org/2000/svg" xmlns:xlink="http://www.w3.org/1999/xlink" stroke-dasharray="none" shape-rendering="auto" font-family="'Dialog'" width="1669" text-rendering="auto" fill-opacity="1" contentScriptType="text/ecmascript" color-interpolation="auto" color-rendering="auto" preserveAspectRatio="xMidYMid meet" font-size="12" viewBox="0 0 1669 523" fill="black" stroke="black" image-rendering="auto" stroke-miterlimit="10" zoomAndPan="magnify" version="1.0" stroke-linecap="square" stroke-linejoin="miter" contentStyleType="text/css" font-style="normal" height="523" stroke-width="1" stroke-dashoffset="0" font-weight="normal" stroke-opacity="1">
  <!--Generated by the Batik Graphics2D SVG Generator-->
  <defs id="genericDefs" />
  <g>
    <defs id="defs1">
      <clipPath clipPathUnits="userSpaceOnUse" id="clipPath1">
        <path d="M9 9 L241 9 L241 84 L9 84 L9 9 Z" />
      </clipPath>
      <clipPath clipPathUnits="userSpaceOnUse" id="clipPath2">
        <path d="M9 9 L249 9 L249 84 L9 84 L9 9 Z" />
      </clipPath>
      <clipPath clipPathUnits="userSpaceOnUse" id="clipPath3">
        <path d="M119 82 L131 82 L131 514 L119 514 L119 82 Z" />
      </clipPath>
      <clipPath clipPathUnits="userSpaceOnUse" id="clipPath4">
        <path d="M894 9 L1329 9 L1329 94 L894 94 L894 9 Z" />
      </clipPath>
      <clipPath clipPathUnits="userSpaceOnUse" id="clipPath5">
        <path d="M894 9 L1337 9 L1337 94 L894 94 L894 9 Z" />
      </clipPath>
      <clipPath clipPathUnits="userSpaceOnUse" id="clipPath6">
        <path d="M1105 92 L1117 92 L1117 514 L1105 514 L1105 92 Z" />
      </clipPath>
      <clipPath clipPathUnits="userSpaceOnUse" id="clipPath7">
        <path d="M1100 182 L1122 182 L1122 224 L1100 224 L1100 182 Z" />
      </clipPath>
      <clipPath clipPathUnits="userSpaceOnUse" id="clipPath8">
        <path d="M1121 182 L1211 182 L1211 218 L1121 218 L1121 182 Z" />
      </clipPath>
      <clipPath clipPathUnits="userSpaceOnUse" id="clipPath9">
        <path d="M1345 9 L1660 9 L1660 79 L1345 79 L1345 9 Z" />
      </clipPath>
      <clipPath clipPathUnits="userSpaceOnUse" id="clipPath10">
        <path d="M1345 9 L1668 9 L1668 79 L1345 79 L1345 9 Z" />
      </clipPath>
      <clipPath clipPathUnits="userSpaceOnUse" id="clipPath11">
        <path d="M1345 9 L1666 9 L1666 79 L1345 79 L1345 9 Z" />
      </clipPath>
      <clipPath clipPathUnits="userSpaceOnUse" id="clipPath12">
        <path d="M1496 77 L1508 77 L1508 514 L1496 514 L1496 77 Z" />
      </clipPath>
      <clipPath clipPathUnits="userSpaceOnUse" id="clipPath13">
        <path d="M1491 122 L1513 122 L1513 164 L1491 164 L1491 122 Z" />
      </clipPath>
      <clipPath clipPathUnits="userSpaceOnUse" id="clipPath14">
        <path d="M1512 122 L1602 122 L1602 158 L1512 158 L1512 122 Z" />
      </clipPath>
      <clipPath clipPathUnits="userSpaceOnUse" id="clipPath15">
        <path d="M1491 242 L1513 242 L1513 284 L1491 284 L1491 242 Z" />
      </clipPath>
      <clipPath clipPathUnits="userSpaceOnUse" id="clipPath16">
        <path d="M1512 242 L1602 242 L1602 278 L1512 278 L1512 242 Z" />
      </clipPath>
      <clipPath clipPathUnits="userSpaceOnUse" id="clipPath17">
        <path d="M1491 362 L1513 362 L1513 404 L1491 404 L1491 362 Z" />
      </clipPath>
      <clipPath clipPathUnits="userSpaceOnUse" id="clipPath18">
        <path d="M1512 362 L1602 362 L1602 398 L1512 398 L1512 362 Z" />
      </clipPath>
      <clipPath clipPathUnits="userSpaceOnUse" id="clipPath19">
        <path d="M1491 302 L1513 302 L1513 344 L1491 344 L1491 302 Z" />
      </clipPath>
      <clipPath clipPathUnits="userSpaceOnUse" id="clipPath20">
        <path d="M1512 302 L1582 302 L1582 338 L1512 338 L1512 302 Z" />
      </clipPath>
      <clipPath clipPathUnits="userSpaceOnUse" id="clipPath21">
        <path d="M1491 422 L1513 422 L1513 464 L1491 464 L1491 422 Z" />
      </clipPath>
      <clipPath clipPathUnits="userSpaceOnUse" id="clipPath22">
        <path d="M1512 422 L1582 422 L1582 458 L1512 458 L1512 422 Z" />
      </clipPath>
      <clipPath clipPathUnits="userSpaceOnUse" id="clipPath23">
        <path d="M-1 -1 L1670 -1 L1670 524 L-1 524 L-1 -1 Z" />
      </clipPath>
      <clipPath clipPathUnits="userSpaceOnUse" id="clipPath24">
        <path d="M551 88 L908 88 L908 124 L551 124 L551 88 Z" />
      </clipPath>
      <clipPath clipPathUnits="userSpaceOnUse" id="clipPath25">
        <path d="M123 118 L135 118 L135 129 L123 129 L123 118 Z" />
      </clipPath>
      <clipPath clipPathUnits="userSpaceOnUse" id="clipPath26">
        <path d="M357 148 L1386 148 L1386 184 L357 184 L357 148 Z" />
      </clipPath>
      <clipPath clipPathUnits="userSpaceOnUse" id="clipPath27">
        <path d="M123 178 L135 178 L135 189 L123 189 L123 178 Z" />
      </clipPath>
      <clipPath clipPathUnits="userSpaceOnUse" id="clipPath28">
        <path d="M615 198 L1020 198 L1020 234 L615 234 L615 198 Z" />
      </clipPath>
      <clipPath clipPathUnits="userSpaceOnUse" id="clipPath29">
        <path d="M123 238 L135 238 L135 249 L123 249 L123 238 Z" />
      </clipPath>
      <clipPath clipPathUnits="userSpaceOnUse" id="clipPath30">
        <path d="M602 325 L1049 325 L1049 361 L602 361 L602 325 Z" />
      </clipPath>
      <clipPath clipPathUnits="userSpaceOnUse" id="clipPath31">
        <path d="M123 358 L135 358 L135 369 L123 369 L123 358 Z" />
      </clipPath>
      <clipPath clipPathUnits="userSpaceOnUse" id="clipPath32">
        <path d="M670 257 L972 257 L972 293 L670 293 L670 257 Z" />
      </clipPath>
      <clipPath clipPathUnits="userSpaceOnUse" id="clipPath33">
        <path d="M1483 298 L1495 298 L1495 309 L1483 309 L1483 298 Z" />
      </clipPath>
      <clipPath clipPathUnits="userSpaceOnUse" id="clipPath34">
        <path d="M660 386 L986 386 L986 422 L660 422 L660 386 Z" />
      </clipPath>
      <clipPath clipPathUnits="userSpaceOnUse" id="clipPath35">
        <path d="M1483 418 L1495 418 L1495 429 L1483 429 L1483 418 Z" />
      </clipPath>
    </defs>
    <g font-size="16" fill="rgb(238,201,142)" font-family="'Lucida Sans Unicode'" stroke-linejoin="round" stroke="rgb(238,201,142)" stroke-width="0" stroke-miterlimit="0">
      <rect x="10" y="10" clip-path="url(#clipPath1)" width="230" height="73" stroke="none" />
    </g>
    <g stroke-width="0.1" font-size="16" font-family="'Lucida Sans Unicode'" stroke-linecap="butt">
      <rect x="10" y="10" clip-path="url(#clipPath1)" fill="none" width="229" height="72" />
      <text x="77" font-size="28" y="60" clip-path="url(#clipPath2)" stroke="none" xml:space="preserve">System</text>
      <line clip-path="url(#clipPath3)" fill="none" x1="124" x2="124" y1="83" y2="513" stroke-dasharray="10,10" stroke-width="1.1" />
    </g>
    <g stroke-linecap="butt" font-size="16" fill="rgb(255,245,181)" font-family="'Lucida Sans Unicode'" stroke-dasharray="10,10" stroke="rgb(255,245,181)" stroke-width="1.1">
      <rect x="895" y="10" clip-path="url(#clipPath4)" width="433" height="83" stroke="none" />
    </g>
    <g stroke-width="0.1" font-size="16" font-family="'Lucida Sans Unicode'" stroke-linecap="butt">
      <rect x="895" y="10" clip-path="url(#clipPath4)" fill="none" width="432" height="82" />
      <text x="1069" font-size="28" y="48" clip-path="url(#clipPath5)" stroke="none" xml:space="preserve">Tango</text>
      <text x="988" font-size="28" y="82" clip-path="url(#clipPath5)" stroke="none" xml:space="preserve">: actComCompany</text>
      <line clip-path="url(#clipPath6)" fill="none" x1="1110" x2="1110" y1="93" y2="513" stroke-dasharray="10,10" stroke-width="1.1" />
    </g>
    <g stroke-linecap="butt" font-size="16" fill="rgb(39,76,114)" font-family="'Lucida Sans Unicode'" stroke-dasharray="10,10" stroke="rgb(39,76,114)" stroke-width="1.1">
      <rect x="1101" y="183" clip-path="url(#clipPath7)" width="20" height="40" stroke="none" />
      <rect x="1101" y="183" clip-path="url(#clipPath7)" fill="none" width="19" stroke-dasharray="none" height="39" stroke-width="0.1" />
    </g>
    <g stroke-width="0.1" font-size="28" font-family="'Lucida Sans Unicode'" stroke-linecap="butt">
      <text xml:space="preserve" x="1122" y="214" clip-path="url(#clipPath8)" stroke="none">out02</text>
      <rect x="1346" y="10" clip-path="url(#clipPath9)" fill="rgb(255,245,181)" width="313" height="68" stroke="none" />
      <rect x="1346" y="10" clip-path="url(#clipPath9)" fill="none" width="312" height="67" />
      <text xml:space="preserve" x="1477" y="41" clip-path="url(#clipPath10)" stroke="none">Bob</text>
      <text xml:space="preserve" x="1394" y="75" clip-path="url(#clipPath11)" stroke="none">: actCoordinator</text>
      <line clip-path="url(#clipPath12)" fill="none" x1="1501" x2="1501" y1="78" y2="513" stroke-dasharray="10,10" stroke-width="1.1" />
    </g>
    <g stroke-linecap="butt" font-size="16" fill="rgb(39,76,114)" font-family="'Lucida Sans Unicode'" stroke-dasharray="10,10" stroke="rgb(39,76,114)" stroke-width="1.1">
      <rect x="1492" y="123" clip-path="url(#clipPath13)" width="20" height="40" stroke="none" />
      <rect x="1492" y="123" clip-path="url(#clipPath13)" fill="none" width="19" stroke-dasharray="none" height="39" stroke-width="0.1" />
    </g>
    <g stroke-width="0.1" font-size="28" font-family="'Lucida Sans Unicode'" stroke-linecap="butt">
      <text xml:space="preserve" x="1513" y="154" clip-path="url(#clipPath14)" stroke="none">out01</text>
      <rect x="1492" y="243" clip-path="url(#clipPath15)" fill="rgb(39,76,114)" width="20" height="40" stroke="none" />
      <rect x="1492" y="243" clip-path="url(#clipPath15)" fill="none" width="19" height="39" stroke="rgb(39,76,114)" />
      <text xml:space="preserve" x="1513" y="274" clip-path="url(#clipPath16)" stroke="none">out03</text>
      <rect x="1492" y="363" clip-path="url(#clipPath17)" fill="rgb(39,76,114)" width="20" height="40" stroke="none" />
      <rect x="1492" y="363" clip-path="url(#clipPath17)" fill="none" width="19" height="39" stroke="rgb(39,76,114)" />
      <text xml:space="preserve" x="1513" y="394" clip-path="url(#clipPath18)" stroke="none">out04</text>
      <rect x="1492" y="303" clip-path="url(#clipPath19)" fill="rgb(194,239,255)" width="20" height="40" stroke="none" />
      <rect x="1492" y="303" clip-path="url(#clipPath19)" fill="none" width="19" height="39" stroke="rgb(194,239,255)" />
      <text xml:space="preserve" x="1513" y="334" clip-path="url(#clipPath20)" stroke="none">in01</text>
      <rect x="1492" y="423" clip-path="url(#clipPath21)" fill="rgb(194,239,255)" width="20" height="40" stroke="none" />
      <rect x="1492" y="423" clip-path="url(#clipPath21)" fill="none" width="19" height="39" stroke="rgb(194,239,255)" />
      <text xml:space="preserve" x="1513" y="454" clip-path="url(#clipPath22)" stroke="none">in02</text>
      <line clip-path="url(#clipPath23)" fill="none" x1="1492" x2="125" y1="123" y2="123" stroke="rgb(136,136,136)" stroke-width="2.1" />
      <text x="552" y="120" clip-path="url(#clipPath24)" stroke="none" stroke-width="2.1" xml:space="preserve">uciugSecurelyUseSystem()</text>
      <line clip-path="url(#clipPath25)" fill="none" x1="132" x2="125" y1="120" y2="123" stroke="rgb(136,136,136)" stroke-width="2.1" />
      <line clip-path="url(#clipPath25)" fill="none" x1="125" x2="132" y1="123" y2="126" stroke="rgb(136,136,136)" stroke-width="2.1" />
      <line clip-path="url(#clipPath23)" fill="none" x1="1101" x2="125" y1="183" y2="183" stroke="rgb(136,136,136)" stroke-width="2.1" />
      <text x="358" y="180" clip-path="url(#clipPath26)" stroke="none" stroke-width="2.1" xml:space="preserve">oeAlert("witness","2017:11:26","10:45:00","+32145778","121,1422","Fire")</text>
      <line clip-path="url(#clipPath27)" fill="none" x1="132" x2="125" y1="180" y2="183" stroke="rgb(136,136,136)" stroke-width="2.1" />
      <line clip-path="url(#clipPath27)" fill="none" x1="125" x2="132" y1="183" y2="186" stroke="rgb(136,136,136)" stroke-width="2.1" />
      <line clip-path="url(#clipPath23)" fill="none" x1="1492" x2="125" y1="243" y2="243" stroke="rgb(136,136,136)" stroke-width="2.1" />
      <text x="616" y="230" clip-path="url(#clipPath28)" stroke="none" stroke-width="2.1" xml:space="preserve">oeSetCrisisExp("1","2","none")</text>
      <line clip-path="url(#clipPath29)" fill="none" x1="132" x2="125" y1="240" y2="243" stroke="rgb(136,136,136)" stroke-width="2.1" />
      <line clip-path="url(#clipPath29)" fill="none" x1="125" x2="132" y1="243" y2="246" stroke="rgb(136,136,136)" stroke-width="2.1" />
      <line clip-path="url(#clipPath23)" fill="none" x1="1492" x2="125" y1="363" y2="363" stroke="rgb(136,136,136)" stroke-width="2.1" />
      <text x="603" y="357" clip-path="url(#clipPath30)" stroke="none" stroke-width="2.1" xml:space="preserve">oeGetCrisisSet("pending","none")</text>
      <line clip-path="url(#clipPath31)" fill="none" x1="132" x2="125" y1="360" y2="363" stroke="rgb(136,136,136)" stroke-width="2.1" />
      <line clip-path="url(#clipPath31)" fill="none" x1="125" x2="132" y1="363" y2="366" stroke="rgb(136,136,136)" stroke-width="2.1" />
    </g>
    <g stroke-linecap="butt" font-size="28" fill="rgb(136,136,136)" font-family="'Lucida Sans Unicode'" stroke-dasharray="5,5" stroke="rgb(136,136,136)" stroke-width="2.1">
      <line clip-path="url(#clipPath23)" fill="none" x1="1492" x2="125" y1="303" y2="303" />
      <text x="671" y="289" clip-path="url(#clipPath32)" fill="black" stroke="none" xml:space="preserve">ieMessage(AMessage)</text>
      <line clip-path="url(#clipPath33)" fill="none" x1="1485" x2="1492" y1="306" y2="303" stroke-dasharray="none" />
      <line clip-path="url(#clipPath33)" fill="none" x1="1492" x2="1485" y1="303" y2="300" stroke-dasharray="none" />
      <line clip-path="url(#clipPath23)" fill="none" x1="1492" x2="125" y1="423" y2="423" />
      <text x="661" y="418" clip-path="url(#clipPath34)" fill="black" stroke="none" xml:space="preserve">ieSendACrisis(ActCrisis)</text>
      <line clip-path="url(#clipPath35)" fill="none" x1="1485" x2="1492" y1="426" y2="423" stroke-dasharray="none" />
      <line clip-path="url(#clipPath35)" fill="none" x1="1492" x2="1485" y1="423" y2="420" stroke-dasharray="none" />
    </g>
  </g>
</svg>

