<?xml version="1.0" encoding="UTF-8"?>
<svg xmlns="http://www.w3.org/2000/svg" xmlns:xlink="http://www.w3.org/1999/xlink" stroke-dasharray="none" shape-rendering="auto" font-family="'Dialog'" width="637" text-rendering="auto" fill-opacity="1" contentScriptType="text/ecmascript" color-interpolation="auto" color-rendering="auto" preserveAspectRatio="xMidYMid meet" font-size="12" viewBox="0 0 637 370" fill="black" stroke="black" image-rendering="auto" stroke-miterlimit="10" zoomAndPan="magnify" version="1.0" stroke-linecap="square" stroke-linejoin="miter" contentStyleType="text/css" font-style="normal" height="370" stroke-width="1" stroke-dashoffset="0" font-weight="normal" stroke-opacity="1">
  <!--Generated by the Batik Graphics2D SVG Generator-->
  <defs id="genericDefs" />
  <g>
    <defs id="defs1">
      <clipPath clipPathUnits="userSpaceOnUse" id="clipPath1">
        <path d="M9 9 L81 9 L81 41 L9 41 L9 9 Z" />
      </clipPath>
      <clipPath clipPathUnits="userSpaceOnUse" id="clipPath2">
        <path d="M9 9 L86 9 L86 41 L9 41 L9 9 Z" />
      </clipPath>
      <clipPath clipPathUnits="userSpaceOnUse" id="clipPath3">
        <path d="M39 39 L51 39 L51 361 L39 361 L39 39 Z" />
      </clipPath>
      <clipPath clipPathUnits="userSpaceOnUse" id="clipPath4">
        <path d="M476 9 L628 9 L628 61 L476 61 L476 9 Z" />
      </clipPath>
      <clipPath clipPathUnits="userSpaceOnUse" id="clipPath5">
        <path d="M476 9 L631 9 L631 61 L476 61 L476 9 Z" />
      </clipPath>
      <clipPath clipPathUnits="userSpaceOnUse" id="clipPath6">
        <path d="M476 9 L632 9 L632 61 L476 61 L476 9 Z" />
      </clipPath>
      <clipPath clipPathUnits="userSpaceOnUse" id="clipPath7">
        <path d="M546 59 L558 59 L558 361 L546 361 L546 59 Z" />
      </clipPath>
      <clipPath clipPathUnits="userSpaceOnUse" id="clipPath8">
        <path d="M541 89 L563 89 L563 131 L541 131 L541 89 Z" />
      </clipPath>
      <clipPath clipPathUnits="userSpaceOnUse" id="clipPath9">
        <path d="M562 89 L624 89 L624 113 L562 113 L562 89 Z" />
      </clipPath>
      <clipPath clipPathUnits="userSpaceOnUse" id="clipPath10">
        <path d="M541 209 L563 209 L563 251 L541 251 L541 209 Z" />
      </clipPath>
      <clipPath clipPathUnits="userSpaceOnUse" id="clipPath11">
        <path d="M562 209 L624 209 L624 233 L562 233 L562 209 Z" />
      </clipPath>
      <clipPath clipPathUnits="userSpaceOnUse" id="clipPath12">
        <path d="M541 149 L563 149 L563 191 L541 191 L541 149 Z" />
      </clipPath>
      <clipPath clipPathUnits="userSpaceOnUse" id="clipPath13">
        <path d="M562 149 L611 149 L611 173 L562 173 L562 149 Z" />
      </clipPath>
      <clipPath clipPathUnits="userSpaceOnUse" id="clipPath14">
        <path d="M541 269 L563 269 L563 311 L541 311 L541 269 Z" />
      </clipPath>
      <clipPath clipPathUnits="userSpaceOnUse" id="clipPath15">
        <path d="M562 269 L611 269 L611 293 L562 293 L562 269 Z" />
      </clipPath>
      <clipPath clipPathUnits="userSpaceOnUse" id="clipPath16">
        <path d="M-1 -1 L638 -1 L638 371 L-1 371 L-1 -1 Z" />
      </clipPath>
      <clipPath clipPathUnits="userSpaceOnUse" id="clipPath17">
        <path d="M124 68 L469 68 L469 92 L124 92 L124 68 Z" />
      </clipPath>
      <clipPath clipPathUnits="userSpaceOnUse" id="clipPath18">
        <path d="M43 85 L55 85 L55 96 L43 96 L43 85 Z" />
      </clipPath>
      <clipPath clipPathUnits="userSpaceOnUse" id="clipPath19">
        <path d="M243 188 L350 188 L350 212 L243 212 L243 188 Z" />
      </clipPath>
      <clipPath clipPathUnits="userSpaceOnUse" id="clipPath20">
        <path d="M43 205 L55 205 L55 216 L43 216 L43 205 Z" />
      </clipPath>
      <clipPath clipPathUnits="userSpaceOnUse" id="clipPath21">
        <path d="M104 128 L489 128 L489 152 L104 152 L104 128 Z" />
      </clipPath>
      <clipPath clipPathUnits="userSpaceOnUse" id="clipPath22">
        <path d="M533 145 L545 145 L545 156 L533 156 L533 145 Z" />
      </clipPath>
      <clipPath clipPathUnits="userSpaceOnUse" id="clipPath23">
        <path d="M83 248 L509 248 L509 272 L83 272 L83 248 Z" />
      </clipPath>
      <clipPath clipPathUnits="userSpaceOnUse" id="clipPath24">
        <path d="M533 265 L545 265 L545 276 L533 276 L533 265 Z" />
      </clipPath>
    </defs>
    <g font-size="11" fill="rgb(238,201,142)" font-family="'Lucida Sans'" stroke-linejoin="round" stroke="rgb(238,201,142)" stroke-width="0" stroke-miterlimit="0">
      <rect x="10" y="10" clip-path="url(#clipPath1)" width="70" height="30" stroke="none" />
    </g>
    <g stroke-width="0.1" font-size="11" font-family="'Lucida Sans'" stroke-linecap="butt">
      <rect x="10" y="10" clip-path="url(#clipPath1)" fill="none" width="69" height="29" />
      <text x="12" font-size="19" y="33" clip-path="url(#clipPath2)" stroke="none" xml:space="preserve">System</text>
      <line clip-path="url(#clipPath3)" fill="none" x1="44" x2="44" y1="40" y2="360" stroke-dasharray="10,10" stroke-width="1.1" />
    </g>
    <g stroke-linecap="butt" font-size="11" fill="rgb(255,245,181)" font-family="'Lucida Sans'" stroke-dasharray="10,10" stroke="rgb(255,245,181)" stroke-width="1.1">
      <rect x="477" y="10" clip-path="url(#clipPath4)" width="150" height="50" stroke="none" />
    </g>
    <g stroke-width="0.1" font-size="11" font-family="'Lucida Sans'" stroke-linecap="butt">
      <rect x="477" y="10" clip-path="url(#clipPath4)" fill="none" width="149" height="49" />
      <text x="536" font-size="19" y="21" clip-path="url(#clipPath5)" stroke="none" xml:space="preserve">bill</text>
      <text x="545" font-size="19" y="43" clip-path="url(#clipPath5)" stroke="none" xml:space="preserve">: </text>
      <text x="478" font-size="19" y="65" clip-path="url(#clipPath6)" stroke="none" xml:space="preserve">actAuthentica...</text>
      <line clip-path="url(#clipPath7)" fill="none" x1="551" x2="551" y1="60" y2="360" stroke-dasharray="10,10" stroke-width="1.1" />
    </g>
    <g stroke-linecap="butt" font-size="11" fill="rgb(39,76,114)" font-family="'Lucida Sans'" stroke-dasharray="10,10" stroke="rgb(39,76,114)" stroke-width="1.1">
      <rect x="542" y="90" clip-path="url(#clipPath8)" width="20" height="40" stroke="none" />
      <rect x="542" y="90" clip-path="url(#clipPath8)" fill="none" width="19" stroke-dasharray="none" height="39" stroke-width="0.1" />
    </g>
    <g stroke-width="0.1" font-size="19" font-family="'Lucida Sans'" stroke-linecap="butt">
      <text xml:space="preserve" x="563" y="109" clip-path="url(#clipPath9)" stroke="none">out01</text>
      <rect x="542" y="210" clip-path="url(#clipPath10)" fill="rgb(39,76,114)" width="20" height="40" stroke="none" />
      <rect x="542" y="210" clip-path="url(#clipPath10)" fill="none" width="19" height="39" stroke="rgb(39,76,114)" />
      <text xml:space="preserve" x="563" y="229" clip-path="url(#clipPath11)" stroke="none">out02</text>
      <rect x="542" y="150" clip-path="url(#clipPath12)" fill="rgb(194,239,255)" width="20" height="40" stroke="none" />
      <rect x="542" y="150" clip-path="url(#clipPath12)" fill="none" width="19" height="39" stroke="rgb(194,239,255)" />
      <text xml:space="preserve" x="563" y="169" clip-path="url(#clipPath13)" stroke="none">in01</text>
      <rect x="542" y="270" clip-path="url(#clipPath14)" fill="rgb(194,239,255)" width="20" height="40" stroke="none" />
      <rect x="542" y="270" clip-path="url(#clipPath14)" fill="none" width="19" height="39" stroke="rgb(194,239,255)" />
      <text xml:space="preserve" x="563" y="289" clip-path="url(#clipPath15)" stroke="none">in02</text>
      <line clip-path="url(#clipPath16)" fill="none" x1="542" x2="45" y1="90" y2="90" stroke="rgb(136,136,136)" stroke-width="2.1" />
      <text x="125" y="88" clip-path="url(#clipPath17)" stroke="none" stroke-width="2.1" xml:space="preserve">oeLogin("icrashadmin","7WXC1359")</text>
      <line clip-path="url(#clipPath18)" fill="none" x1="52" x2="45" y1="87" y2="90" stroke="rgb(136,136,136)" stroke-width="2.1" />
      <line clip-path="url(#clipPath18)" fill="none" x1="45" x2="52" y1="90" y2="93" stroke="rgb(136,136,136)" stroke-width="2.1" />
      <line clip-path="url(#clipPath16)" fill="none" x1="542" x2="45" y1="210" y2="210" stroke="rgb(136,136,136)" stroke-width="2.1" />
      <text x="244" y="208" clip-path="url(#clipPath19)" stroke="none" stroke-width="2.1" xml:space="preserve">oeLogout()</text>
      <line clip-path="url(#clipPath20)" fill="none" x1="52" x2="45" y1="207" y2="210" stroke="rgb(136,136,136)" stroke-width="2.1" />
      <line clip-path="url(#clipPath20)" fill="none" x1="45" x2="52" y1="210" y2="213" stroke="rgb(136,136,136)" stroke-width="2.1" />
    </g>
    <g stroke-linecap="butt" font-size="19" fill="rgb(136,136,136)" font-family="'Lucida Sans'" stroke-dasharray="5,5" stroke="rgb(136,136,136)" stroke-width="2.1">
      <line clip-path="url(#clipPath16)" fill="none" x1="542" x2="45" y1="150" y2="150" />
      <text x="105" y="148" clip-path="url(#clipPath21)" fill="black" stroke="none" xml:space="preserve">ieMessage(You are logged ! Welcome ...)</text>
      <line clip-path="url(#clipPath22)" fill="none" x1="535" x2="542" y1="153" y2="150" stroke-dasharray="none" />
      <line clip-path="url(#clipPath22)" fill="none" x1="542" x2="535" y1="150" y2="147" stroke-dasharray="none" />
      <line clip-path="url(#clipPath16)" fill="none" x1="542" x2="45" y1="270" y2="270" />
      <text x="84" y="268" clip-path="url(#clipPath23)" fill="black" stroke="none" xml:space="preserve">ieMessage(You are logged out ! Good Bye ...)</text>
      <line clip-path="url(#clipPath24)" fill="none" x1="535" x2="542" y1="273" y2="270" stroke-dasharray="none" />
      <line clip-path="url(#clipPath24)" fill="none" x1="542" x2="535" y1="270" y2="267" stroke-dasharray="none" />
    </g>
  </g>
</svg>

