<?xml version="1.0" encoding="UTF-8"?>
<svg xmlns="http://www.w3.org/2000/svg" xmlns:xlink="http://www.w3.org/1999/xlink" stroke-dasharray="none" shape-rendering="auto" font-family="'Dialog'" width="686" text-rendering="auto" fill-opacity="1" contentScriptType="text/ecmascript" color-interpolation="auto" color-rendering="auto" preserveAspectRatio="xMidYMid meet" font-size="12" viewBox="0 0 686 370" fill="black" stroke="black" image-rendering="auto" stroke-miterlimit="10" zoomAndPan="magnify" version="1.0" stroke-linecap="square" stroke-linejoin="miter" contentStyleType="text/css" font-style="normal" height="370" stroke-width="1" stroke-dashoffset="0" font-weight="normal" stroke-opacity="1">
  <!--Generated by the Batik Graphics2D SVG Generator-->
  <defs id="genericDefs" />
  <g>
    <defs id="defs1">
      <clipPath clipPathUnits="userSpaceOnUse" id="clipPath1">
        <path d="M42 9 L114 9 L114 41 L42 41 L42 9 Z" />
      </clipPath>
      <clipPath clipPathUnits="userSpaceOnUse" id="clipPath2">
        <path d="M72 39 L84 39 L84 361 L72 361 L72 39 Z" />
      </clipPath>
      <clipPath clipPathUnits="userSpaceOnUse" id="clipPath3">
        <path d="M509 9 L661 9 L661 61 L509 61 L509 9 Z" />
      </clipPath>
      <clipPath clipPathUnits="userSpaceOnUse" id="clipPath4">
        <path d="M509 9 L666 9 L666 61 L509 61 L509 9 Z" />
      </clipPath>
      <clipPath clipPathUnits="userSpaceOnUse" id="clipPath5">
        <path d="M509 9 L667 9 L667 61 L509 61 L509 9 Z" />
      </clipPath>
      <clipPath clipPathUnits="userSpaceOnUse" id="clipPath6">
        <path d="M579 59 L591 59 L591 361 L579 361 L579 59 Z" />
      </clipPath>
      <clipPath clipPathUnits="userSpaceOnUse" id="clipPath7">
        <path d="M574 89 L596 89 L596 131 L574 131 L574 89 Z" />
      </clipPath>
      <clipPath clipPathUnits="userSpaceOnUse" id="clipPath8">
        <path d="M595 89 L685 89 L685 124 L595 124 L595 89 Z" />
      </clipPath>
      <clipPath clipPathUnits="userSpaceOnUse" id="clipPath9">
        <path d="M574 209 L596 209 L596 251 L574 251 L574 209 Z" />
      </clipPath>
      <clipPath clipPathUnits="userSpaceOnUse" id="clipPath10">
        <path d="M595 209 L685 209 L685 244 L595 244 L595 209 Z" />
      </clipPath>
      <clipPath clipPathUnits="userSpaceOnUse" id="clipPath11">
        <path d="M574 149 L596 149 L596 191 L574 191 L574 149 Z" />
      </clipPath>
      <clipPath clipPathUnits="userSpaceOnUse" id="clipPath12">
        <path d="M595 149 L665 149 L665 184 L595 184 L595 149 Z" />
      </clipPath>
      <clipPath clipPathUnits="userSpaceOnUse" id="clipPath13">
        <path d="M574 269 L596 269 L596 311 L574 311 L574 269 Z" />
      </clipPath>
      <clipPath clipPathUnits="userSpaceOnUse" id="clipPath14">
        <path d="M595 269 L665 269 L665 304 L595 304 L595 269 Z" />
      </clipPath>
      <clipPath clipPathUnits="userSpaceOnUse" id="clipPath15">
        <path d="M-1 -1 L687 -1 L687 371 L-1 371 L-1 -1 Z" />
      </clipPath>
      <clipPath clipPathUnits="userSpaceOnUse" id="clipPath16">
        <path d="M82 63 L579 63 L579 98 L82 98 L82 63 Z" />
      </clipPath>
      <clipPath clipPathUnits="userSpaceOnUse" id="clipPath17">
        <path d="M76 85 L88 85 L88 96 L76 96 L76 85 Z" />
      </clipPath>
      <clipPath clipPathUnits="userSpaceOnUse" id="clipPath18">
        <path d="M254 183 L407 183 L407 218 L254 218 L254 183 Z" />
      </clipPath>
      <clipPath clipPathUnits="userSpaceOnUse" id="clipPath19">
        <path d="M76 205 L88 205 L88 216 L76 216 L76 205 Z" />
      </clipPath>
      <clipPath clipPathUnits="userSpaceOnUse" id="clipPath20">
        <path d="M53 123 L608 123 L608 158 L53 158 L53 123 Z" />
      </clipPath>
      <clipPath clipPathUnits="userSpaceOnUse" id="clipPath21">
        <path d="M566 145 L578 145 L578 156 L566 156 L566 145 Z" />
      </clipPath>
      <clipPath clipPathUnits="userSpaceOnUse" id="clipPath22">
        <path d="M23 243 L637 243 L637 278 L23 278 L23 243 Z" />
      </clipPath>
      <clipPath clipPathUnits="userSpaceOnUse" id="clipPath23">
        <path d="M566 265 L578 265 L578 276 L566 276 L566 265 Z" />
      </clipPath>
    </defs>
    <g font-size="16" fill="rgb(238,201,142)" font-family="'Lucida Sans'" stroke-linejoin="round" stroke="rgb(238,201,142)" stroke-width="0" stroke-miterlimit="0">
      <rect x="43" y="10" clip-path="url(#clipPath1)" width="70" height="30" stroke="none" />
    </g>
    <g stroke-width="0.1" font-size="16" font-family="'Lucida Sans'" stroke-linecap="butt">
      <rect x="43" y="10" clip-path="url(#clipPath1)" fill="none" width="69" height="29" />
      <line clip-path="url(#clipPath2)" fill="none" x1="77" x2="77" y1="40" y2="360" stroke-dasharray="10,10" stroke-width="1.1" />
    </g>
    <g stroke-linecap="butt" font-size="16" fill="rgb(255,245,181)" font-family="'Lucida Sans'" stroke-dasharray="10,10" stroke="rgb(255,245,181)" stroke-width="1.1">
      <rect x="510" y="10" clip-path="url(#clipPath3)" width="150" height="50" stroke="none" />
    </g>
    <g stroke-width="0.1" font-size="16" font-family="'Lucida Sans'" stroke-linecap="butt">
      <rect x="510" y="10" clip-path="url(#clipPath3)" fill="none" width="149" height="49" />
      <text x="563" font-size="28" y="29" clip-path="url(#clipPath4)" stroke="none" xml:space="preserve">bill</text>
      <text x="511" font-size="28" y="62" clip-path="url(#clipPath5)" stroke="none" xml:space="preserve">: actAuth...</text>
      <line clip-path="url(#clipPath6)" fill="none" x1="584" x2="584" y1="60" y2="360" stroke-dasharray="10,10" stroke-width="1.1" />
    </g>
    <g stroke-linecap="butt" font-size="16" fill="rgb(39,76,114)" font-family="'Lucida Sans'" stroke-dasharray="10,10" stroke="rgb(39,76,114)" stroke-width="1.1">
      <rect x="575" y="90" clip-path="url(#clipPath7)" width="20" height="40" stroke="none" />
      <rect x="575" y="90" clip-path="url(#clipPath7)" fill="none" width="19" stroke-dasharray="none" height="39" stroke-width="0.1" />
    </g>
    <g stroke-width="0.1" font-size="28" font-family="'Lucida Sans'" stroke-linecap="butt">
      <text xml:space="preserve" x="596" y="117" clip-path="url(#clipPath8)" stroke="none">out01</text>
      <rect x="575" y="210" clip-path="url(#clipPath9)" fill="rgb(39,76,114)" width="20" height="40" stroke="none" />
      <rect x="575" y="210" clip-path="url(#clipPath9)" fill="none" width="19" height="39" stroke="rgb(39,76,114)" />
      <text xml:space="preserve" x="596" y="237" clip-path="url(#clipPath10)" stroke="none">out02</text>
      <rect x="575" y="150" clip-path="url(#clipPath11)" fill="rgb(194,239,255)" width="20" height="40" stroke="none" />
      <rect x="575" y="150" clip-path="url(#clipPath11)" fill="none" width="19" height="39" stroke="rgb(194,239,255)" />
      <text xml:space="preserve" x="596" y="177" clip-path="url(#clipPath12)" stroke="none">in01</text>
      <rect x="575" y="270" clip-path="url(#clipPath13)" fill="rgb(194,239,255)" width="20" height="40" stroke="none" />
      <rect x="575" y="270" clip-path="url(#clipPath13)" fill="none" width="19" height="39" stroke="rgb(194,239,255)" />
      <text xml:space="preserve" x="596" y="297" clip-path="url(#clipPath14)" stroke="none">in02</text>
      <line clip-path="url(#clipPath15)" fill="none" x1="575" x2="78" y1="90" y2="90" stroke="rgb(136,136,136)" stroke-width="2.1" />
      <text x="83" y="91" clip-path="url(#clipPath16)" stroke="none" stroke-width="2.1" xml:space="preserve">oeLogin("icrashadmin","7WXC1359")</text>
      <line clip-path="url(#clipPath17)" fill="none" x1="85" x2="78" y1="87" y2="90" stroke="rgb(136,136,136)" stroke-width="2.1" />
      <line clip-path="url(#clipPath17)" fill="none" x1="78" x2="85" y1="90" y2="93" stroke="rgb(136,136,136)" stroke-width="2.1" />
      <line clip-path="url(#clipPath15)" fill="none" x1="575" x2="78" y1="210" y2="210" stroke="rgb(136,136,136)" stroke-width="2.1" />
      <text x="255" y="211" clip-path="url(#clipPath18)" stroke="none" stroke-width="2.1" xml:space="preserve">oeLogout()</text>
      <line clip-path="url(#clipPath19)" fill="none" x1="85" x2="78" y1="207" y2="210" stroke="rgb(136,136,136)" stroke-width="2.1" />
      <line clip-path="url(#clipPath19)" fill="none" x1="78" x2="85" y1="210" y2="213" stroke="rgb(136,136,136)" stroke-width="2.1" />
    </g>
    <g stroke-linecap="butt" font-size="28" fill="rgb(136,136,136)" font-family="'Lucida Sans'" stroke-dasharray="5,5" stroke="rgb(136,136,136)" stroke-width="2.1">
      <line clip-path="url(#clipPath15)" fill="none" x1="575" x2="78" y1="150" y2="150" />
      <text x="54" y="151" clip-path="url(#clipPath20)" fill="black" stroke="none" xml:space="preserve">ieMessage(You are logged ! Welcome ...)</text>
      <line clip-path="url(#clipPath21)" fill="none" x1="568" x2="575" y1="153" y2="150" stroke-dasharray="none" />
      <line clip-path="url(#clipPath21)" fill="none" x1="575" x2="568" y1="150" y2="147" stroke-dasharray="none" />
      <line clip-path="url(#clipPath15)" fill="none" x1="575" x2="78" y1="270" y2="270" />
      <text x="24" y="271" clip-path="url(#clipPath22)" fill="black" stroke="none" xml:space="preserve">ieMessage(You are logged out ! Good Bye ...)</text>
      <line clip-path="url(#clipPath23)" fill="none" x1="568" x2="575" y1="273" y2="270" stroke-dasharray="none" />
      <line clip-path="url(#clipPath23)" fill="none" x1="575" x2="568" y1="270" y2="267" stroke-dasharray="none" />
    </g>
  </g>
</svg>

