<?xml version="1.0" encoding="UTF-8"?>
<svg xmlns="http://www.w3.org/2000/svg" xmlns:xlink="http://www.w3.org/1999/xlink" stroke-dasharray="none" shape-rendering="auto" font-family="'Dialog'" width="1424" text-rendering="auto" fill-opacity="1" contentScriptType="text/ecmascript" color-interpolation="auto" color-rendering="auto" preserveAspectRatio="xMidYMid meet" font-size="12" viewBox="0 0 1424 1311" fill="black" stroke="black" image-rendering="auto" stroke-miterlimit="10" zoomAndPan="magnify" version="1.0" stroke-linecap="square" stroke-linejoin="miter" contentStyleType="text/css" font-style="normal" height="1311" stroke-width="1" stroke-dashoffset="0" font-weight="normal" stroke-opacity="1">
  <!--Generated by the Batik Graphics2D SVG Generator-->
  <defs id="genericDefs" />
  <g>
    <defs id="defs1">
      <clipPath clipPathUnits="userSpaceOnUse" id="clipPath1">
        <path d="M838 9 L957 9 L957 61 L838 61 L838 9 Z" />
      </clipPath>
      <clipPath clipPathUnits="userSpaceOnUse" id="clipPath2">
        <path d="M838 9 L964 9 L964 61 L838 61 L838 9 Z" />
      </clipPath>
      <clipPath clipPathUnits="userSpaceOnUse" id="clipPath3">
        <path d="M838 9 L962 9 L962 61 L838 61 L838 9 Z" />
      </clipPath>
      <clipPath clipPathUnits="userSpaceOnUse" id="clipPath4">
        <path d="M891 59 L903 59 L903 1302 L891 1302 L891 59 Z" />
      </clipPath>
      <clipPath clipPathUnits="userSpaceOnUse" id="clipPath5">
        <path d="M886 89 L908 89 L908 131 L886 131 L886 89 Z" />
      </clipPath>
      <clipPath clipPathUnits="userSpaceOnUse" id="clipPath6">
        <path d="M907 89 L983 89 L983 124 L907 124 L907 89 Z" />
      </clipPath>
      <clipPath clipPathUnits="userSpaceOnUse" id="clipPath7">
        <path d="M886 209 L908 209 L908 251 L886 251 L886 209 Z" />
      </clipPath>
      <clipPath clipPathUnits="userSpaceOnUse" id="clipPath8">
        <path d="M907 209 L983 209 L983 244 L907 244 L907 209 Z" />
      </clipPath>
      <clipPath clipPathUnits="userSpaceOnUse" id="clipPath9">
        <path d="M886 329 L908 329 L908 371 L886 371 L886 329 Z" />
      </clipPath>
      <clipPath clipPathUnits="userSpaceOnUse" id="clipPath10">
        <path d="M907 329 L983 329 L983 364 L907 364 L907 329 Z" />
      </clipPath>
      <clipPath clipPathUnits="userSpaceOnUse" id="clipPath11">
        <path d="M886 570 L908 570 L908 612 L886 612 L886 570 Z" />
      </clipPath>
      <clipPath clipPathUnits="userSpaceOnUse" id="clipPath12">
        <path d="M907 570 L983 570 L983 605 L907 605 L907 570 Z" />
      </clipPath>
      <clipPath clipPathUnits="userSpaceOnUse" id="clipPath13">
        <path d="M886 910 L908 910 L908 952 L886 952 L886 910 Z" />
      </clipPath>
      <clipPath clipPathUnits="userSpaceOnUse" id="clipPath14">
        <path d="M907 910 L983 910 L983 945 L907 945 L907 910 Z" />
      </clipPath>
      <clipPath clipPathUnits="userSpaceOnUse" id="clipPath15">
        <path d="M886 1030 L908 1030 L908 1072 L886 1072 L886 1030 Z" />
      </clipPath>
      <clipPath clipPathUnits="userSpaceOnUse" id="clipPath16">
        <path d="M907 1030 L983 1030 L983 1065 L907 1065 L907 1030 Z" />
      </clipPath>
      <clipPath clipPathUnits="userSpaceOnUse" id="clipPath17">
        <path d="M886 1150 L908 1150 L908 1192 L886 1192 L886 1150 Z" />
      </clipPath>
      <clipPath clipPathUnits="userSpaceOnUse" id="clipPath18">
        <path d="M907 1150 L983 1150 L983 1185 L907 1185 L907 1150 Z" />
      </clipPath>
      <clipPath clipPathUnits="userSpaceOnUse" id="clipPath19">
        <path d="M886 139 L908 139 L908 181 L886 181 L886 139 Z" />
      </clipPath>
      <clipPath clipPathUnits="userSpaceOnUse" id="clipPath20">
        <path d="M907 139 L983 139 L983 174 L907 174 L907 139 Z" />
      </clipPath>
      <clipPath clipPathUnits="userSpaceOnUse" id="clipPath21">
        <path d="M886 257 L908 257 L908 299 L886 299 L886 257 Z" />
      </clipPath>
      <clipPath clipPathUnits="userSpaceOnUse" id="clipPath22">
        <path d="M907 257 L983 257 L983 292 L907 292 L907 257 Z" />
      </clipPath>
      <clipPath clipPathUnits="userSpaceOnUse" id="clipPath23">
        <path d="M886 443 L908 443 L908 485 L886 485 L886 443 Z" />
      </clipPath>
      <clipPath clipPathUnits="userSpaceOnUse" id="clipPath24">
        <path d="M907 443 L983 443 L983 478 L907 478 L907 443 Z" />
      </clipPath>
      <clipPath clipPathUnits="userSpaceOnUse" id="clipPath25">
        <path d="M886 630 L908 630 L908 672 L886 672 L886 630 Z" />
      </clipPath>
      <clipPath clipPathUnits="userSpaceOnUse" id="clipPath26">
        <path d="M907 630 L983 630 L983 665 L907 665 L907 630 Z" />
      </clipPath>
      <clipPath clipPathUnits="userSpaceOnUse" id="clipPath27">
        <path d="M886 970 L908 970 L908 1012 L886 1012 L886 970 Z" />
      </clipPath>
      <clipPath clipPathUnits="userSpaceOnUse" id="clipPath28">
        <path d="M907 970 L983 970 L983 1005 L907 1005 L907 970 Z" />
      </clipPath>
      <clipPath clipPathUnits="userSpaceOnUse" id="clipPath29">
        <path d="M886 1090 L908 1090 L908 1132 L886 1132 L886 1090 Z" />
      </clipPath>
      <clipPath clipPathUnits="userSpaceOnUse" id="clipPath30">
        <path d="M907 1090 L983 1090 L983 1125 L907 1125 L907 1090 Z" />
      </clipPath>
      <clipPath clipPathUnits="userSpaceOnUse" id="clipPath31">
        <path d="M886 1210 L908 1210 L908 1252 L886 1252 L886 1210 Z" />
      </clipPath>
      <clipPath clipPathUnits="userSpaceOnUse" id="clipPath32">
        <path d="M907 1210 L983 1210 L983 1245 L907 1245 L907 1210 Z" />
      </clipPath>
      <clipPath clipPathUnits="userSpaceOnUse" id="clipPath33">
        <path d="M700 9 L830 9 L830 61 L700 61 L700 9 Z" />
      </clipPath>
      <clipPath clipPathUnits="userSpaceOnUse" id="clipPath34">
        <path d="M700 9 L837 9 L837 61 L700 61 L700 9 Z" />
      </clipPath>
      <clipPath clipPathUnits="userSpaceOnUse" id="clipPath35">
        <path d="M700 9 L836 9 L836 61 L700 61 L700 9 Z" />
      </clipPath>
      <clipPath clipPathUnits="userSpaceOnUse" id="clipPath36">
        <path d="M759 59 L771 59 L771 1302 L759 1302 L759 59 Z" />
      </clipPath>
      <clipPath clipPathUnits="userSpaceOnUse" id="clipPath37">
        <path d="M754 714 L776 714 L776 756 L754 756 L754 714 Z" />
      </clipPath>
      <clipPath clipPathUnits="userSpaceOnUse" id="clipPath38">
        <path d="M775 714 L851 714 L851 749 L775 749 L775 714 Z" />
      </clipPath>
      <clipPath clipPathUnits="userSpaceOnUse" id="clipPath39">
        <path d="M754 398 L776 398 L776 440 L754 440 L754 398 Z" />
      </clipPath>
      <clipPath clipPathUnits="userSpaceOnUse" id="clipPath40">
        <path d="M775 398 L851 398 L851 433 L775 433 L775 398 Z" />
      </clipPath>
      <clipPath clipPathUnits="userSpaceOnUse" id="clipPath41">
        <path d="M754 790 L776 790 L776 832 L754 832 L754 790 Z" />
      </clipPath>
      <clipPath clipPathUnits="userSpaceOnUse" id="clipPath42">
        <path d="M775 790 L851 790 L851 825 L775 825 L775 790 Z" />
      </clipPath>
      <clipPath clipPathUnits="userSpaceOnUse" id="clipPath43">
        <path d="M965 9 L1084 9 L1084 61 L965 61 L965 9 Z" />
      </clipPath>
      <clipPath clipPathUnits="userSpaceOnUse" id="clipPath44">
        <path d="M965 9 L1090 9 L1090 61 L965 61 L965 9 Z" />
      </clipPath>
      <clipPath clipPathUnits="userSpaceOnUse" id="clipPath45">
        <path d="M1018 59 L1030 59 L1030 1302 L1018 1302 L1018 59 Z" />
      </clipPath>
      <clipPath clipPathUnits="userSpaceOnUse" id="clipPath46">
        <path d="M1013 518 L1035 518 L1035 560 L1013 560 L1013 518 Z" />
      </clipPath>
      <clipPath clipPathUnits="userSpaceOnUse" id="clipPath47">
        <path d="M1034 518 L1110 518 L1110 553 L1034 553 L1034 518 Z" />
      </clipPath>
      <clipPath clipPathUnits="userSpaceOnUse" id="clipPath48">
        <path d="M1013 850 L1035 850 L1035 892 L1013 892 L1013 850 Z" />
      </clipPath>
      <clipPath clipPathUnits="userSpaceOnUse" id="clipPath49">
        <path d="M1034 850 L1110 850 L1110 885 L1034 885 L1034 850 Z" />
      </clipPath>
      <clipPath clipPathUnits="userSpaceOnUse" id="clipPath50">
        <path d="M287 9 L359 9 L359 41 L287 41 L287 9 Z" />
      </clipPath>
      <clipPath clipPathUnits="userSpaceOnUse" id="clipPath51">
        <path d="M317 39 L329 39 L329 1302 L317 1302 L317 39 Z" />
      </clipPath>
      <clipPath clipPathUnits="userSpaceOnUse" id="clipPath52">
        <path d="M-1 -1 L1425 -1 L1425 1312 L-1 1312 L-1 -1 Z" />
      </clipPath>
      <clipPath clipPathUnits="userSpaceOnUse" id="clipPath53">
        <path d="M332 63 L886 63 L886 98 L332 98 L332 63 Z" />
      </clipPath>
      <clipPath clipPathUnits="userSpaceOnUse" id="clipPath54">
        <path d="M321 85 L333 85 L333 96 L321 96 L321 85 Z" />
      </clipPath>
      <clipPath clipPathUnits="userSpaceOnUse" id="clipPath55">
        <path d="M387 179 L719 179 L719 214 L387 214 L387 179 Z" />
      </clipPath>
      <clipPath clipPathUnits="userSpaceOnUse" id="clipPath56">
        <path d="M321 205 L333 205 L333 216 L321 216 L321 205 Z" />
      </clipPath>
      <clipPath clipPathUnits="userSpaceOnUse" id="clipPath57">
        <path d="M394 298 L692 298 L692 333 L394 333 L394 298 Z" />
      </clipPath>
      <clipPath clipPathUnits="userSpaceOnUse" id="clipPath58">
        <path d="M321 325 L333 325 L333 336 L321 336 L321 325 Z" />
      </clipPath>
      <clipPath clipPathUnits="userSpaceOnUse" id="clipPath59">
        <path d="M272 485 L769 485 L769 520 L272 520 L272 485 Z" />
      </clipPath>
      <clipPath clipPathUnits="userSpaceOnUse" id="clipPath60">
        <path d="M321 514 L333 514 L333 525 L321 525 L321 514 Z" />
      </clipPath>
      <clipPath clipPathUnits="userSpaceOnUse" id="clipPath61">
        <path d="M407 539 L656 539 L656 574 L407 574 L407 539 Z" />
      </clipPath>
      <clipPath clipPathUnits="userSpaceOnUse" id="clipPath62">
        <path d="M321 566 L333 566 L333 577 L321 577 L321 566 Z" />
      </clipPath>
      <clipPath clipPathUnits="userSpaceOnUse" id="clipPath63">
        <path d="M319 663 L733 663 L733 726 L319 726 L319 663 Z" />
      </clipPath>
      <clipPath clipPathUnits="userSpaceOnUse" id="clipPath64">
        <path d="M321 710 L333 710 L333 721 L321 721 L321 710 Z" />
      </clipPath>
      <clipPath clipPathUnits="userSpaceOnUse" id="clipPath65">
        <path d="M267 817 L764 817 L764 852 L267 852 L267 817 Z" />
      </clipPath>
      <clipPath clipPathUnits="userSpaceOnUse" id="clipPath66">
        <path d="M321 846 L333 846 L333 857 L321 857 L321 846 Z" />
      </clipPath>
      <clipPath clipPathUnits="userSpaceOnUse" id="clipPath67">
        <path d="M376 879 L746 879 L746 914 L376 914 L376 879 Z" />
      </clipPath>
      <clipPath clipPathUnits="userSpaceOnUse" id="clipPath68">
        <path d="M321 906 L333 906 L333 917 L321 917 L321 906 Z" />
      </clipPath>
      <clipPath clipPathUnits="userSpaceOnUse" id="clipPath69">
        <path d="M146 1002 L1407 1002 L1407 1037 L146 1037 L146 1002 Z" />
      </clipPath>
      <clipPath clipPathUnits="userSpaceOnUse" id="clipPath70">
        <path d="M321 1026 L333 1026 L333 1037 L321 1037 L321 1026 Z" />
      </clipPath>
      <clipPath clipPathUnits="userSpaceOnUse" id="clipPath71">
        <path d="M406 1119 L631 1119 L631 1154 L406 1154 L406 1119 Z" />
      </clipPath>
      <clipPath clipPathUnits="userSpaceOnUse" id="clipPath72">
        <path d="M321 1146 L333 1146 L333 1157 L321 1157 L321 1146 Z" />
      </clipPath>
      <clipPath clipPathUnits="userSpaceOnUse" id="clipPath73">
        <path d="M323 108 L878 108 L878 143 L323 143 L323 108 Z" />
      </clipPath>
      <clipPath clipPathUnits="userSpaceOnUse" id="clipPath74">
        <path d="M878 135 L890 135 L890 146 L878 146 L878 135 Z" />
      </clipPath>
      <clipPath clipPathUnits="userSpaceOnUse" id="clipPath75">
        <path d="M335 228 L842 228 L842 263 L335 263 L335 228 Z" />
      </clipPath>
      <clipPath clipPathUnits="userSpaceOnUse" id="clipPath76">
        <path d="M878 253 L890 253 L890 264 L878 264 L878 253 Z" />
      </clipPath>
      <clipPath clipPathUnits="userSpaceOnUse" id="clipPath77">
        <path d="M23 367 L1234 367 L1234 402 L23 402 L23 367 Z" />
      </clipPath>
      <clipPath clipPathUnits="userSpaceOnUse" id="clipPath78">
        <path d="M746 394 L758 394 L758 405 L746 405 L746 394 Z" />
      </clipPath>
      <clipPath clipPathUnits="userSpaceOnUse" id="clipPath79">
        <path d="M266 408 L1069 408 L1069 443 L266 443 L266 408 Z" />
      </clipPath>
      <clipPath clipPathUnits="userSpaceOnUse" id="clipPath80">
        <path d="M878 439 L890 439 L890 450 L878 450 L878 439 Z" />
      </clipPath>
      <clipPath clipPathUnits="userSpaceOnUse" id="clipPath81">
        <path d="M303 603 L943 603 L943 638 L303 638 L303 603 Z" />
      </clipPath>
      <clipPath clipPathUnits="userSpaceOnUse" id="clipPath82">
        <path d="M878 626 L890 626 L890 637 L878 637 L878 626 Z" />
      </clipPath>
      <clipPath clipPathUnits="userSpaceOnUse" id="clipPath83">
        <path d="M746 786 L758 786 L758 797 L746 797 L746 786 Z" />
      </clipPath>
      <clipPath clipPathUnits="userSpaceOnUse" id="clipPath84">
        <path d="M301 937 L955 937 L955 972 L301 972 L301 937 Z" />
      </clipPath>
      <clipPath clipPathUnits="userSpaceOnUse" id="clipPath85">
        <path d="M878 966 L890 966 L890 977 L878 977 L878 966 Z" />
      </clipPath>
      <clipPath clipPathUnits="userSpaceOnUse" id="clipPath86">
        <path d="M288 1060 L989 1060 L989 1095 L288 1095 L288 1060 Z" />
      </clipPath>
      <clipPath clipPathUnits="userSpaceOnUse" id="clipPath87">
        <path d="M878 1086 L890 1086 L890 1097 L878 1097 L878 1086 Z" />
      </clipPath>
      <clipPath clipPathUnits="userSpaceOnUse" id="clipPath88">
        <path d="M336 1182 L841 1182 L841 1217 L336 1217 L336 1182 Z" />
      </clipPath>
      <clipPath clipPathUnits="userSpaceOnUse" id="clipPath89">
        <path d="M878 1206 L890 1206 L890 1217 L878 1217 L878 1206 Z" />
      </clipPath>
    </defs>
    <g font-size="28" fill="rgb(255,245,181)" font-family="'Lucida Sans'" stroke-linejoin="round" stroke="rgb(255,245,181)" stroke-width="0" stroke-miterlimit="0">
      <rect x="839" y="10" clip-path="url(#clipPath1)" width="117" height="50" stroke="none" />
    </g>
    <g stroke-width="0.1" font-size="28" font-family="'Lucida Sans'" stroke-linecap="butt">
      <rect x="839" y="10" clip-path="url(#clipPath1)" fill="none" width="116" height="49" />
      <text xml:space="preserve" x="862" y="29" clip-path="url(#clipPath2)" stroke="none">steve</text>
      <text xml:space="preserve" x="846" y="62" clip-path="url(#clipPath3)" stroke="none">: actC...</text>
      <line clip-path="url(#clipPath4)" fill="none" x1="896" x2="896" y1="60" y2="1301" stroke-dasharray="10,10" stroke-width="1.1" />
    </g>
    <g stroke-linecap="butt" font-size="28" fill="rgb(77,137,20)" font-family="'Lucida Sans'" stroke-dasharray="10,10" stroke="rgb(77,137,20)" stroke-width="1.1">
      <rect x="887" y="90" clip-path="url(#clipPath5)" width="20" height="40" stroke="none" />
      <rect x="888" y="91" clip-path="url(#clipPath5)" fill="none" width="18" stroke-dasharray="none" height="38" stroke-width="2.1" />
      <text x="908" y="117" clip-path="url(#clipPath6)" stroke-dasharray="none" stroke="none" stroke-width="2.1" xml:space="preserve">tsi10</text>
      <rect x="887" y="210" clip-path="url(#clipPath7)" width="20" stroke-dasharray="none" height="40" stroke="none" stroke-width="2.1" />
      <rect x="888" y="211" clip-path="url(#clipPath7)" fill="none" width="18" stroke-dasharray="none" height="38" stroke-width="2.1" />
      <text x="908" y="237" clip-path="url(#clipPath8)" stroke-dasharray="none" stroke="none" stroke-width="2.1" xml:space="preserve">tsi11</text>
      <rect x="887" y="330" clip-path="url(#clipPath9)" width="20" stroke-dasharray="none" height="40" stroke="none" stroke-width="2.1" />
      <rect x="888" y="331" clip-path="url(#clipPath9)" fill="none" width="18" stroke-dasharray="none" height="38" stroke-width="2.1" />
      <text x="908" y="357" clip-path="url(#clipPath10)" stroke-dasharray="none" stroke="none" stroke-width="2.1" xml:space="preserve">tsi12</text>
      <rect x="887" y="571" clip-path="url(#clipPath11)" width="20" stroke-dasharray="none" height="40" stroke="none" stroke-width="2.1" />
      <rect x="888" y="572" clip-path="url(#clipPath11)" fill="none" width="18" stroke-dasharray="none" height="38" stroke-width="2.1" />
      <text x="908" y="598" clip-path="url(#clipPath12)" stroke-dasharray="none" stroke="none" stroke-width="2.1" xml:space="preserve">tsi14</text>
      <rect x="887" y="911" clip-path="url(#clipPath13)" width="20" stroke-dasharray="none" height="40" stroke="none" stroke-width="2.1" />
      <rect x="888" y="912" clip-path="url(#clipPath13)" fill="none" width="18" stroke-dasharray="none" height="38" stroke-width="2.1" />
      <text x="908" y="938" clip-path="url(#clipPath14)" stroke-dasharray="none" stroke="none" stroke-width="2.1" xml:space="preserve">tsi17</text>
      <rect x="887" y="1031" clip-path="url(#clipPath15)" width="20" stroke-dasharray="none" height="40" stroke="none" stroke-width="2.1" />
      <rect x="888" y="1032" clip-path="url(#clipPath15)" fill="none" width="18" stroke-dasharray="none" height="38" stroke-width="2.1" />
      <text x="908" y="1058" clip-path="url(#clipPath16)" stroke-dasharray="none" stroke="none" stroke-width="2.1" xml:space="preserve">tsi18</text>
      <rect x="887" y="1151" clip-path="url(#clipPath17)" width="20" stroke-dasharray="none" height="40" stroke="none" stroke-width="2.1" />
      <rect x="888" y="1152" clip-path="url(#clipPath17)" fill="none" width="18" stroke-dasharray="none" height="38" stroke-width="2.1" />
      <text x="908" y="1178" clip-path="url(#clipPath18)" stroke-dasharray="none" stroke="none" stroke-width="2.1" xml:space="preserve">tsi19</text>
    </g>
    <g stroke-linecap="butt" font-size="28" fill="rgb(204,242,166)" font-family="'Lucida Sans'" stroke="rgb(204,242,166)" stroke-width="2.1">
      <rect x="887" y="140" clip-path="url(#clipPath19)" width="20" height="40" stroke="none" />
      <rect x="887" y="140" clip-path="url(#clipPath19)" fill="none" width="19" height="39" stroke="rgb(209,209,209)" stroke-width="0.1" />
      <text x="908" y="167" clip-path="url(#clipPath20)" fill="rgb(77,137,20)" stroke="none" stroke-width="0.1" xml:space="preserve">tsi10</text>
      <rect x="887" y="258" clip-path="url(#clipPath21)" width="20" height="40" stroke="none" stroke-width="0.1" />
      <rect x="887" y="258" clip-path="url(#clipPath21)" fill="none" width="19" height="39" stroke="rgb(209,209,209)" stroke-width="0.1" />
      <text x="908" y="285" clip-path="url(#clipPath22)" fill="rgb(77,137,20)" stroke="none" stroke-width="0.1" xml:space="preserve">tsi11</text>
      <rect x="887" y="444" clip-path="url(#clipPath23)" width="20" height="40" stroke="none" stroke-width="0.1" />
      <rect x="887" y="444" clip-path="url(#clipPath23)" fill="none" width="19" height="39" stroke="rgb(209,209,209)" stroke-width="0.1" />
      <text x="908" y="471" clip-path="url(#clipPath24)" fill="rgb(77,137,20)" stroke="none" stroke-width="0.1" xml:space="preserve">tsi12</text>
      <rect x="887" y="631" clip-path="url(#clipPath25)" width="20" height="40" stroke="none" stroke-width="0.1" />
      <rect x="887" y="631" clip-path="url(#clipPath25)" fill="none" width="19" height="39" stroke="rgb(209,209,209)" stroke-width="0.1" />
      <text x="908" y="658" clip-path="url(#clipPath26)" fill="rgb(77,137,20)" stroke="none" stroke-width="0.1" xml:space="preserve">tsi14</text>
      <rect x="887" y="971" clip-path="url(#clipPath27)" width="20" height="40" stroke="none" stroke-width="0.1" />
      <rect x="887" y="971" clip-path="url(#clipPath27)" fill="none" width="19" height="39" stroke="rgb(209,209,209)" stroke-width="0.1" />
      <text x="908" y="998" clip-path="url(#clipPath28)" fill="rgb(77,137,20)" stroke="none" stroke-width="0.1" xml:space="preserve">tsi17</text>
      <rect x="887" y="1091" clip-path="url(#clipPath29)" width="20" height="40" stroke="none" stroke-width="0.1" />
      <rect x="887" y="1091" clip-path="url(#clipPath29)" fill="none" width="19" height="39" stroke="rgb(209,209,209)" stroke-width="0.1" />
      <text x="908" y="1118" clip-path="url(#clipPath30)" fill="rgb(77,137,20)" stroke="none" stroke-width="0.1" xml:space="preserve">tsi18</text>
      <rect x="887" y="1211" clip-path="url(#clipPath31)" width="20" height="40" stroke="none" stroke-width="0.1" />
      <rect x="887" y="1211" clip-path="url(#clipPath31)" fill="none" width="19" height="39" stroke="rgb(209,209,209)" stroke-width="0.1" />
      <text x="908" y="1238" clip-path="url(#clipPath32)" fill="rgb(77,137,20)" stroke="none" stroke-width="0.1" xml:space="preserve">tsi19</text>
      <rect x="701" y="10" clip-path="url(#clipPath33)" fill="rgb(255,245,181)" width="128" height="50" stroke="none" stroke-width="0.1" />
      <rect x="701" y="10" clip-path="url(#clipPath33)" fill="none" width="127" height="49" stroke="black" stroke-width="0.1" />
      <text x="727" y="29" clip-path="url(#clipPath34)" fill="black" stroke="none" stroke-width="0.1" xml:space="preserve">tango</text>
      <text x="705" y="62" clip-path="url(#clipPath35)" fill="black" stroke="none" stroke-width="0.1" xml:space="preserve">: actCo...</text>
    </g>
    <g stroke-width="1.1" font-size="28" stroke-dasharray="10,10" font-family="'Lucida Sans'" stroke-linecap="butt">
      <line clip-path="url(#clipPath36)" fill="none" x1="764" x2="764" y1="60" y2="1301" />
      <rect x="755" y="715" clip-path="url(#clipPath37)" fill="rgb(77,137,20)" width="20" height="40" stroke="none" />
    </g>
    <g stroke-linecap="butt" font-size="28" fill="rgb(77,137,20)" font-family="'Lucida Sans'" stroke="rgb(77,137,20)" stroke-width="2.1">
      <rect x="756" y="716" clip-path="url(#clipPath37)" fill="none" width="18" height="38" />
      <text xml:space="preserve" x="776" y="742" clip-path="url(#clipPath38)" stroke="none">tsi15</text>
      <rect x="755" y="399" clip-path="url(#clipPath39)" fill="rgb(204,242,166)" width="20" height="40" stroke="none" />
      <rect x="755" y="399" clip-path="url(#clipPath39)" fill="none" width="19" height="39" stroke="rgb(209,209,209)" stroke-width="0.1" />
      <text x="776" y="426" clip-path="url(#clipPath40)" stroke="none" stroke-width="0.1" xml:space="preserve">tsi12</text>
      <rect x="755" y="791" clip-path="url(#clipPath41)" fill="rgb(204,242,166)" width="20" height="40" stroke="none" stroke-width="0.1" />
      <rect x="755" y="791" clip-path="url(#clipPath41)" fill="none" width="19" height="39" stroke="rgb(209,209,209)" stroke-width="0.1" />
      <text x="776" y="818" clip-path="url(#clipPath42)" stroke="none" stroke-width="0.1" xml:space="preserve">tsi15</text>
      <rect x="966" y="10" clip-path="url(#clipPath43)" fill="rgb(255,245,181)" width="117" height="50" stroke="none" stroke-width="0.1" />
      <rect x="966" y="10" clip-path="url(#clipPath43)" fill="none" width="116" height="49" stroke="black" stroke-width="0.1" />
      <text x="967" y="29" clip-path="url(#clipPath44)" fill="black" stroke="none" stroke-width="0.1" xml:space="preserve">theClo...</text>
    </g>
    <g stroke-width="1.1" font-size="28" stroke-dasharray="10,10" font-family="'Lucida Sans'" stroke-linecap="butt">
      <line clip-path="url(#clipPath45)" fill="none" x1="1023" x2="1023" y1="60" y2="1301" />
      <rect x="1014" y="519" clip-path="url(#clipPath46)" fill="rgb(77,137,20)" width="20" height="40" stroke="none" />
    </g>
    <g stroke-linecap="butt" font-size="28" fill="rgb(77,137,20)" font-family="'Lucida Sans'" stroke="rgb(77,137,20)" stroke-width="2.1">
      <rect x="1015" y="520" clip-path="url(#clipPath46)" fill="none" width="18" height="38" />
      <text xml:space="preserve" x="1035" y="546" clip-path="url(#clipPath47)" stroke="none">tsi13</text>
      <rect x="1014" y="851" clip-path="url(#clipPath48)" width="20" height="40" stroke="none" />
      <rect x="1015" y="852" clip-path="url(#clipPath48)" fill="none" width="18" height="38" />
      <text xml:space="preserve" x="1035" y="878" clip-path="url(#clipPath49)" stroke="none">tsi16</text>
      <rect x="288" y="10" clip-path="url(#clipPath50)" fill="rgb(238,201,142)" width="70" height="30" stroke="none" />
      <rect x="288" y="10" clip-path="url(#clipPath50)" fill="none" width="69" height="29" stroke="black" stroke-width="0.1" />
    </g>
    <g stroke-width="1.1" font-size="28" stroke-dasharray="10,10" font-family="'Lucida Sans'" stroke-linecap="butt">
      <line clip-path="url(#clipPath51)" fill="none" x1="322" x2="322" y1="40" y2="1301" />
    </g>
    <g stroke-linecap="butt" font-size="28" fill="rgb(136,136,136)" font-family="'Lucida Sans'" stroke="rgb(136,136,136)" stroke-width="2.1">
      <line clip-path="url(#clipPath52)" fill="none" x1="887" x2="323" y1="90" y2="90" />
      <text x="333" y="91" clip-path="url(#clipPath53)" fill="black" stroke="none" xml:space="preserve">oeLogin(steve,pwdMessirExcalibur2017)</text>
      <line clip-path="url(#clipPath54)" fill="none" x1="330" x2="323" y1="87" y2="90" />
      <line clip-path="url(#clipPath54)" fill="none" x1="323" x2="330" y1="90" y2="93" />
      <line clip-path="url(#clipPath52)" fill="none" x1="887" x2="323" y1="210" y2="210" />
      <text x="388" y="207" clip-path="url(#clipPath55)" fill="black" stroke="none" xml:space="preserve">oeGetCrisisSet(pending)</text>
      <line clip-path="url(#clipPath56)" fill="none" x1="330" x2="323" y1="207" y2="210" />
      <line clip-path="url(#clipPath56)" fill="none" x1="323" x2="330" y1="210" y2="213" />
      <line clip-path="url(#clipPath52)" fill="none" x1="887" x2="323" y1="330" y2="330" />
      <text x="395" y="326" clip-path="url(#clipPath57)" fill="black" stroke="none" xml:space="preserve">oeSetCrisisHandler(1)</text>
      <line clip-path="url(#clipPath58)" fill="none" x1="330" x2="323" y1="327" y2="330" />
      <line clip-path="url(#clipPath58)" fill="none" x1="323" x2="330" y1="330" y2="333" />
      <line clip-path="url(#clipPath52)" fill="none" x1="1014" x2="323" y1="519" y2="519" />
      <text x="273" y="513" clip-path="url(#clipPath59)" fill="black" stroke="none" xml:space="preserve">oeSetClock(2017:11:26 - 10:45:00)</text>
      <line clip-path="url(#clipPath60)" fill="none" x1="330" x2="323" y1="516" y2="519" />
      <line clip-path="url(#clipPath60)" fill="none" x1="323" x2="330" y1="519" y2="522" />
      <line clip-path="url(#clipPath52)" fill="none" x1="887" x2="323" y1="571" y2="571" />
      <text x="408" y="567" clip-path="url(#clipPath61)" fill="black" stroke="none" xml:space="preserve">oeValidateAlert(1)</text>
      <line clip-path="url(#clipPath62)" fill="none" x1="330" x2="323" y1="568" y2="571" />
      <line clip-path="url(#clipPath62)" fill="none" x1="323" x2="330" y1="571" y2="574" />
      <line clip-path="url(#clipPath52)" fill="none" x1="755" x2="323" y1="715" y2="715" />
      <text x="320" y="705" clip-path="url(#clipPath63)" fill="black" stroke="none" xml:space="preserve">oeAlert(witness,2017:11:26...</text>
      <line clip-path="url(#clipPath64)" fill="none" x1="330" x2="323" y1="712" y2="715" />
      <line clip-path="url(#clipPath64)" fill="none" x1="323" x2="330" y1="715" y2="718" />
      <line clip-path="url(#clipPath52)" fill="none" x1="1014" x2="323" y1="851" y2="851" />
      <text x="268" y="845" clip-path="url(#clipPath65)" fill="black" stroke="none" xml:space="preserve">oeSetClock(2017:11:26 - 12:45:00)</text>
      <line clip-path="url(#clipPath66)" fill="none" x1="330" x2="323" y1="848" y2="851" />
      <line clip-path="url(#clipPath66)" fill="none" x1="323" x2="330" y1="851" y2="854" />
      <line clip-path="url(#clipPath52)" fill="none" x1="887" x2="323" y1="911" y2="911" />
      <text x="377" y="907" clip-path="url(#clipPath67)" fill="black" stroke="none" xml:space="preserve">oeSetCrisisStatus(1,solved)</text>
      <line clip-path="url(#clipPath68)" fill="none" x1="330" x2="323" y1="908" y2="911" />
      <line clip-path="url(#clipPath68)" fill="none" x1="323" x2="330" y1="911" y2="914" />
      <line clip-path="url(#clipPath52)" fill="none" x1="887" x2="323" y1="1031" y2="1031" />
      <text x="147" y="1030" clip-path="url(#clipPath69)" fill="black" stroke="none" xml:space="preserve">oeReportOnCrisis(1,3 victims sent to hospital, 2 cars evacuated and 4 rescue unit mobilized)</text>
      <line clip-path="url(#clipPath70)" fill="none" x1="330" x2="323" y1="1028" y2="1031" />
      <line clip-path="url(#clipPath70)" fill="none" x1="323" x2="330" y1="1031" y2="1034" />
      <line clip-path="url(#clipPath52)" fill="none" x1="887" x2="323" y1="1151" y2="1151" />
      <text x="407" y="1147" clip-path="url(#clipPath71)" fill="black" stroke="none" xml:space="preserve">oeCloseCrisis(1)</text>
      <line clip-path="url(#clipPath72)" fill="none" x1="330" x2="323" y1="1148" y2="1151" />
      <line clip-path="url(#clipPath72)" fill="none" x1="323" x2="330" y1="1151" y2="1154" />
      <line clip-path="url(#clipPath52)" fill="none" x1="887" x2="323" y1="140" y2="140" stroke-dasharray="5,5" />
      <text x="324" y="136" clip-path="url(#clipPath73)" fill="black" stroke-dasharray="5,5" stroke="none" xml:space="preserve">ieMessage(You are logged ! Welcome ...)</text>
      <line clip-path="url(#clipPath74)" fill="none" x1="880" x2="887" y1="143" y2="140" />
      <line clip-path="url(#clipPath74)" fill="none" x1="887" x2="880" y1="140" y2="137" />
      <line clip-path="url(#clipPath52)" fill="none" x1="887" x2="323" y1="258" y2="258" stroke-dasharray="5,5" />
      <text x="336" y="256" clip-path="url(#clipPath75)" fill="black" stroke-dasharray="5,5" stroke="none" xml:space="preserve">ieSendACrisis(crisis with ID 1 details)</text>
      <line clip-path="url(#clipPath76)" fill="none" x1="880" x2="887" y1="261" y2="258" />
      <line clip-path="url(#clipPath76)" fill="none" x1="887" x2="880" y1="258" y2="255" />
      <line clip-path="url(#clipPath52)" fill="none" x1="755" x2="323" y1="399" y2="399" stroke-dasharray="5,5" />
      <text x="24" y="395" clip-path="url(#clipPath77)" fill="black" stroke-dasharray="5,5" stroke="none" xml:space="preserve">ieSmsSend(+3524666445252,The handling of your alert by our services is in progress !)</text>
      <line clip-path="url(#clipPath78)" fill="none" x1="748" x2="755" y1="402" y2="399" />
      <line clip-path="url(#clipPath78)" fill="none" x1="755" x2="748" y1="399" y2="396" />
      <line clip-path="url(#clipPath52)" fill="none" x1="887" x2="323" y1="444" y2="444" stroke-dasharray="5,5" />
      <text x="267" y="436" clip-path="url(#clipPath79)" fill="black" stroke-dasharray="5,5" stroke="none" xml:space="preserve">ieMessage(You are now considered as handling the crisis !)</text>
      <line clip-path="url(#clipPath80)" fill="none" x1="880" x2="887" y1="447" y2="444" />
      <line clip-path="url(#clipPath80)" fill="none" x1="887" x2="880" y1="444" y2="441" />
      <line clip-path="url(#clipPath52)" fill="none" x1="887" x2="323" y1="631" y2="631" stroke-dasharray="5,5" />
      <text x="304" y="631" clip-path="url(#clipPath81)" fill="black" stroke-dasharray="5,5" stroke="none" xml:space="preserve">ieMessage(The Alert is now declared as valid !)</text>
      <line clip-path="url(#clipPath82)" fill="none" x1="880" x2="887" y1="634" y2="631" />
      <line clip-path="url(#clipPath82)" fill="none" x1="887" x2="880" y1="631" y2="628" />
      <line clip-path="url(#clipPath52)" fill="none" x1="755" x2="323" y1="791" y2="791" stroke-dasharray="5,5" />
      <line clip-path="url(#clipPath83)" fill="none" x1="748" x2="755" y1="794" y2="791" />
      <line clip-path="url(#clipPath83)" fill="none" x1="755" x2="748" y1="791" y2="788" />
      <line clip-path="url(#clipPath52)" fill="none" x1="887" x2="323" y1="971" y2="971" stroke-dasharray="5,5" />
      <text x="302" y="965" clip-path="url(#clipPath84)" fill="black" stroke-dasharray="5,5" stroke="none" xml:space="preserve">ieMessage(The crisis status has been updated !)</text>
      <line clip-path="url(#clipPath85)" fill="none" x1="880" x2="887" y1="974" y2="971" />
      <line clip-path="url(#clipPath85)" fill="none" x1="887" x2="880" y1="971" y2="968" />
      <line clip-path="url(#clipPath52)" fill="none" x1="887" x2="323" y1="1091" y2="1091" stroke-dasharray="5,5" />
      <text x="289" y="1088" clip-path="url(#clipPath86)" fill="black" stroke-dasharray="5,5" stroke="none" xml:space="preserve">ieMessage(The crisis comment has been updated !)</text>
      <line clip-path="url(#clipPath87)" fill="none" x1="880" x2="887" y1="1094" y2="1091" />
      <line clip-path="url(#clipPath87)" fill="none" x1="887" x2="880" y1="1091" y2="1088" />
      <line clip-path="url(#clipPath52)" fill="none" x1="887" x2="323" y1="1211" y2="1211" stroke-dasharray="5,5" />
      <text x="337" y="1210" clip-path="url(#clipPath88)" fill="black" stroke-dasharray="5,5" stroke="none" xml:space="preserve">ieMessage(The crisis is now closed !)</text>
      <line clip-path="url(#clipPath89)" fill="none" x1="880" x2="887" y1="1214" y2="1211" />
      <line clip-path="url(#clipPath89)" fill="none" x1="887" x2="880" y1="1211" y2="1208" />
    </g>
  </g>
</svg>

