<?xml version="1.0" encoding="UTF-8"?>
<svg xmlns="http://www.w3.org/2000/svg" xmlns:xlink="http://www.w3.org/1999/xlink" stroke-dasharray="none" shape-rendering="auto" font-family="'Dialog'" width="1710" text-rendering="auto" fill-opacity="1" contentScriptType="text/ecmascript" color-interpolation="auto" color-rendering="auto" preserveAspectRatio="xMidYMid meet" font-size="12" viewBox="0 0 1710 1010" fill="black" stroke="black" image-rendering="auto" stroke-miterlimit="10" zoomAndPan="magnify" version="1.0" stroke-linecap="square" stroke-linejoin="miter" contentStyleType="text/css" font-style="normal" height="1010" stroke-width="1" stroke-dashoffset="0" font-weight="normal" stroke-opacity="1">
  <!--Generated by the Batik Graphics2D SVG Generator-->
  <defs id="genericDefs" />
  <g>
    <defs id="defs1">
      <clipPath clipPathUnits="userSpaceOnUse" id="clipPath1">
        <path d="M1114 9 L1221 9 L1221 61 L1114 61 L1114 9 Z" />
      </clipPath>
      <clipPath clipPathUnits="userSpaceOnUse" id="clipPath2">
        <path d="M1114 9 L1227 9 L1227 61 L1114 61 L1114 9 Z" />
      </clipPath>
      <clipPath clipPathUnits="userSpaceOnUse" id="clipPath3">
        <path d="M1161 59 L1173 59 L1173 1001 L1161 1001 L1161 59 Z" />
      </clipPath>
      <clipPath clipPathUnits="userSpaceOnUse" id="clipPath4">
        <path d="M1156 89 L1178 89 L1178 131 L1156 131 L1156 89 Z" />
      </clipPath>
      <clipPath clipPathUnits="userSpaceOnUse" id="clipPath5">
        <path d="M1177 89 L1253 89 L1253 124 L1177 124 L1177 89 Z" />
      </clipPath>
      <clipPath clipPathUnits="userSpaceOnUse" id="clipPath6">
        <path d="M1229 9 L1328 9 L1328 61 L1229 61 L1229 9 Z" />
      </clipPath>
      <clipPath clipPathUnits="userSpaceOnUse" id="clipPath7">
        <path d="M1229 9 L1334 9 L1334 61 L1229 61 L1229 9 Z" />
      </clipPath>
      <clipPath clipPathUnits="userSpaceOnUse" id="clipPath8">
        <path d="M1272 59 L1284 59 L1284 1001 L1272 1001 L1272 59 Z" />
      </clipPath>
      <clipPath clipPathUnits="userSpaceOnUse" id="clipPath9">
        <path d="M1267 149 L1289 149 L1289 191 L1267 191 L1267 149 Z" />
      </clipPath>
      <clipPath clipPathUnits="userSpaceOnUse" id="clipPath10">
        <path d="M1288 149 L1364 149 L1364 184 L1288 184 L1288 149 Z" />
      </clipPath>
      <clipPath clipPathUnits="userSpaceOnUse" id="clipPath11">
        <path d="M1267 555 L1289 555 L1289 597 L1267 597 L1267 555 Z" />
      </clipPath>
      <clipPath clipPathUnits="userSpaceOnUse" id="clipPath12">
        <path d="M1288 555 L1364 555 L1364 590 L1288 590 L1288 555 Z" />
      </clipPath>
      <clipPath clipPathUnits="userSpaceOnUse" id="clipPath13">
        <path d="M1267 789 L1289 789 L1289 831 L1267 831 L1267 789 Z" />
      </clipPath>
      <clipPath clipPathUnits="userSpaceOnUse" id="clipPath14">
        <path d="M1288 789 L1364 789 L1364 824 L1288 824 L1288 789 Z" />
      </clipPath>
      <clipPath clipPathUnits="userSpaceOnUse" id="clipPath15">
        <path d="M1336 9 L1465 9 L1465 61 L1336 61 L1336 9 Z" />
      </clipPath>
      <clipPath clipPathUnits="userSpaceOnUse" id="clipPath16">
        <path d="M1336 9 L1470 9 L1470 61 L1336 61 L1336 9 Z" />
      </clipPath>
      <clipPath clipPathUnits="userSpaceOnUse" id="clipPath17">
        <path d="M1336 9 L1471 9 L1471 61 L1336 61 L1336 9 Z" />
      </clipPath>
      <clipPath clipPathUnits="userSpaceOnUse" id="clipPath18">
        <path d="M1394 59 L1406 59 L1406 1001 L1394 1001 L1394 59 Z" />
      </clipPath>
      <clipPath clipPathUnits="userSpaceOnUse" id="clipPath19">
        <path d="M1389 209 L1411 209 L1411 251 L1389 251 L1389 209 Z" />
      </clipPath>
      <clipPath clipPathUnits="userSpaceOnUse" id="clipPath20">
        <path d="M1410 209 L1486 209 L1486 244 L1410 244 L1410 209 Z" />
      </clipPath>
      <clipPath clipPathUnits="userSpaceOnUse" id="clipPath21">
        <path d="M1389 329 L1411 329 L1411 371 L1389 371 L1389 329 Z" />
      </clipPath>
      <clipPath clipPathUnits="userSpaceOnUse" id="clipPath22">
        <path d="M1410 329 L1486 329 L1486 364 L1410 364 L1410 329 Z" />
      </clipPath>
      <clipPath clipPathUnits="userSpaceOnUse" id="clipPath23">
        <path d="M1389 449 L1411 449 L1411 491 L1389 491 L1389 449 Z" />
      </clipPath>
      <clipPath clipPathUnits="userSpaceOnUse" id="clipPath24">
        <path d="M1410 449 L1486 449 L1486 484 L1410 484 L1410 449 Z" />
      </clipPath>
      <clipPath clipPathUnits="userSpaceOnUse" id="clipPath25">
        <path d="M1389 255 L1411 255 L1411 297 L1389 297 L1389 255 Z" />
      </clipPath>
      <clipPath clipPathUnits="userSpaceOnUse" id="clipPath26">
        <path d="M1410 255 L1486 255 L1486 290 L1410 290 L1410 255 Z" />
      </clipPath>
      <clipPath clipPathUnits="userSpaceOnUse" id="clipPath27">
        <path d="M1389 374 L1411 374 L1411 416 L1389 416 L1389 374 Z" />
      </clipPath>
      <clipPath clipPathUnits="userSpaceOnUse" id="clipPath28">
        <path d="M1410 374 L1486 374 L1486 409 L1410 409 L1410 374 Z" />
      </clipPath>
      <clipPath clipPathUnits="userSpaceOnUse" id="clipPath29">
        <path d="M1389 499 L1411 499 L1411 541 L1389 541 L1389 499 Z" />
      </clipPath>
      <clipPath clipPathUnits="userSpaceOnUse" id="clipPath30">
        <path d="M1410 499 L1486 499 L1486 534 L1410 534 L1410 499 Z" />
      </clipPath>
      <clipPath clipPathUnits="userSpaceOnUse" id="clipPath31">
        <path d="M1389 849 L1411 849 L1411 891 L1389 891 L1389 849 Z" />
      </clipPath>
      <clipPath clipPathUnits="userSpaceOnUse" id="clipPath32">
        <path d="M1410 849 L1486 849 L1486 884 L1410 884 L1410 849 Z" />
      </clipPath>
      <clipPath clipPathUnits="userSpaceOnUse" id="clipPath33">
        <path d="M1473 9 L1606 9 L1606 61 L1473 61 L1473 9 Z" />
      </clipPath>
      <clipPath clipPathUnits="userSpaceOnUse" id="clipPath34">
        <path d="M1473 9 L1613 9 L1613 61 L1473 61 L1473 9 Z" />
      </clipPath>
      <clipPath clipPathUnits="userSpaceOnUse" id="clipPath35">
        <path d="M1473 9 L1612 9 L1612 61 L1473 61 L1473 9 Z" />
      </clipPath>
      <clipPath clipPathUnits="userSpaceOnUse" id="clipPath36">
        <path d="M1533 59 L1545 59 L1545 1001 L1533 1001 L1533 59 Z" />
      </clipPath>
      <clipPath clipPathUnits="userSpaceOnUse" id="clipPath37">
        <path d="M1528 650 L1550 650 L1550 692 L1528 692 L1528 650 Z" />
      </clipPath>
      <clipPath clipPathUnits="userSpaceOnUse" id="clipPath38">
        <path d="M1549 650 L1625 650 L1625 685 L1549 685 L1549 650 Z" />
      </clipPath>
      <clipPath clipPathUnits="userSpaceOnUse" id="clipPath39">
        <path d="M1528 729 L1550 729 L1550 771 L1528 771 L1528 729 Z" />
      </clipPath>
      <clipPath clipPathUnits="userSpaceOnUse" id="clipPath40">
        <path d="M1549 729 L1625 729 L1625 764 L1549 764 L1549 729 Z" />
      </clipPath>
      <clipPath clipPathUnits="userSpaceOnUse" id="clipPath41">
        <path d="M975 9 L1106 9 L1106 61 L975 61 L975 9 Z" />
      </clipPath>
      <clipPath clipPathUnits="userSpaceOnUse" id="clipPath42">
        <path d="M975 9 L1113 9 L1113 61 L975 61 L975 9 Z" />
      </clipPath>
      <clipPath clipPathUnits="userSpaceOnUse" id="clipPath43">
        <path d="M975 9 L1112 9 L1112 61 L975 61 L975 9 Z" />
      </clipPath>
      <clipPath clipPathUnits="userSpaceOnUse" id="clipPath44">
        <path d="M1034 59 L1046 59 L1046 1001 L1034 1001 L1034 59 Z" />
      </clipPath>
      <clipPath clipPathUnits="userSpaceOnUse" id="clipPath45">
        <path d="M1029 909 L1051 909 L1051 951 L1029 951 L1029 909 Z" />
      </clipPath>
      <clipPath clipPathUnits="userSpaceOnUse" id="clipPath46">
        <path d="M1050 909 L1126 909 L1126 944 L1050 944 L1050 909 Z" />
      </clipPath>
      <clipPath clipPathUnits="userSpaceOnUse" id="clipPath47">
        <path d="M272 9 L344 9 L344 41 L272 41 L272 9 Z" />
      </clipPath>
      <clipPath clipPathUnits="userSpaceOnUse" id="clipPath48">
        <path d="M302 39 L314 39 L314 1001 L302 1001 L302 39 Z" />
      </clipPath>
      <clipPath clipPathUnits="userSpaceOnUse" id="clipPath49">
        <path d="M-1 -1 L1711 -1 L1711 1011 L-1 1011 L-1 -1 Z" />
      </clipPath>
      <clipPath clipPathUnits="userSpaceOnUse" id="clipPath50">
        <path d="M522 58 L1006 58 L1006 93 L522 93 L522 58 Z" />
      </clipPath>
      <clipPath clipPathUnits="userSpaceOnUse" id="clipPath51">
        <path d="M306 85 L318 85 L318 96 L306 96 L306 85 Z" />
      </clipPath>
      <clipPath clipPathUnits="userSpaceOnUse" id="clipPath52">
        <path d="M515 121 L1012 121 L1012 156 L515 156 L515 121 Z" />
      </clipPath>
      <clipPath clipPathUnits="userSpaceOnUse" id="clipPath53">
        <path d="M306 145 L318 145 L318 156 L306 156 L306 145 Z" />
      </clipPath>
      <clipPath clipPathUnits="userSpaceOnUse" id="clipPath54">
        <path d="M524 176 L981 176 L981 211 L524 211 L524 176 Z" />
      </clipPath>
      <clipPath clipPathUnits="userSpaceOnUse" id="clipPath55">
        <path d="M306 205 L318 205 L318 216 L306 216 L306 205 Z" />
      </clipPath>
      <clipPath clipPathUnits="userSpaceOnUse" id="clipPath56">
        <path d="M469 297 L1191 297 L1191 332 L469 332 L469 297 Z" />
      </clipPath>
      <clipPath clipPathUnits="userSpaceOnUse" id="clipPath57">
        <path d="M306 325 L318 325 L318 336 L306 336 L306 325 Z" />
      </clipPath>
      <clipPath clipPathUnits="userSpaceOnUse" id="clipPath58">
        <path d="M604 416 L757 416 L757 451 L604 451 L604 416 Z" />
      </clipPath>
      <clipPath clipPathUnits="userSpaceOnUse" id="clipPath59">
        <path d="M306 445 L318 445 L318 456 L306 456 L306 445 Z" />
      </clipPath>
      <clipPath clipPathUnits="userSpaceOnUse" id="clipPath60">
        <path d="M511 519 L1008 519 L1008 554 L511 554 L511 519 Z" />
      </clipPath>
      <clipPath clipPathUnits="userSpaceOnUse" id="clipPath61">
        <path d="M306 551 L318 551 L318 562 L306 562 L306 551 Z" />
      </clipPath>
      <clipPath clipPathUnits="userSpaceOnUse" id="clipPath62">
        <path d="M601 594 L1071 594 L1071 662 L601 662 L601 594 Z" />
      </clipPath>
      <clipPath clipPathUnits="userSpaceOnUse" id="clipPath63">
        <path d="M306 646 L318 646 L318 657 L306 657 L306 646 Z" />
      </clipPath>
      <clipPath clipPathUnits="userSpaceOnUse" id="clipPath64">
        <path d="M548 758 L931 758 L931 793 L548 793 L548 758 Z" />
      </clipPath>
      <clipPath clipPathUnits="userSpaceOnUse" id="clipPath65">
        <path d="M306 785 L318 785 L318 796 L306 796 L306 785 Z" />
      </clipPath>
      <clipPath clipPathUnits="userSpaceOnUse" id="clipPath66">
        <path d="M500 224 L1055 224 L1055 259 L500 259 L500 224 Z" />
      </clipPath>
      <clipPath clipPathUnits="userSpaceOnUse" id="clipPath67">
        <path d="M1381 251 L1393 251 L1393 262 L1381 262 L1381 251 Z" />
      </clipPath>
      <clipPath clipPathUnits="userSpaceOnUse" id="clipPath68">
        <path d="M564 342 L864 342 L864 377 L564 377 L564 342 Z" />
      </clipPath>
      <clipPath clipPathUnits="userSpaceOnUse" id="clipPath69">
        <path d="M1381 370 L1393 370 L1393 381 L1381 381 L1381 370 Z" />
      </clipPath>
      <clipPath clipPathUnits="userSpaceOnUse" id="clipPath70">
        <path d="M488 466 L1102 466 L1102 501 L488 501 L488 466 Z" />
      </clipPath>
      <clipPath clipPathUnits="userSpaceOnUse" id="clipPath71">
        <path d="M1381 495 L1393 495 L1393 506 L1381 506 L1381 495 Z" />
      </clipPath>
      <clipPath clipPathUnits="userSpaceOnUse" id="clipPath72">
        <path d="M285 694 L1694 694 L1694 729 L285 729 L285 694 Z" />
      </clipPath>
      <clipPath clipPathUnits="userSpaceOnUse" id="clipPath73">
        <path d="M1520 725 L1532 725 L1532 736 L1520 736 L1520 725 Z" />
      </clipPath>
      <clipPath clipPathUnits="userSpaceOnUse" id="clipPath74">
        <path d="M344 820 L1530 820 L1530 855 L344 855 L344 820 Z" />
      </clipPath>
      <clipPath clipPathUnits="userSpaceOnUse" id="clipPath75">
        <path d="M1381 845 L1393 845 L1393 856 L1381 856 L1381 845 Z" />
      </clipPath>
      <clipPath clipPathUnits="userSpaceOnUse" id="clipPath76">
        <path d="M23 875 L1209 875 L1209 910 L23 910 L23 875 Z" />
      </clipPath>
      <clipPath clipPathUnits="userSpaceOnUse" id="clipPath77">
        <path d="M1021 905 L1033 905 L1033 916 L1021 916 L1021 905 Z" />
      </clipPath>
    </defs>
    <g font-size="28" fill="rgb(255,245,181)" font-family="'Lucida Sans'" stroke-linejoin="round" stroke="rgb(255,245,181)" stroke-width="0" stroke-miterlimit="0">
      <rect x="1115" y="10" clip-path="url(#clipPath1)" width="105" height="50" stroke="none" />
    </g>
    <g stroke-width="0.1" font-size="28" font-family="'Lucida Sans'" stroke-linecap="butt">
      <rect x="1115" y="10" clip-path="url(#clipPath1)" fill="none" width="104" height="49" />
      <text xml:space="preserve" x="1117" y="45" clip-path="url(#clipPath2)" stroke="none">theCr...</text>
      <line clip-path="url(#clipPath3)" fill="none" x1="1166" x2="1166" y1="60" y2="1000" stroke-dasharray="10,10" stroke-width="1.1" />
    </g>
    <g stroke-linecap="butt" font-size="28" fill="rgb(77,137,20)" font-family="'Lucida Sans'" stroke-dasharray="10,10" stroke="rgb(77,137,20)" stroke-width="1.1">
      <rect x="1157" y="90" clip-path="url(#clipPath4)" width="20" height="40" stroke="none" />
      <rect x="1158" y="91" clip-path="url(#clipPath4)" fill="none" width="18" stroke-dasharray="none" height="38" stroke-width="2.1" />
      <text x="1178" y="117" clip-path="url(#clipPath5)" stroke-dasharray="none" stroke="none" stroke-width="2.1" xml:space="preserve">tsi01</text>
    </g>
    <g stroke-linecap="butt" font-size="28" fill="rgb(255,245,181)" font-family="'Lucida Sans'" stroke="rgb(255,245,181)" stroke-width="2.1">
      <rect x="1230" y="10" clip-path="url(#clipPath6)" width="97" height="50" stroke="none" />
      <rect x="1230" y="10" clip-path="url(#clipPath6)" fill="none" width="96" height="49" stroke="black" stroke-width="0.1" />
      <text x="1234" y="45" clip-path="url(#clipPath7)" fill="black" stroke="none" stroke-width="0.1" xml:space="preserve">theC...</text>
    </g>
    <g stroke-width="1.1" font-size="28" stroke-dasharray="10,10" font-family="'Lucida Sans'" stroke-linecap="butt">
      <line clip-path="url(#clipPath8)" fill="none" x1="1277" x2="1277" y1="60" y2="1000" />
      <rect x="1268" y="150" clip-path="url(#clipPath9)" fill="rgb(77,137,20)" width="20" height="40" stroke="none" />
    </g>
    <g stroke-linecap="butt" font-size="28" fill="rgb(77,137,20)" font-family="'Lucida Sans'" stroke="rgb(77,137,20)" stroke-width="2.1">
      <rect x="1269" y="151" clip-path="url(#clipPath9)" fill="none" width="18" height="38" />
      <text xml:space="preserve" x="1289" y="177" clip-path="url(#clipPath10)" stroke="none">tsi02</text>
      <rect x="1268" y="556" clip-path="url(#clipPath11)" width="20" height="40" stroke="none" />
      <rect x="1269" y="557" clip-path="url(#clipPath11)" fill="none" width="18" height="38" />
      <text xml:space="preserve" x="1289" y="583" clip-path="url(#clipPath12)" stroke="none">tsi06</text>
      <rect x="1268" y="790" clip-path="url(#clipPath13)" width="20" height="40" stroke="none" />
      <rect x="1269" y="791" clip-path="url(#clipPath13)" fill="none" width="18" height="38" />
      <text xml:space="preserve" x="1289" y="817" clip-path="url(#clipPath14)" stroke="none">tsi09</text>
      <rect x="1337" y="10" clip-path="url(#clipPath15)" fill="rgb(255,245,181)" width="127" height="50" stroke="none" />
      <rect x="1337" y="10" clip-path="url(#clipPath15)" fill="none" width="126" height="49" stroke="black" stroke-width="0.1" />
      <text x="1379" y="29" clip-path="url(#clipPath16)" fill="black" stroke="none" stroke-width="0.1" xml:space="preserve">bill</text>
      <text x="1340" y="62" clip-path="url(#clipPath17)" fill="black" stroke="none" stroke-width="0.1" xml:space="preserve">: actAd...</text>
    </g>
    <g stroke-width="1.1" font-size="28" stroke-dasharray="10,10" font-family="'Lucida Sans'" stroke-linecap="butt">
      <line clip-path="url(#clipPath18)" fill="none" x1="1399" x2="1399" y1="60" y2="1000" />
      <rect x="1390" y="210" clip-path="url(#clipPath19)" fill="rgb(77,137,20)" width="20" height="40" stroke="none" />
    </g>
    <g stroke-linecap="butt" font-size="28" fill="rgb(77,137,20)" font-family="'Lucida Sans'" stroke="rgb(77,137,20)" stroke-width="2.1">
      <rect x="1391" y="211" clip-path="url(#clipPath19)" fill="none" width="18" height="38" />
      <text xml:space="preserve" x="1411" y="237" clip-path="url(#clipPath20)" stroke="none">tsi03</text>
      <rect x="1390" y="330" clip-path="url(#clipPath21)" width="20" height="40" stroke="none" />
      <rect x="1391" y="331" clip-path="url(#clipPath21)" fill="none" width="18" height="38" />
      <text xml:space="preserve" x="1411" y="357" clip-path="url(#clipPath22)" stroke="none">tsi04</text>
      <rect x="1390" y="450" clip-path="url(#clipPath23)" width="20" height="40" stroke="none" />
      <rect x="1391" y="451" clip-path="url(#clipPath23)" fill="none" width="18" height="38" />
      <text xml:space="preserve" x="1411" y="477" clip-path="url(#clipPath24)" stroke="none">tsi05</text>
      <rect x="1390" y="256" clip-path="url(#clipPath25)" fill="rgb(204,242,166)" width="20" height="40" stroke="none" />
      <rect x="1390" y="256" clip-path="url(#clipPath25)" fill="none" width="19" height="39" stroke="rgb(209,209,209)" stroke-width="0.1" />
      <text x="1411" y="283" clip-path="url(#clipPath26)" stroke="none" stroke-width="0.1" xml:space="preserve">tsi03</text>
      <rect x="1390" y="375" clip-path="url(#clipPath27)" fill="rgb(204,242,166)" width="20" height="40" stroke="none" stroke-width="0.1" />
      <rect x="1390" y="375" clip-path="url(#clipPath27)" fill="none" width="19" height="39" stroke="rgb(209,209,209)" stroke-width="0.1" />
      <text x="1411" y="402" clip-path="url(#clipPath28)" stroke="none" stroke-width="0.1" xml:space="preserve">tsi04</text>
      <rect x="1390" y="500" clip-path="url(#clipPath29)" fill="rgb(204,242,166)" width="20" height="40" stroke="none" stroke-width="0.1" />
      <rect x="1390" y="500" clip-path="url(#clipPath29)" fill="none" width="19" height="39" stroke="rgb(209,209,209)" stroke-width="0.1" />
      <text x="1411" y="527" clip-path="url(#clipPath30)" stroke="none" stroke-width="0.1" xml:space="preserve">tsi05</text>
      <rect x="1390" y="850" clip-path="url(#clipPath31)" fill="rgb(204,242,166)" width="20" height="40" stroke="none" stroke-width="0.1" />
      <rect x="1390" y="850" clip-path="url(#clipPath31)" fill="none" width="19" height="39" stroke="rgb(209,209,209)" stroke-width="0.1" />
      <text x="1411" y="877" clip-path="url(#clipPath32)" stroke="none" stroke-width="0.1" xml:space="preserve">tsi09</text>
      <rect x="1474" y="10" clip-path="url(#clipPath33)" fill="rgb(255,245,181)" width="131" height="50" stroke="none" stroke-width="0.1" />
      <rect x="1474" y="10" clip-path="url(#clipPath33)" fill="none" width="130" height="49" stroke="black" stroke-width="0.1" />
      <text x="1501" y="29" clip-path="url(#clipPath34)" fill="black" stroke="none" stroke-width="0.1" xml:space="preserve">tango</text>
      <text x="1479" y="62" clip-path="url(#clipPath35)" fill="black" stroke="none" stroke-width="0.1" xml:space="preserve">: actCo...</text>
    </g>
    <g stroke-width="1.1" font-size="28" stroke-dasharray="10,10" font-family="'Lucida Sans'" stroke-linecap="butt">
      <line clip-path="url(#clipPath36)" fill="none" x1="1538" x2="1538" y1="60" y2="1000" />
      <rect x="1529" y="651" clip-path="url(#clipPath37)" fill="rgb(77,137,20)" width="20" height="40" stroke="none" />
    </g>
    <g stroke-linecap="butt" font-size="28" fill="rgb(77,137,20)" font-family="'Lucida Sans'" stroke="rgb(77,137,20)" stroke-width="2.1">
      <rect x="1530" y="652" clip-path="url(#clipPath37)" fill="none" width="18" height="38" />
      <text xml:space="preserve" x="1550" y="678" clip-path="url(#clipPath38)" stroke="none">tsi07</text>
      <rect x="1529" y="730" clip-path="url(#clipPath39)" fill="rgb(204,242,166)" width="20" height="40" stroke="none" />
      <rect x="1529" y="730" clip-path="url(#clipPath39)" fill="none" width="19" height="39" stroke="rgb(209,209,209)" stroke-width="0.1" />
      <text x="1550" y="757" clip-path="url(#clipPath40)" stroke="none" stroke-width="0.1" xml:space="preserve">tsi07</text>
      <rect x="976" y="10" clip-path="url(#clipPath41)" fill="rgb(255,245,181)" width="129" height="50" stroke="none" stroke-width="0.1" />
      <rect x="976" y="10" clip-path="url(#clipPath41)" fill="none" width="128" height="49" stroke="black" stroke-width="0.1" />
      <text x="1004" y="29" clip-path="url(#clipPath42)" fill="black" stroke="none" stroke-width="0.1" xml:space="preserve">steve</text>
      <text x="980" y="62" clip-path="url(#clipPath43)" fill="black" stroke="none" stroke-width="0.1" xml:space="preserve">: actCo...</text>
    </g>
    <g stroke-width="1.1" font-size="28" stroke-dasharray="10,10" font-family="'Lucida Sans'" stroke-linecap="butt">
      <line clip-path="url(#clipPath44)" fill="none" x1="1039" x2="1039" y1="60" y2="1000" />
      <rect x="1030" y="910" clip-path="url(#clipPath45)" fill="rgb(204,242,166)" width="20" height="40" stroke="none" />
    </g>
    <g stroke-linecap="butt" font-size="28" fill="rgb(209,209,209)" font-family="'Lucida Sans'" stroke="rgb(209,209,209)" stroke-width="0.1">
      <rect x="1030" y="910" clip-path="url(#clipPath45)" fill="none" width="19" height="39" />
      <text x="1051" y="937" clip-path="url(#clipPath46)" fill="rgb(77,137,20)" stroke="none" xml:space="preserve">tsi09</text>
      <rect x="273" y="10" clip-path="url(#clipPath47)" fill="rgb(238,201,142)" width="70" height="30" stroke="none" />
      <rect x="273" y="10" clip-path="url(#clipPath47)" fill="none" width="69" height="29" stroke="black" />
    </g>
    <g stroke-width="1.1" font-size="28" stroke-dasharray="10,10" font-family="'Lucida Sans'" stroke-linecap="butt">
      <line clip-path="url(#clipPath48)" fill="none" x1="307" x2="307" y1="40" y2="1000" />
    </g>
    <g stroke-linecap="butt" font-size="28" fill="rgb(136,136,136)" font-family="'Lucida Sans'" stroke="rgb(136,136,136)" stroke-width="2.1">
      <line clip-path="url(#clipPath49)" fill="none" x1="1157" x2="308" y1="90" y2="90" />
      <text x="523" y="86" clip-path="url(#clipPath50)" fill="black" stroke="none" xml:space="preserve">oeCreateSystemAndEnvironment(4)</text>
      <line clip-path="url(#clipPath51)" fill="none" x1="315" x2="308" y1="87" y2="90" />
      <line clip-path="url(#clipPath51)" fill="none" x1="308" x2="315" y1="90" y2="93" />
      <line clip-path="url(#clipPath49)" fill="none" x1="1268" x2="308" y1="150" y2="150" />
      <text x="516" y="149" clip-path="url(#clipPath52)" fill="black" stroke="none" xml:space="preserve">oeSetClock(2017:11:24 - 03:20:00)</text>
      <line clip-path="url(#clipPath53)" fill="none" x1="315" x2="308" y1="147" y2="150" />
      <line clip-path="url(#clipPath53)" fill="none" x1="308" x2="315" y1="150" y2="153" />
      <line clip-path="url(#clipPath49)" fill="none" x1="1390" x2="308" y1="210" y2="210" />
      <text x="525" y="204" clip-path="url(#clipPath54)" fill="black" stroke="none" xml:space="preserve">oeLogin(icrashadmin,7WXC1359)</text>
      <line clip-path="url(#clipPath55)" fill="none" x1="315" x2="308" y1="207" y2="210" />
      <line clip-path="url(#clipPath55)" fill="none" x1="308" x2="315" y1="210" y2="213" />
      <line clip-path="url(#clipPath49)" fill="none" x1="1390" x2="308" y1="330" y2="330" />
      <text x="470" y="325" clip-path="url(#clipPath56)" fill="black" stroke="none" xml:space="preserve">oeAddCoordinator(1,steve,pwdMessirExcalibur2017)</text>
      <line clip-path="url(#clipPath57)" fill="none" x1="315" x2="308" y1="327" y2="330" />
      <line clip-path="url(#clipPath57)" fill="none" x1="308" x2="315" y1="330" y2="333" />
      <line clip-path="url(#clipPath49)" fill="none" x1="1390" x2="308" y1="450" y2="450" />
      <text x="605" y="444" clip-path="url(#clipPath58)" fill="black" stroke="none" xml:space="preserve">oeLogout()</text>
      <line clip-path="url(#clipPath59)" fill="none" x1="315" x2="308" y1="447" y2="450" />
      <line clip-path="url(#clipPath59)" fill="none" x1="308" x2="315" y1="450" y2="453" />
      <line clip-path="url(#clipPath49)" fill="none" x1="1268" x2="308" y1="556" y2="556" />
      <text x="512" y="547" clip-path="url(#clipPath60)" fill="black" stroke="none" xml:space="preserve">oeSetClock(2017:11:26 - 10:15:00)</text>
      <line clip-path="url(#clipPath61)" fill="none" x1="315" x2="308" y1="553" y2="556" />
      <line clip-path="url(#clipPath61)" fill="none" x1="308" x2="315" y1="556" y2="559" />
      <line clip-path="url(#clipPath49)" fill="none" x1="1529" x2="308" y1="651" y2="651" />
      <text x="616" y="622" clip-path="url(#clipPath62)" fill="black" stroke="none" xml:space="preserve">oeAlert(witness,2017:11:26,10:</text>
      <text x="610" y="655" clip-path="url(#clipPath62)" fill="black" stroke="none" xml:space="preserve">10:16,+3524666445252,49.6...</text>
      <line clip-path="url(#clipPath63)" fill="none" x1="315" x2="308" y1="648" y2="651" />
      <line clip-path="url(#clipPath63)" fill="none" x1="308" x2="315" y1="651" y2="654" />
      <line clip-path="url(#clipPath49)" fill="none" x1="1268" x2="308" y1="790" y2="790" />
      <text x="549" y="786" clip-path="url(#clipPath64)" fill="black" stroke="none" xml:space="preserve">oeSollicitateCrisisHandling()</text>
      <line clip-path="url(#clipPath65)" fill="none" x1="315" x2="308" y1="787" y2="790" />
      <line clip-path="url(#clipPath65)" fill="none" x1="308" x2="315" y1="790" y2="793" />
      <line clip-path="url(#clipPath49)" fill="none" x1="1390" x2="308" y1="256" y2="256" stroke-dasharray="5,5" />
      <text x="501" y="252" clip-path="url(#clipPath66)" fill="black" stroke-dasharray="5,5" stroke="none" xml:space="preserve">ieMessage(You are logged ! Welcome ...)</text>
      <line clip-path="url(#clipPath67)" fill="none" x1="1383" x2="1390" y1="259" y2="256" />
      <line clip-path="url(#clipPath67)" fill="none" x1="1390" x2="1383" y1="256" y2="253" />
      <line clip-path="url(#clipPath49)" fill="none" x1="1390" x2="308" y1="375" y2="375" stroke-dasharray="5,5" />
      <text x="565" y="370" clip-path="url(#clipPath68)" fill="black" stroke-dasharray="5,5" stroke="none" xml:space="preserve">ieCoordinatorAdded()</text>
      <line clip-path="url(#clipPath69)" fill="none" x1="1383" x2="1390" y1="378" y2="375" />
      <line clip-path="url(#clipPath69)" fill="none" x1="1390" x2="1383" y1="375" y2="372" />
      <line clip-path="url(#clipPath49)" fill="none" x1="1390" x2="308" y1="500" y2="500" stroke-dasharray="5,5" />
      <text x="489" y="494" clip-path="url(#clipPath70)" fill="black" stroke-dasharray="5,5" stroke="none" xml:space="preserve">ieMessage(You are logged out ! Good Bye ...)</text>
      <line clip-path="url(#clipPath71)" fill="none" x1="1383" x2="1390" y1="503" y2="500" />
      <line clip-path="url(#clipPath71)" fill="none" x1="1390" x2="1383" y1="500" y2="497" />
      <line clip-path="url(#clipPath49)" fill="none" x1="1529" x2="308" y1="730" y2="730" stroke-dasharray="5,5" />
      <text x="286" y="722" clip-path="url(#clipPath72)" fill="black" stroke-dasharray="5,5" stroke="none" xml:space="preserve">ieSmsSend(+3524666445252,Your alert has been registered. We will handle it and keep you informed)</text>
      <line clip-path="url(#clipPath73)" fill="none" x1="1522" x2="1529" y1="733" y2="730" />
      <line clip-path="url(#clipPath73)" fill="none" x1="1529" x2="1522" y1="730" y2="727" />
      <line clip-path="url(#clipPath49)" fill="none" x1="1390" x2="308" y1="850" y2="850" stroke-dasharray="5,5" />
      <text x="345" y="848" clip-path="url(#clipPath74)" fill="black" stroke-dasharray="5,5" stroke="none" xml:space="preserve">ieMessage(There are alerts pending since more than the defined delay. Please REACT !)</text>
      <line clip-path="url(#clipPath75)" fill="none" x1="1383" x2="1390" y1="853" y2="850" />
      <line clip-path="url(#clipPath75)" fill="none" x1="1390" x2="1383" y1="850" y2="847" />
      <line clip-path="url(#clipPath49)" fill="none" x1="1030" x2="308" y1="910" y2="910" stroke-dasharray="5,5" />
      <text x="24" y="903" clip-path="url(#clipPath76)" fill="black" stroke-dasharray="5,5" stroke="none" xml:space="preserve">ieMessage(There are alerts pending since more than the defined delay. Please REACT !)</text>
      <line clip-path="url(#clipPath77)" fill="none" x1="1023" x2="1030" y1="913" y2="910" />
      <line clip-path="url(#clipPath77)" fill="none" x1="1030" x2="1023" y1="910" y2="907" />
    </g>
  </g>
</svg>

