<?xml version="1.0" encoding="UTF-8"?>
<svg xmlns="http://www.w3.org/2000/svg" xmlns:xlink="http://www.w3.org/1999/xlink" stroke-dasharray="none" shape-rendering="auto" font-family="'Dialog'" width="1048" text-rendering="auto" fill-opacity="1" contentScriptType="text/ecmascript" color-interpolation="auto" color-rendering="auto" preserveAspectRatio="xMidYMid meet" font-size="12" viewBox="0 0 1048 1311" fill="black" stroke="black" image-rendering="auto" stroke-miterlimit="10" zoomAndPan="magnify" version="1.0" stroke-linecap="square" stroke-linejoin="miter" contentStyleType="text/css" font-style="normal" height="1311" stroke-width="1" stroke-dashoffset="0" font-weight="normal" stroke-opacity="1">
  <!--Generated by the Batik Graphics2D SVG Generator-->
  <defs id="genericDefs" />
  <g>
    <defs id="defs1">
      <clipPath clipPathUnits="userSpaceOnUse" id="clipPath1">
        <path d="M652 9 L771 9 L771 61 L652 61 L652 9 Z" />
      </clipPath>
      <clipPath clipPathUnits="userSpaceOnUse" id="clipPath2">
        <path d="M652 9 L775 9 L775 61 L652 61 L652 9 Z" />
      </clipPath>
      <clipPath clipPathUnits="userSpaceOnUse" id="clipPath3">
        <path d="M652 9 L774 9 L774 61 L652 61 L652 9 Z" />
      </clipPath>
      <clipPath clipPathUnits="userSpaceOnUse" id="clipPath4">
        <path d="M705 59 L717 59 L717 1302 L705 1302 L705 59 Z" />
      </clipPath>
      <clipPath clipPathUnits="userSpaceOnUse" id="clipPath5">
        <path d="M700 89 L722 89 L722 131 L700 131 L700 89 Z" />
      </clipPath>
      <clipPath clipPathUnits="userSpaceOnUse" id="clipPath6">
        <path d="M721 89 L774 89 L774 113 L721 113 L721 89 Z" />
      </clipPath>
      <clipPath clipPathUnits="userSpaceOnUse" id="clipPath7">
        <path d="M700 209 L722 209 L722 251 L700 251 L700 209 Z" />
      </clipPath>
      <clipPath clipPathUnits="userSpaceOnUse" id="clipPath8">
        <path d="M721 209 L774 209 L774 233 L721 233 L721 209 Z" />
      </clipPath>
      <clipPath clipPathUnits="userSpaceOnUse" id="clipPath9">
        <path d="M700 329 L722 329 L722 371 L700 371 L700 329 Z" />
      </clipPath>
      <clipPath clipPathUnits="userSpaceOnUse" id="clipPath10">
        <path d="M721 329 L774 329 L774 353 L721 353 L721 329 Z" />
      </clipPath>
      <clipPath clipPathUnits="userSpaceOnUse" id="clipPath11">
        <path d="M700 570 L722 570 L722 612 L700 612 L700 570 Z" />
      </clipPath>
      <clipPath clipPathUnits="userSpaceOnUse" id="clipPath12">
        <path d="M721 570 L774 570 L774 594 L721 594 L721 570 Z" />
      </clipPath>
      <clipPath clipPathUnits="userSpaceOnUse" id="clipPath13">
        <path d="M700 910 L722 910 L722 952 L700 952 L700 910 Z" />
      </clipPath>
      <clipPath clipPathUnits="userSpaceOnUse" id="clipPath14">
        <path d="M721 910 L774 910 L774 934 L721 934 L721 910 Z" />
      </clipPath>
      <clipPath clipPathUnits="userSpaceOnUse" id="clipPath15">
        <path d="M700 1030 L722 1030 L722 1072 L700 1072 L700 1030 Z" />
      </clipPath>
      <clipPath clipPathUnits="userSpaceOnUse" id="clipPath16">
        <path d="M721 1030 L774 1030 L774 1054 L721 1054 L721 1030 Z" />
      </clipPath>
      <clipPath clipPathUnits="userSpaceOnUse" id="clipPath17">
        <path d="M700 1150 L722 1150 L722 1192 L700 1192 L700 1150 Z" />
      </clipPath>
      <clipPath clipPathUnits="userSpaceOnUse" id="clipPath18">
        <path d="M721 1150 L774 1150 L774 1174 L721 1174 L721 1150 Z" />
      </clipPath>
      <clipPath clipPathUnits="userSpaceOnUse" id="clipPath19">
        <path d="M700 139 L722 139 L722 181 L700 181 L700 139 Z" />
      </clipPath>
      <clipPath clipPathUnits="userSpaceOnUse" id="clipPath20">
        <path d="M721 139 L774 139 L774 163 L721 163 L721 139 Z" />
      </clipPath>
      <clipPath clipPathUnits="userSpaceOnUse" id="clipPath21">
        <path d="M700 257 L722 257 L722 299 L700 299 L700 257 Z" />
      </clipPath>
      <clipPath clipPathUnits="userSpaceOnUse" id="clipPath22">
        <path d="M721 257 L774 257 L774 281 L721 281 L721 257 Z" />
      </clipPath>
      <clipPath clipPathUnits="userSpaceOnUse" id="clipPath23">
        <path d="M700 443 L722 443 L722 485 L700 485 L700 443 Z" />
      </clipPath>
      <clipPath clipPathUnits="userSpaceOnUse" id="clipPath24">
        <path d="M721 443 L774 443 L774 467 L721 467 L721 443 Z" />
      </clipPath>
      <clipPath clipPathUnits="userSpaceOnUse" id="clipPath25">
        <path d="M700 630 L722 630 L722 672 L700 672 L700 630 Z" />
      </clipPath>
      <clipPath clipPathUnits="userSpaceOnUse" id="clipPath26">
        <path d="M721 630 L774 630 L774 654 L721 654 L721 630 Z" />
      </clipPath>
      <clipPath clipPathUnits="userSpaceOnUse" id="clipPath27">
        <path d="M700 970 L722 970 L722 1012 L700 1012 L700 970 Z" />
      </clipPath>
      <clipPath clipPathUnits="userSpaceOnUse" id="clipPath28">
        <path d="M721 970 L774 970 L774 994 L721 994 L721 970 Z" />
      </clipPath>
      <clipPath clipPathUnits="userSpaceOnUse" id="clipPath29">
        <path d="M700 1090 L722 1090 L722 1132 L700 1132 L700 1090 Z" />
      </clipPath>
      <clipPath clipPathUnits="userSpaceOnUse" id="clipPath30">
        <path d="M721 1090 L774 1090 L774 1114 L721 1114 L721 1090 Z" />
      </clipPath>
      <clipPath clipPathUnits="userSpaceOnUse" id="clipPath31">
        <path d="M700 1210 L722 1210 L722 1252 L700 1252 L700 1210 Z" />
      </clipPath>
      <clipPath clipPathUnits="userSpaceOnUse" id="clipPath32">
        <path d="M721 1210 L774 1210 L774 1234 L721 1234 L721 1210 Z" />
      </clipPath>
      <clipPath clipPathUnits="userSpaceOnUse" id="clipPath33">
        <path d="M514 9 L644 9 L644 61 L514 61 L514 9 Z" />
      </clipPath>
      <clipPath clipPathUnits="userSpaceOnUse" id="clipPath34">
        <path d="M514 9 L649 9 L649 61 L514 61 L514 9 Z" />
      </clipPath>
      <clipPath clipPathUnits="userSpaceOnUse" id="clipPath35">
        <path d="M514 9 L647 9 L647 61 L514 61 L514 9 Z" />
      </clipPath>
      <clipPath clipPathUnits="userSpaceOnUse" id="clipPath36">
        <path d="M573 59 L585 59 L585 1302 L573 1302 L573 59 Z" />
      </clipPath>
      <clipPath clipPathUnits="userSpaceOnUse" id="clipPath37">
        <path d="M568 714 L590 714 L590 756 L568 756 L568 714 Z" />
      </clipPath>
      <clipPath clipPathUnits="userSpaceOnUse" id="clipPath38">
        <path d="M589 714 L642 714 L642 738 L589 738 L589 714 Z" />
      </clipPath>
      <clipPath clipPathUnits="userSpaceOnUse" id="clipPath39">
        <path d="M568 398 L590 398 L590 440 L568 440 L568 398 Z" />
      </clipPath>
      <clipPath clipPathUnits="userSpaceOnUse" id="clipPath40">
        <path d="M589 398 L642 398 L642 422 L589 422 L589 398 Z" />
      </clipPath>
      <clipPath clipPathUnits="userSpaceOnUse" id="clipPath41">
        <path d="M568 790 L590 790 L590 832 L568 832 L568 790 Z" />
      </clipPath>
      <clipPath clipPathUnits="userSpaceOnUse" id="clipPath42">
        <path d="M589 790 L642 790 L642 814 L589 814 L589 790 Z" />
      </clipPath>
      <clipPath clipPathUnits="userSpaceOnUse" id="clipPath43">
        <path d="M779 9 L898 9 L898 61 L779 61 L779 9 Z" />
      </clipPath>
      <clipPath clipPathUnits="userSpaceOnUse" id="clipPath44">
        <path d="M779 9 L903 9 L903 61 L779 61 L779 9 Z" />
      </clipPath>
      <clipPath clipPathUnits="userSpaceOnUse" id="clipPath45">
        <path d="M779 9 L901 9 L901 61 L779 61 L779 9 Z" />
      </clipPath>
      <clipPath clipPathUnits="userSpaceOnUse" id="clipPath46">
        <path d="M779 9 L902 9 L902 61 L779 61 L779 9 Z" />
      </clipPath>
      <clipPath clipPathUnits="userSpaceOnUse" id="clipPath47">
        <path d="M832 59 L844 59 L844 1302 L832 1302 L832 59 Z" />
      </clipPath>
      <clipPath clipPathUnits="userSpaceOnUse" id="clipPath48">
        <path d="M827 518 L849 518 L849 560 L827 560 L827 518 Z" />
      </clipPath>
      <clipPath clipPathUnits="userSpaceOnUse" id="clipPath49">
        <path d="M848 518 L901 518 L901 542 L848 542 L848 518 Z" />
      </clipPath>
      <clipPath clipPathUnits="userSpaceOnUse" id="clipPath50">
        <path d="M827 850 L849 850 L849 892 L827 892 L827 850 Z" />
      </clipPath>
      <clipPath clipPathUnits="userSpaceOnUse" id="clipPath51">
        <path d="M848 850 L901 850 L901 874 L848 874 L848 850 Z" />
      </clipPath>
      <clipPath clipPathUnits="userSpaceOnUse" id="clipPath52">
        <path d="M101 9 L173 9 L173 41 L101 41 L101 9 Z" />
      </clipPath>
      <clipPath clipPathUnits="userSpaceOnUse" id="clipPath53">
        <path d="M101 9 L178 9 L178 41 L101 41 L101 9 Z" />
      </clipPath>
      <clipPath clipPathUnits="userSpaceOnUse" id="clipPath54">
        <path d="M131 39 L143 39 L143 1302 L131 1302 L131 39 Z" />
      </clipPath>
      <clipPath clipPathUnits="userSpaceOnUse" id="clipPath55">
        <path d="M-1 -1 L1049 -1 L1049 1312 L-1 1312 L-1 -1 Z" />
      </clipPath>
      <clipPath clipPathUnits="userSpaceOnUse" id="clipPath56">
        <path d="M230 68 L614 68 L614 92 L230 92 L230 68 Z" />
      </clipPath>
      <clipPath clipPathUnits="userSpaceOnUse" id="clipPath57">
        <path d="M135 85 L147 85 L147 96 L135 96 L135 85 Z" />
      </clipPath>
      <clipPath clipPathUnits="userSpaceOnUse" id="clipPath58">
        <path d="M250 184 L481 184 L481 208 L250 208 L250 184 Z" />
      </clipPath>
      <clipPath clipPathUnits="userSpaceOnUse" id="clipPath59">
        <path d="M135 205 L147 205 L147 216 L135 216 L135 205 Z" />
      </clipPath>
      <clipPath clipPathUnits="userSpaceOnUse" id="clipPath60">
        <path d="M252 303 L460 303 L460 327 L252 327 L252 303 Z" />
      </clipPath>
      <clipPath clipPathUnits="userSpaceOnUse" id="clipPath61">
        <path d="M135 325 L147 325 L147 336 L135 336 L135 325 Z" />
      </clipPath>
      <clipPath clipPathUnits="userSpaceOnUse" id="clipPath62">
        <path d="M165 490 L502 490 L502 514 L165 514 L165 490 Z" />
      </clipPath>
      <clipPath clipPathUnits="userSpaceOnUse" id="clipPath63">
        <path d="M135 514 L147 514 L147 525 L135 525 L135 514 Z" />
      </clipPath>
      <clipPath clipPathUnits="userSpaceOnUse" id="clipPath64">
        <path d="M257 544 L431 544 L431 568 L257 568 L257 544 Z" />
      </clipPath>
      <clipPath clipPathUnits="userSpaceOnUse" id="clipPath65">
        <path d="M135 566 L147 566 L147 577 L135 577 L135 566 Z" />
      </clipPath>
      <clipPath clipPathUnits="userSpaceOnUse" id="clipPath66">
        <path d="M133 663 L545 663 L545 726 L133 726 L133 663 Z" />
      </clipPath>
      <clipPath clipPathUnits="userSpaceOnUse" id="clipPath67">
        <path d="M133 663 L546 663 L546 726 L133 726 L133 663 Z" />
      </clipPath>
      <clipPath clipPathUnits="userSpaceOnUse" id="clipPath68">
        <path d="M135 710 L147 710 L147 721 L135 721 L135 710 Z" />
      </clipPath>
      <clipPath clipPathUnits="userSpaceOnUse" id="clipPath69">
        <path d="M160 822 L497 822 L497 846 L160 846 L160 822 Z" />
      </clipPath>
      <clipPath clipPathUnits="userSpaceOnUse" id="clipPath70">
        <path d="M135 846 L147 846 L147 857 L135 857 L135 846 Z" />
      </clipPath>
      <clipPath clipPathUnits="userSpaceOnUse" id="clipPath71">
        <path d="M245 884 L503 884 L503 908 L245 908 L245 884 Z" />
      </clipPath>
      <clipPath clipPathUnits="userSpaceOnUse" id="clipPath72">
        <path d="M135 906 L147 906 L147 917 L135 917 L135 906 Z" />
      </clipPath>
      <clipPath clipPathUnits="userSpaceOnUse" id="clipPath73">
        <path d="M150 1007 L1029 1007 L1029 1031 L150 1031 L150 1007 Z" />
      </clipPath>
      <clipPath clipPathUnits="userSpaceOnUse" id="clipPath74">
        <path d="M135 1026 L147 1026 L147 1037 L135 1037 L135 1026 Z" />
      </clipPath>
      <clipPath clipPathUnits="userSpaceOnUse" id="clipPath75">
        <path d="M252 1124 L410 1124 L410 1148 L252 1148 L252 1124 Z" />
      </clipPath>
      <clipPath clipPathUnits="userSpaceOnUse" id="clipPath76">
        <path d="M135 1146 L147 1146 L147 1157 L135 1157 L135 1146 Z" />
      </clipPath>
      <clipPath clipPathUnits="userSpaceOnUse" id="clipPath77">
        <path d="M221 113 L606 113 L606 137 L221 137 L221 113 Z" />
      </clipPath>
      <clipPath clipPathUnits="userSpaceOnUse" id="clipPath78">
        <path d="M692 135 L704 135 L704 146 L692 146 L692 135 Z" />
      </clipPath>
      <clipPath clipPathUnits="userSpaceOnUse" id="clipPath79">
        <path d="M224 233 L578 233 L578 257 L224 257 L224 233 Z" />
      </clipPath>
      <clipPath clipPathUnits="userSpaceOnUse" id="clipPath80">
        <path d="M692 253 L704 253 L704 264 L692 264 L692 253 Z" />
      </clipPath>
      <clipPath clipPathUnits="userSpaceOnUse" id="clipPath81">
        <path d="M23 372 L859 372 L859 396 L23 396 L23 372 Z" />
      </clipPath>
      <clipPath clipPathUnits="userSpaceOnUse" id="clipPath82">
        <path d="M560 394 L572 394 L572 405 L560 405 L560 394 Z" />
      </clipPath>
      <clipPath clipPathUnits="userSpaceOnUse" id="clipPath83">
        <path d="M199 413 L762 413 L762 437 L199 437 L199 413 Z" />
      </clipPath>
      <clipPath clipPathUnits="userSpaceOnUse" id="clipPath84">
        <path d="M692 439 L704 439 L704 450 L692 450 L692 439 Z" />
      </clipPath>
      <clipPath clipPathUnits="userSpaceOnUse" id="clipPath85">
        <path d="M213 608 L659 608 L659 632 L213 632 L213 608 Z" />
      </clipPath>
      <clipPath clipPathUnits="userSpaceOnUse" id="clipPath86">
        <path d="M692 626 L704 626 L704 637 L692 637 L692 626 Z" />
      </clipPath>
      <clipPath clipPathUnits="userSpaceOnUse" id="clipPath87">
        <path d="M560 786 L572 786 L572 797 L560 797 L560 786 Z" />
      </clipPath>
      <clipPath clipPathUnits="userSpaceOnUse" id="clipPath88">
        <path d="M213 942 L669 942 L669 966 L213 966 L213 942 Z" />
      </clipPath>
      <clipPath clipPathUnits="userSpaceOnUse" id="clipPath89">
        <path d="M692 966 L704 966 L704 977 L692 977 L692 966 Z" />
      </clipPath>
      <clipPath clipPathUnits="userSpaceOnUse" id="clipPath90">
        <path d="M208 1065 L696 1065 L696 1089 L208 1089 L208 1065 Z" />
      </clipPath>
      <clipPath clipPathUnits="userSpaceOnUse" id="clipPath91">
        <path d="M692 1086 L704 1086 L704 1097 L692 1097 L692 1086 Z" />
      </clipPath>
      <clipPath clipPathUnits="userSpaceOnUse" id="clipPath92">
        <path d="M225 1187 L578 1187 L578 1211 L225 1211 L225 1187 Z" />
      </clipPath>
      <clipPath clipPathUnits="userSpaceOnUse" id="clipPath93">
        <path d="M692 1206 L704 1206 L704 1217 L692 1217 L692 1206 Z" />
      </clipPath>
    </defs>
    <g font-size="19" fill="rgb(255,245,181)" font-family="'Lucida Sans'" stroke-linejoin="round" stroke="rgb(255,245,181)" stroke-width="0" stroke-miterlimit="0">
      <rect x="653" y="10" clip-path="url(#clipPath1)" width="117" height="50" stroke="none" />
    </g>
    <g stroke-width="0.1" font-size="19" font-family="'Lucida Sans'" stroke-linecap="butt">
      <rect x="653" y="10" clip-path="url(#clipPath1)" fill="none" width="116" height="49" />
      <text xml:space="preserve" x="687" y="21" clip-path="url(#clipPath2)" stroke="none">steve</text>
      <text xml:space="preserve" x="705" y="43" clip-path="url(#clipPath3)" stroke="none">: </text>
      <text xml:space="preserve" x="657" y="65" clip-path="url(#clipPath2)" stroke="none">actCoordi...</text>
      <line clip-path="url(#clipPath4)" fill="none" x1="710" x2="710" y1="60" y2="1301" stroke-dasharray="10,10" stroke-width="1.1" />
    </g>
    <g stroke-linecap="butt" font-size="19" fill="rgb(77,137,20)" font-family="'Lucida Sans'" stroke-dasharray="10,10" stroke="rgb(77,137,20)" stroke-width="1.1">
      <rect x="701" y="90" clip-path="url(#clipPath5)" width="20" height="40" stroke="none" />
      <rect x="702" y="91" clip-path="url(#clipPath5)" fill="none" width="18" stroke-dasharray="none" height="38" stroke-width="2.1" />
      <text x="722" y="109" clip-path="url(#clipPath6)" stroke-dasharray="none" stroke="none" stroke-width="2.1" xml:space="preserve">tsi10</text>
      <rect x="701" y="210" clip-path="url(#clipPath7)" width="20" stroke-dasharray="none" height="40" stroke="none" stroke-width="2.1" />
      <rect x="702" y="211" clip-path="url(#clipPath7)" fill="none" width="18" stroke-dasharray="none" height="38" stroke-width="2.1" />
      <text x="722" y="229" clip-path="url(#clipPath8)" stroke-dasharray="none" stroke="none" stroke-width="2.1" xml:space="preserve">tsi11</text>
      <rect x="701" y="330" clip-path="url(#clipPath9)" width="20" stroke-dasharray="none" height="40" stroke="none" stroke-width="2.1" />
      <rect x="702" y="331" clip-path="url(#clipPath9)" fill="none" width="18" stroke-dasharray="none" height="38" stroke-width="2.1" />
      <text x="722" y="349" clip-path="url(#clipPath10)" stroke-dasharray="none" stroke="none" stroke-width="2.1" xml:space="preserve">tsi12</text>
      <rect x="701" y="571" clip-path="url(#clipPath11)" width="20" stroke-dasharray="none" height="40" stroke="none" stroke-width="2.1" />
      <rect x="702" y="572" clip-path="url(#clipPath11)" fill="none" width="18" stroke-dasharray="none" height="38" stroke-width="2.1" />
      <text x="722" y="590" clip-path="url(#clipPath12)" stroke-dasharray="none" stroke="none" stroke-width="2.1" xml:space="preserve">tsi14</text>
      <rect x="701" y="911" clip-path="url(#clipPath13)" width="20" stroke-dasharray="none" height="40" stroke="none" stroke-width="2.1" />
      <rect x="702" y="912" clip-path="url(#clipPath13)" fill="none" width="18" stroke-dasharray="none" height="38" stroke-width="2.1" />
      <text x="722" y="930" clip-path="url(#clipPath14)" stroke-dasharray="none" stroke="none" stroke-width="2.1" xml:space="preserve">tsi17</text>
      <rect x="701" y="1031" clip-path="url(#clipPath15)" width="20" stroke-dasharray="none" height="40" stroke="none" stroke-width="2.1" />
      <rect x="702" y="1032" clip-path="url(#clipPath15)" fill="none" width="18" stroke-dasharray="none" height="38" stroke-width="2.1" />
      <text x="722" y="1050" clip-path="url(#clipPath16)" stroke-dasharray="none" stroke="none" stroke-width="2.1" xml:space="preserve">tsi18</text>
      <rect x="701" y="1151" clip-path="url(#clipPath17)" width="20" stroke-dasharray="none" height="40" stroke="none" stroke-width="2.1" />
      <rect x="702" y="1152" clip-path="url(#clipPath17)" fill="none" width="18" stroke-dasharray="none" height="38" stroke-width="2.1" />
      <text x="722" y="1170" clip-path="url(#clipPath18)" stroke-dasharray="none" stroke="none" stroke-width="2.1" xml:space="preserve">tsi19</text>
    </g>
    <g stroke-linecap="butt" font-size="19" fill="rgb(204,242,166)" font-family="'Lucida Sans'" stroke="rgb(204,242,166)" stroke-width="2.1">
      <rect x="701" y="140" clip-path="url(#clipPath19)" width="20" height="40" stroke="none" />
      <rect x="701" y="140" clip-path="url(#clipPath19)" fill="none" width="19" height="39" stroke="rgb(209,209,209)" stroke-width="0.1" />
      <text x="722" y="159" clip-path="url(#clipPath20)" fill="rgb(77,137,20)" stroke="none" stroke-width="0.1" xml:space="preserve">tsi10</text>
      <rect x="701" y="258" clip-path="url(#clipPath21)" width="20" height="40" stroke="none" stroke-width="0.1" />
      <rect x="701" y="258" clip-path="url(#clipPath21)" fill="none" width="19" height="39" stroke="rgb(209,209,209)" stroke-width="0.1" />
      <text x="722" y="277" clip-path="url(#clipPath22)" fill="rgb(77,137,20)" stroke="none" stroke-width="0.1" xml:space="preserve">tsi11</text>
      <rect x="701" y="444" clip-path="url(#clipPath23)" width="20" height="40" stroke="none" stroke-width="0.1" />
      <rect x="701" y="444" clip-path="url(#clipPath23)" fill="none" width="19" height="39" stroke="rgb(209,209,209)" stroke-width="0.1" />
      <text x="722" y="463" clip-path="url(#clipPath24)" fill="rgb(77,137,20)" stroke="none" stroke-width="0.1" xml:space="preserve">tsi12</text>
      <rect x="701" y="631" clip-path="url(#clipPath25)" width="20" height="40" stroke="none" stroke-width="0.1" />
      <rect x="701" y="631" clip-path="url(#clipPath25)" fill="none" width="19" height="39" stroke="rgb(209,209,209)" stroke-width="0.1" />
      <text x="722" y="650" clip-path="url(#clipPath26)" fill="rgb(77,137,20)" stroke="none" stroke-width="0.1" xml:space="preserve">tsi14</text>
      <rect x="701" y="971" clip-path="url(#clipPath27)" width="20" height="40" stroke="none" stroke-width="0.1" />
      <rect x="701" y="971" clip-path="url(#clipPath27)" fill="none" width="19" height="39" stroke="rgb(209,209,209)" stroke-width="0.1" />
      <text x="722" y="990" clip-path="url(#clipPath28)" fill="rgb(77,137,20)" stroke="none" stroke-width="0.1" xml:space="preserve">tsi17</text>
      <rect x="701" y="1091" clip-path="url(#clipPath29)" width="20" height="40" stroke="none" stroke-width="0.1" />
      <rect x="701" y="1091" clip-path="url(#clipPath29)" fill="none" width="19" height="39" stroke="rgb(209,209,209)" stroke-width="0.1" />
      <text x="722" y="1110" clip-path="url(#clipPath30)" fill="rgb(77,137,20)" stroke="none" stroke-width="0.1" xml:space="preserve">tsi18</text>
      <rect x="701" y="1211" clip-path="url(#clipPath31)" width="20" height="40" stroke="none" stroke-width="0.1" />
      <rect x="701" y="1211" clip-path="url(#clipPath31)" fill="none" width="19" height="39" stroke="rgb(209,209,209)" stroke-width="0.1" />
      <text x="722" y="1230" clip-path="url(#clipPath32)" fill="rgb(77,137,20)" stroke="none" stroke-width="0.1" xml:space="preserve">tsi19</text>
      <rect x="515" y="10" clip-path="url(#clipPath33)" fill="rgb(255,245,181)" width="128" height="50" stroke="none" stroke-width="0.1" />
      <rect x="515" y="10" clip-path="url(#clipPath33)" fill="none" width="127" height="49" stroke="black" stroke-width="0.1" />
      <text x="552" y="21" clip-path="url(#clipPath34)" fill="black" stroke="none" stroke-width="0.1" xml:space="preserve">tango</text>
      <text x="573" y="43" clip-path="url(#clipPath35)" fill="black" stroke="none" stroke-width="0.1" xml:space="preserve">: </text>
      <text x="522" y="65" clip-path="url(#clipPath34)" fill="black" stroke="none" stroke-width="0.1" xml:space="preserve">actComCo...</text>
    </g>
    <g stroke-width="1.1" font-size="19" stroke-dasharray="10,10" font-family="'Lucida Sans'" stroke-linecap="butt">
      <line clip-path="url(#clipPath36)" fill="none" x1="578" x2="578" y1="60" y2="1301" />
      <rect x="569" y="715" clip-path="url(#clipPath37)" fill="rgb(77,137,20)" width="20" height="40" stroke="none" />
    </g>
    <g stroke-linecap="butt" font-size="19" fill="rgb(77,137,20)" font-family="'Lucida Sans'" stroke="rgb(77,137,20)" stroke-width="2.1">
      <rect x="570" y="716" clip-path="url(#clipPath37)" fill="none" width="18" height="38" />
      <text xml:space="preserve" x="590" y="734" clip-path="url(#clipPath38)" stroke="none">tsi15</text>
      <rect x="569" y="399" clip-path="url(#clipPath39)" fill="rgb(204,242,166)" width="20" height="40" stroke="none" />
      <rect x="569" y="399" clip-path="url(#clipPath39)" fill="none" width="19" height="39" stroke="rgb(209,209,209)" stroke-width="0.1" />
      <text x="590" y="418" clip-path="url(#clipPath40)" stroke="none" stroke-width="0.1" xml:space="preserve">tsi12</text>
      <rect x="569" y="791" clip-path="url(#clipPath41)" fill="rgb(204,242,166)" width="20" height="40" stroke="none" stroke-width="0.1" />
      <rect x="569" y="791" clip-path="url(#clipPath41)" fill="none" width="19" height="39" stroke="rgb(209,209,209)" stroke-width="0.1" />
      <text x="590" y="810" clip-path="url(#clipPath42)" stroke="none" stroke-width="0.1" xml:space="preserve">tsi15</text>
      <rect x="780" y="10" clip-path="url(#clipPath43)" fill="rgb(255,245,181)" width="117" height="50" stroke="none" stroke-width="0.1" />
      <rect x="780" y="10" clip-path="url(#clipPath43)" fill="none" width="116" height="49" stroke="black" stroke-width="0.1" />
      <text x="797" y="21" clip-path="url(#clipPath44)" fill="black" stroke="none" stroke-width="0.1" xml:space="preserve">theClock</text>
      <text x="832" y="43" clip-path="url(#clipPath45)" fill="black" stroke="none" stroke-width="0.1" xml:space="preserve">: </text>
      <text x="782" y="65" clip-path="url(#clipPath46)" fill="black" stroke="none" stroke-width="0.1" xml:space="preserve">actActivator</text>
    </g>
    <g stroke-width="1.1" font-size="19" stroke-dasharray="10,10" font-family="'Lucida Sans'" stroke-linecap="butt">
      <line clip-path="url(#clipPath47)" fill="none" x1="837" x2="837" y1="60" y2="1301" />
      <rect x="828" y="519" clip-path="url(#clipPath48)" fill="rgb(77,137,20)" width="20" height="40" stroke="none" />
    </g>
    <g stroke-linecap="butt" font-size="19" fill="rgb(77,137,20)" font-family="'Lucida Sans'" stroke="rgb(77,137,20)" stroke-width="2.1">
      <rect x="829" y="520" clip-path="url(#clipPath48)" fill="none" width="18" height="38" />
      <text xml:space="preserve" x="849" y="538" clip-path="url(#clipPath49)" stroke="none">tsi13</text>
      <rect x="828" y="851" clip-path="url(#clipPath50)" width="20" height="40" stroke="none" />
      <rect x="829" y="852" clip-path="url(#clipPath50)" fill="none" width="18" height="38" />
      <text xml:space="preserve" x="849" y="870" clip-path="url(#clipPath51)" stroke="none">tsi16</text>
      <rect x="102" y="10" clip-path="url(#clipPath52)" fill="rgb(238,201,142)" width="70" height="30" stroke="none" />
      <rect x="102" y="10" clip-path="url(#clipPath52)" fill="none" width="69" height="29" stroke="black" stroke-width="0.1" />
      <text x="104" y="33" clip-path="url(#clipPath53)" fill="black" stroke="none" stroke-width="0.1" xml:space="preserve">System</text>
    </g>
    <g stroke-width="1.1" font-size="19" stroke-dasharray="10,10" font-family="'Lucida Sans'" stroke-linecap="butt">
      <line clip-path="url(#clipPath54)" fill="none" x1="136" x2="136" y1="40" y2="1301" />
    </g>
    <g stroke-linecap="butt" font-size="19" fill="rgb(136,136,136)" font-family="'Lucida Sans'" stroke="rgb(136,136,136)" stroke-width="2.1">
      <line clip-path="url(#clipPath55)" fill="none" x1="701" x2="137" y1="90" y2="90" />
      <text x="231" y="88" clip-path="url(#clipPath56)" fill="black" stroke="none" xml:space="preserve">oeLogin(steve,pwdMessirExcalibur2017)</text>
      <line clip-path="url(#clipPath57)" fill="none" x1="144" x2="137" y1="87" y2="90" />
      <line clip-path="url(#clipPath57)" fill="none" x1="137" x2="144" y1="90" y2="93" />
      <line clip-path="url(#clipPath55)" fill="none" x1="701" x2="137" y1="210" y2="210" />
      <text x="251" y="204" clip-path="url(#clipPath58)" fill="black" stroke="none" xml:space="preserve">oeGetCrisisSet(pending)</text>
      <line clip-path="url(#clipPath59)" fill="none" x1="144" x2="137" y1="207" y2="210" />
      <line clip-path="url(#clipPath59)" fill="none" x1="137" x2="144" y1="210" y2="213" />
      <line clip-path="url(#clipPath55)" fill="none" x1="701" x2="137" y1="330" y2="330" />
      <text x="253" y="323" clip-path="url(#clipPath60)" fill="black" stroke="none" xml:space="preserve">oeSetCrisisHandler(1)</text>
      <line clip-path="url(#clipPath61)" fill="none" x1="144" x2="137" y1="327" y2="330" />
      <line clip-path="url(#clipPath61)" fill="none" x1="137" x2="144" y1="330" y2="333" />
      <line clip-path="url(#clipPath55)" fill="none" x1="828" x2="137" y1="519" y2="519" />
      <text x="166" y="510" clip-path="url(#clipPath62)" fill="black" stroke="none" xml:space="preserve">oeSetClock(2017:11:26 - 10:45:00)</text>
      <line clip-path="url(#clipPath63)" fill="none" x1="144" x2="137" y1="516" y2="519" />
      <line clip-path="url(#clipPath63)" fill="none" x1="137" x2="144" y1="519" y2="522" />
      <line clip-path="url(#clipPath55)" fill="none" x1="701" x2="137" y1="571" y2="571" />
      <text x="258" y="564" clip-path="url(#clipPath64)" fill="black" stroke="none" xml:space="preserve">oeValidateAlert(1)</text>
      <line clip-path="url(#clipPath65)" fill="none" x1="144" x2="137" y1="568" y2="571" />
      <line clip-path="url(#clipPath65)" fill="none" x1="137" x2="144" y1="571" y2="574" />
      <line clip-path="url(#clipPath55)" fill="none" x1="569" x2="137" y1="715" y2="715" />
      <text x="159" y="691" clip-path="url(#clipPath66)" fill="black" stroke="none" xml:space="preserve">oeAlert(witness,2017:11:26,10:20:00,</text>
      <text x="137" y="713" clip-path="url(#clipPath67)" fill="black" stroke="none" xml:space="preserve">+3524666445000,49.627095:6.160251,...</text>
      <line clip-path="url(#clipPath68)" fill="none" x1="144" x2="137" y1="712" y2="715" />
      <line clip-path="url(#clipPath68)" fill="none" x1="137" x2="144" y1="715" y2="718" />
      <line clip-path="url(#clipPath55)" fill="none" x1="828" x2="137" y1="851" y2="851" />
      <text x="161" y="842" clip-path="url(#clipPath69)" fill="black" stroke="none" xml:space="preserve">oeSetClock(2017:11:26 - 12:45:00)</text>
      <line clip-path="url(#clipPath70)" fill="none" x1="144" x2="137" y1="848" y2="851" />
      <line clip-path="url(#clipPath70)" fill="none" x1="137" x2="144" y1="851" y2="854" />
      <line clip-path="url(#clipPath55)" fill="none" x1="701" x2="137" y1="911" y2="911" />
      <text x="246" y="904" clip-path="url(#clipPath71)" fill="black" stroke="none" xml:space="preserve">oeSetCrisisStatus(1,solved)</text>
      <line clip-path="url(#clipPath72)" fill="none" x1="144" x2="137" y1="908" y2="911" />
      <line clip-path="url(#clipPath72)" fill="none" x1="137" x2="144" y1="911" y2="914" />
      <line clip-path="url(#clipPath55)" fill="none" x1="701" x2="137" y1="1031" y2="1031" />
      <text x="151" y="1027" clip-path="url(#clipPath73)" fill="black" stroke="none" xml:space="preserve">oeReportOnCrisis(1,3 victims sent to hospital, 2 cars evacuated and 4 rescue unit mobilized)</text>
      <line clip-path="url(#clipPath74)" fill="none" x1="144" x2="137" y1="1028" y2="1031" />
      <line clip-path="url(#clipPath74)" fill="none" x1="137" x2="144" y1="1031" y2="1034" />
      <line clip-path="url(#clipPath55)" fill="none" x1="701" x2="137" y1="1151" y2="1151" />
      <text x="253" y="1144" clip-path="url(#clipPath75)" fill="black" stroke="none" xml:space="preserve">oeCloseCrisis(1)</text>
      <line clip-path="url(#clipPath76)" fill="none" x1="144" x2="137" y1="1148" y2="1151" />
      <line clip-path="url(#clipPath76)" fill="none" x1="137" x2="144" y1="1151" y2="1154" />
      <line clip-path="url(#clipPath55)" fill="none" x1="701" x2="137" y1="140" y2="140" stroke-dasharray="5,5" />
      <text x="222" y="133" clip-path="url(#clipPath77)" fill="black" stroke-dasharray="5,5" stroke="none" xml:space="preserve">ieMessage(You are logged ! Welcome ...)</text>
      <line clip-path="url(#clipPath78)" fill="none" x1="694" x2="701" y1="143" y2="140" />
      <line clip-path="url(#clipPath78)" fill="none" x1="701" x2="694" y1="140" y2="137" />
      <line clip-path="url(#clipPath55)" fill="none" x1="701" x2="137" y1="258" y2="258" stroke-dasharray="5,5" />
      <text x="225" y="253" clip-path="url(#clipPath79)" fill="black" stroke-dasharray="5,5" stroke="none" xml:space="preserve">ieSendACrisis(crisis with ID 1 details)</text>
      <line clip-path="url(#clipPath80)" fill="none" x1="694" x2="701" y1="261" y2="258" />
      <line clip-path="url(#clipPath80)" fill="none" x1="701" x2="694" y1="258" y2="255" />
      <line clip-path="url(#clipPath55)" fill="none" x1="569" x2="137" y1="399" y2="399" stroke-dasharray="5,5" />
      <text x="24" y="392" clip-path="url(#clipPath81)" fill="black" stroke-dasharray="5,5" stroke="none" xml:space="preserve">ieSmsSend(+3524666445252,The handling of your alert by our services is in progress !)</text>
      <line clip-path="url(#clipPath82)" fill="none" x1="562" x2="569" y1="402" y2="399" />
      <line clip-path="url(#clipPath82)" fill="none" x1="569" x2="562" y1="399" y2="396" />
      <line clip-path="url(#clipPath55)" fill="none" x1="701" x2="137" y1="444" y2="444" stroke-dasharray="5,5" />
      <text x="200" y="433" clip-path="url(#clipPath83)" fill="black" stroke-dasharray="5,5" stroke="none" xml:space="preserve">ieMessage(You are now considered as handling the crisis !)</text>
      <line clip-path="url(#clipPath84)" fill="none" x1="694" x2="701" y1="447" y2="444" />
      <line clip-path="url(#clipPath84)" fill="none" x1="701" x2="694" y1="444" y2="441" />
      <line clip-path="url(#clipPath55)" fill="none" x1="701" x2="137" y1="631" y2="631" stroke-dasharray="5,5" />
      <text x="214" y="628" clip-path="url(#clipPath85)" fill="black" stroke-dasharray="5,5" stroke="none" xml:space="preserve">ieMessage(The Alert is now declared as valid !)</text>
      <line clip-path="url(#clipPath86)" fill="none" x1="694" x2="701" y1="634" y2="631" />
      <line clip-path="url(#clipPath86)" fill="none" x1="701" x2="694" y1="631" y2="628" />
      <line clip-path="url(#clipPath55)" fill="none" x1="569" x2="137" y1="791" y2="791" stroke-dasharray="5,5" />
      <line clip-path="url(#clipPath87)" fill="none" x1="562" x2="569" y1="794" y2="791" />
      <line clip-path="url(#clipPath87)" fill="none" x1="569" x2="562" y1="791" y2="788" />
      <line clip-path="url(#clipPath55)" fill="none" x1="701" x2="137" y1="971" y2="971" stroke-dasharray="5,5" />
      <text x="214" y="962" clip-path="url(#clipPath88)" fill="black" stroke-dasharray="5,5" stroke="none" xml:space="preserve">ieMessage(The crisis status has been updated !)</text>
      <line clip-path="url(#clipPath89)" fill="none" x1="694" x2="701" y1="974" y2="971" />
      <line clip-path="url(#clipPath89)" fill="none" x1="701" x2="694" y1="971" y2="968" />
      <line clip-path="url(#clipPath55)" fill="none" x1="701" x2="137" y1="1091" y2="1091" stroke-dasharray="5,5" />
      <text x="209" y="1085" clip-path="url(#clipPath90)" fill="black" stroke-dasharray="5,5" stroke="none" xml:space="preserve">ieMessage(The crisis comment has been updated !)</text>
      <line clip-path="url(#clipPath91)" fill="none" x1="694" x2="701" y1="1094" y2="1091" />
      <line clip-path="url(#clipPath91)" fill="none" x1="701" x2="694" y1="1091" y2="1088" />
      <line clip-path="url(#clipPath55)" fill="none" x1="701" x2="137" y1="1211" y2="1211" stroke-dasharray="5,5" />
      <text x="226" y="1207" clip-path="url(#clipPath92)" fill="black" stroke-dasharray="5,5" stroke="none" xml:space="preserve">ieMessage(The crisis is now closed !)</text>
      <line clip-path="url(#clipPath93)" fill="none" x1="694" x2="701" y1="1214" y2="1211" />
      <line clip-path="url(#clipPath93)" fill="none" x1="701" x2="694" y1="1211" y2="1208" />
    </g>
  </g>
</svg>

