<?xml version="1.0" encoding="UTF-8"?>
<svg xmlns="http://www.w3.org/2000/svg" xmlns:xlink="http://www.w3.org/1999/xlink" stroke-dasharray="none" shape-rendering="auto" font-family="'Dialog'" width="1435" text-rendering="auto" fill-opacity="1" contentScriptType="text/ecmascript" color-interpolation="auto" color-rendering="auto" preserveAspectRatio="xMidYMid meet" font-size="12" viewBox="0 0 1435 1010" fill="black" stroke="black" image-rendering="auto" stroke-miterlimit="10" zoomAndPan="magnify" version="1.0" stroke-linecap="square" stroke-linejoin="miter" contentStyleType="text/css" font-style="normal" height="1010" stroke-width="1" stroke-dashoffset="0" font-weight="normal" stroke-opacity="1">
  <!--Generated by the Batik Graphics2D SVG Generator-->
  <defs id="genericDefs" />
  <g>
    <defs id="defs1">
      <clipPath clipPathUnits="userSpaceOnUse" id="clipPath1">
        <path d="M934 9 L1041 9 L1041 61 L934 61 L934 9 Z" />
      </clipPath>
      <clipPath clipPathUnits="userSpaceOnUse" id="clipPath2">
        <path d="M934 9 L1046 9 L1046 61 L934 61 L934 9 Z" />
      </clipPath>
      <clipPath clipPathUnits="userSpaceOnUse" id="clipPath3">
        <path d="M934 9 L1044 9 L1044 61 L934 61 L934 9 Z" />
      </clipPath>
      <clipPath clipPathUnits="userSpaceOnUse" id="clipPath4">
        <path d="M934 9 L1045 9 L1045 61 L934 61 L934 9 Z" />
      </clipPath>
      <clipPath clipPathUnits="userSpaceOnUse" id="clipPath5">
        <path d="M981 59 L993 59 L993 1001 L981 1001 L981 59 Z" />
      </clipPath>
      <clipPath clipPathUnits="userSpaceOnUse" id="clipPath6">
        <path d="M976 89 L998 89 L998 131 L976 131 L976 89 Z" />
      </clipPath>
      <clipPath clipPathUnits="userSpaceOnUse" id="clipPath7">
        <path d="M997 89 L1050 89 L1050 113 L997 113 L997 89 Z" />
      </clipPath>
      <clipPath clipPathUnits="userSpaceOnUse" id="clipPath8">
        <path d="M1049 9 L1148 9 L1148 61 L1049 61 L1049 9 Z" />
      </clipPath>
      <clipPath clipPathUnits="userSpaceOnUse" id="clipPath9">
        <path d="M1049 9 L1153 9 L1153 61 L1049 61 L1049 9 Z" />
      </clipPath>
      <clipPath clipPathUnits="userSpaceOnUse" id="clipPath10">
        <path d="M1049 9 L1151 9 L1151 61 L1049 61 L1049 9 Z" />
      </clipPath>
      <clipPath clipPathUnits="userSpaceOnUse" id="clipPath11">
        <path d="M1049 9 L1152 9 L1152 61 L1049 61 L1049 9 Z" />
      </clipPath>
      <clipPath clipPathUnits="userSpaceOnUse" id="clipPath12">
        <path d="M1092 59 L1104 59 L1104 1001 L1092 1001 L1092 59 Z" />
      </clipPath>
      <clipPath clipPathUnits="userSpaceOnUse" id="clipPath13">
        <path d="M1087 149 L1109 149 L1109 191 L1087 191 L1087 149 Z" />
      </clipPath>
      <clipPath clipPathUnits="userSpaceOnUse" id="clipPath14">
        <path d="M1108 149 L1161 149 L1161 173 L1108 173 L1108 149 Z" />
      </clipPath>
      <clipPath clipPathUnits="userSpaceOnUse" id="clipPath15">
        <path d="M1087 555 L1109 555 L1109 597 L1087 597 L1087 555 Z" />
      </clipPath>
      <clipPath clipPathUnits="userSpaceOnUse" id="clipPath16">
        <path d="M1108 555 L1161 555 L1161 579 L1108 579 L1108 555 Z" />
      </clipPath>
      <clipPath clipPathUnits="userSpaceOnUse" id="clipPath17">
        <path d="M1087 789 L1109 789 L1109 831 L1087 831 L1087 789 Z" />
      </clipPath>
      <clipPath clipPathUnits="userSpaceOnUse" id="clipPath18">
        <path d="M1108 789 L1161 789 L1161 813 L1108 813 L1108 789 Z" />
      </clipPath>
      <clipPath clipPathUnits="userSpaceOnUse" id="clipPath19">
        <path d="M1156 9 L1285 9 L1285 61 L1156 61 L1156 9 Z" />
      </clipPath>
      <clipPath clipPathUnits="userSpaceOnUse" id="clipPath20">
        <path d="M1156 9 L1288 9 L1288 61 L1156 61 L1156 9 Z" />
      </clipPath>
      <clipPath clipPathUnits="userSpaceOnUse" id="clipPath21">
        <path d="M1156 9 L1289 9 L1289 61 L1156 61 L1156 9 Z" />
      </clipPath>
      <clipPath clipPathUnits="userSpaceOnUse" id="clipPath22">
        <path d="M1214 59 L1226 59 L1226 1001 L1214 1001 L1214 59 Z" />
      </clipPath>
      <clipPath clipPathUnits="userSpaceOnUse" id="clipPath23">
        <path d="M1209 209 L1231 209 L1231 251 L1209 251 L1209 209 Z" />
      </clipPath>
      <clipPath clipPathUnits="userSpaceOnUse" id="clipPath24">
        <path d="M1230 209 L1283 209 L1283 233 L1230 233 L1230 209 Z" />
      </clipPath>
      <clipPath clipPathUnits="userSpaceOnUse" id="clipPath25">
        <path d="M1209 329 L1231 329 L1231 371 L1209 371 L1209 329 Z" />
      </clipPath>
      <clipPath clipPathUnits="userSpaceOnUse" id="clipPath26">
        <path d="M1230 329 L1283 329 L1283 353 L1230 353 L1230 329 Z" />
      </clipPath>
      <clipPath clipPathUnits="userSpaceOnUse" id="clipPath27">
        <path d="M1209 449 L1231 449 L1231 491 L1209 491 L1209 449 Z" />
      </clipPath>
      <clipPath clipPathUnits="userSpaceOnUse" id="clipPath28">
        <path d="M1230 449 L1283 449 L1283 473 L1230 473 L1230 449 Z" />
      </clipPath>
      <clipPath clipPathUnits="userSpaceOnUse" id="clipPath29">
        <path d="M1209 255 L1231 255 L1231 297 L1209 297 L1209 255 Z" />
      </clipPath>
      <clipPath clipPathUnits="userSpaceOnUse" id="clipPath30">
        <path d="M1230 255 L1283 255 L1283 279 L1230 279 L1230 255 Z" />
      </clipPath>
      <clipPath clipPathUnits="userSpaceOnUse" id="clipPath31">
        <path d="M1209 374 L1231 374 L1231 416 L1209 416 L1209 374 Z" />
      </clipPath>
      <clipPath clipPathUnits="userSpaceOnUse" id="clipPath32">
        <path d="M1230 374 L1283 374 L1283 398 L1230 398 L1230 374 Z" />
      </clipPath>
      <clipPath clipPathUnits="userSpaceOnUse" id="clipPath33">
        <path d="M1209 499 L1231 499 L1231 541 L1209 541 L1209 499 Z" />
      </clipPath>
      <clipPath clipPathUnits="userSpaceOnUse" id="clipPath34">
        <path d="M1230 499 L1283 499 L1283 523 L1230 523 L1230 499 Z" />
      </clipPath>
      <clipPath clipPathUnits="userSpaceOnUse" id="clipPath35">
        <path d="M1209 849 L1231 849 L1231 891 L1209 891 L1209 849 Z" />
      </clipPath>
      <clipPath clipPathUnits="userSpaceOnUse" id="clipPath36">
        <path d="M1230 849 L1283 849 L1283 873 L1230 873 L1230 849 Z" />
      </clipPath>
      <clipPath clipPathUnits="userSpaceOnUse" id="clipPath37">
        <path d="M1293 9 L1426 9 L1426 61 L1293 61 L1293 9 Z" />
      </clipPath>
      <clipPath clipPathUnits="userSpaceOnUse" id="clipPath38">
        <path d="M1293 9 L1431 9 L1431 61 L1293 61 L1293 9 Z" />
      </clipPath>
      <clipPath clipPathUnits="userSpaceOnUse" id="clipPath39">
        <path d="M1293 9 L1429 9 L1429 61 L1293 61 L1293 9 Z" />
      </clipPath>
      <clipPath clipPathUnits="userSpaceOnUse" id="clipPath40">
        <path d="M1353 59 L1365 59 L1365 1001 L1353 1001 L1353 59 Z" />
      </clipPath>
      <clipPath clipPathUnits="userSpaceOnUse" id="clipPath41">
        <path d="M1348 650 L1370 650 L1370 692 L1348 692 L1348 650 Z" />
      </clipPath>
      <clipPath clipPathUnits="userSpaceOnUse" id="clipPath42">
        <path d="M1369 650 L1422 650 L1422 674 L1369 674 L1369 650 Z" />
      </clipPath>
      <clipPath clipPathUnits="userSpaceOnUse" id="clipPath43">
        <path d="M1348 729 L1370 729 L1370 771 L1348 771 L1348 729 Z" />
      </clipPath>
      <clipPath clipPathUnits="userSpaceOnUse" id="clipPath44">
        <path d="M1369 729 L1422 729 L1422 753 L1369 753 L1369 729 Z" />
      </clipPath>
      <clipPath clipPathUnits="userSpaceOnUse" id="clipPath45">
        <path d="M795 9 L926 9 L926 61 L795 61 L795 9 Z" />
      </clipPath>
      <clipPath clipPathUnits="userSpaceOnUse" id="clipPath46">
        <path d="M795 9 L930 9 L930 61 L795 61 L795 9 Z" />
      </clipPath>
      <clipPath clipPathUnits="userSpaceOnUse" id="clipPath47">
        <path d="M795 9 L929 9 L929 61 L795 61 L795 9 Z" />
      </clipPath>
      <clipPath clipPathUnits="userSpaceOnUse" id="clipPath48">
        <path d="M854 59 L866 59 L866 1001 L854 1001 L854 59 Z" />
      </clipPath>
      <clipPath clipPathUnits="userSpaceOnUse" id="clipPath49">
        <path d="M849 909 L871 909 L871 951 L849 951 L849 909 Z" />
      </clipPath>
      <clipPath clipPathUnits="userSpaceOnUse" id="clipPath50">
        <path d="M870 909 L923 909 L923 933 L870 933 L870 909 Z" />
      </clipPath>
      <clipPath clipPathUnits="userSpaceOnUse" id="clipPath51">
        <path d="M92 9 L164 9 L164 41 L92 41 L92 9 Z" />
      </clipPath>
      <clipPath clipPathUnits="userSpaceOnUse" id="clipPath52">
        <path d="M92 9 L169 9 L169 41 L92 41 L92 9 Z" />
      </clipPath>
      <clipPath clipPathUnits="userSpaceOnUse" id="clipPath53">
        <path d="M122 39 L134 39 L134 1001 L122 1001 L122 39 Z" />
      </clipPath>
      <clipPath clipPathUnits="userSpaceOnUse" id="clipPath54">
        <path d="M-1 -1 L1436 -1 L1436 1011 L-1 1011 L-1 -1 Z" />
      </clipPath>
      <clipPath clipPathUnits="userSpaceOnUse" id="clipPath55">
        <path d="M415 63 L751 63 L751 87 L415 87 L415 63 Z" />
      </clipPath>
      <clipPath clipPathUnits="userSpaceOnUse" id="clipPath56">
        <path d="M126 85 L138 85 L138 96 L126 96 L126 85 Z" />
      </clipPath>
      <clipPath clipPathUnits="userSpaceOnUse" id="clipPath57">
        <path d="M414 126 L751 126 L751 150 L414 150 L414 126 Z" />
      </clipPath>
      <clipPath clipPathUnits="userSpaceOnUse" id="clipPath58">
        <path d="M126 145 L138 145 L138 156 L126 156 L126 145 Z" />
      </clipPath>
      <clipPath clipPathUnits="userSpaceOnUse" id="clipPath59">
        <path d="M413 181 L730 181 L730 205 L413 205 L413 181 Z" />
      </clipPath>
      <clipPath clipPathUnits="userSpaceOnUse" id="clipPath60">
        <path d="M126 205 L138 205 L138 216 L126 216 L126 205 Z" />
      </clipPath>
      <clipPath clipPathUnits="userSpaceOnUse" id="clipPath61">
        <path d="M399 302 L899 302 L899 326 L399 326 L399 302 Z" />
      </clipPath>
      <clipPath clipPathUnits="userSpaceOnUse" id="clipPath62">
        <path d="M126 325 L138 325 L138 336 L126 336 L126 325 Z" />
      </clipPath>
      <clipPath clipPathUnits="userSpaceOnUse" id="clipPath63">
        <path d="M446 421 L553 421 L553 445 L446 445 L446 421 Z" />
      </clipPath>
      <clipPath clipPathUnits="userSpaceOnUse" id="clipPath64">
        <path d="M126 445 L138 445 L138 456 L126 456 L126 445 Z" />
      </clipPath>
      <clipPath clipPathUnits="userSpaceOnUse" id="clipPath65">
        <path d="M410 524 L747 524 L747 548 L410 548 L410 524 Z" />
      </clipPath>
      <clipPath clipPathUnits="userSpaceOnUse" id="clipPath66">
        <path d="M126 551 L138 551 L138 562 L126 562 L126 551 Z" />
      </clipPath>
      <clipPath clipPathUnits="userSpaceOnUse" id="clipPath67">
        <path d="M421 594 L888 594 L888 662 L421 662 L421 594 Z" />
      </clipPath>
      <clipPath clipPathUnits="userSpaceOnUse" id="clipPath68">
        <path d="M421 594 L889 594 L889 662 L421 662 L421 594 Z" />
      </clipPath>
      <clipPath clipPathUnits="userSpaceOnUse" id="clipPath69">
        <path d="M126 646 L138 646 L138 657 L126 657 L126 646 Z" />
      </clipPath>
      <clipPath clipPathUnits="userSpaceOnUse" id="clipPath70">
        <path d="M423 763 L694 763 L694 787 L423 787 L423 763 Z" />
      </clipPath>
      <clipPath clipPathUnits="userSpaceOnUse" id="clipPath71">
        <path d="M126 785 L138 785 L138 796 L126 796 L126 785 Z" />
      </clipPath>
      <clipPath clipPathUnits="userSpaceOnUse" id="clipPath72">
        <path d="M404 229 L789 229 L789 253 L404 253 L404 229 Z" />
      </clipPath>
      <clipPath clipPathUnits="userSpaceOnUse" id="clipPath73">
        <path d="M1201 251 L1213 251 L1213 262 L1201 262 L1201 251 Z" />
      </clipPath>
      <clipPath clipPathUnits="userSpaceOnUse" id="clipPath74">
        <path d="M428 347 L637 347 L637 371 L428 371 L428 347 Z" />
      </clipPath>
      <clipPath clipPathUnits="userSpaceOnUse" id="clipPath75">
        <path d="M1201 370 L1213 370 L1213 381 L1201 381 L1201 370 Z" />
      </clipPath>
      <clipPath clipPathUnits="userSpaceOnUse" id="clipPath76">
        <path d="M401 471 L827 471 L827 495 L401 495 L401 471 Z" />
      </clipPath>
      <clipPath clipPathUnits="userSpaceOnUse" id="clipPath77">
        <path d="M1201 495 L1213 495 L1213 506 L1201 506 L1201 495 Z" />
      </clipPath>
      <clipPath clipPathUnits="userSpaceOnUse" id="clipPath78">
        <path d="M322 699 L1294 699 L1294 723 L322 723 L322 699 Z" />
      </clipPath>
      <clipPath clipPathUnits="userSpaceOnUse" id="clipPath79">
        <path d="M1340 725 L1352 725 L1352 736 L1340 736 L1340 725 Z" />
      </clipPath>
      <clipPath clipPathUnits="userSpaceOnUse" id="clipPath80">
        <path d="M344 825 L1169 825 L1169 849 L344 849 L344 825 Z" />
      </clipPath>
      <clipPath clipPathUnits="userSpaceOnUse" id="clipPath81">
        <path d="M1201 845 L1213 845 L1213 856 L1201 856 L1201 845 Z" />
      </clipPath>
      <clipPath clipPathUnits="userSpaceOnUse" id="clipPath82">
        <path d="M23 880 L848 880 L848 904 L23 904 L23 880 Z" />
      </clipPath>
      <clipPath clipPathUnits="userSpaceOnUse" id="clipPath83">
        <path d="M841 905 L853 905 L853 916 L841 916 L841 905 Z" />
      </clipPath>
    </defs>
    <g font-size="19" fill="rgb(255,245,181)" font-family="'Lucida Sans'" stroke-linejoin="round" stroke="rgb(255,245,181)" stroke-width="0" stroke-miterlimit="0">
      <rect x="935" y="10" clip-path="url(#clipPath1)" width="105" height="50" stroke="none" />
    </g>
    <g stroke-width="0.1" font-size="19" font-family="'Lucida Sans'" stroke-linecap="butt">
      <rect x="935" y="10" clip-path="url(#clipPath1)" fill="none" width="104" height="49" />
      <text xml:space="preserve" x="937" y="21" clip-path="url(#clipPath2)" stroke="none">theCreator</text>
      <text xml:space="preserve" x="981" y="43" clip-path="url(#clipPath3)" stroke="none">: </text>
      <text xml:space="preserve" x="937" y="65" clip-path="url(#clipPath4)" stroke="none">actMsrCr...</text>
      <line clip-path="url(#clipPath5)" fill="none" x1="986" x2="986" y1="60" y2="1000" stroke-dasharray="10,10" stroke-width="1.1" />
    </g>
    <g stroke-linecap="butt" font-size="19" fill="rgb(77,137,20)" font-family="'Lucida Sans'" stroke-dasharray="10,10" stroke="rgb(77,137,20)" stroke-width="1.1">
      <rect x="977" y="90" clip-path="url(#clipPath6)" width="20" height="40" stroke="none" />
      <rect x="978" y="91" clip-path="url(#clipPath6)" fill="none" width="18" stroke-dasharray="none" height="38" stroke-width="2.1" />
      <text x="998" y="109" clip-path="url(#clipPath7)" stroke-dasharray="none" stroke="none" stroke-width="2.1" xml:space="preserve">tsi01</text>
    </g>
    <g stroke-linecap="butt" font-size="19" fill="rgb(255,245,181)" font-family="'Lucida Sans'" stroke="rgb(255,245,181)" stroke-width="2.1">
      <rect x="1050" y="10" clip-path="url(#clipPath8)" width="97" height="50" stroke="none" />
      <rect x="1050" y="10" clip-path="url(#clipPath8)" fill="none" width="96" height="49" stroke="black" stroke-width="0.1" />
      <text x="1057" y="21" clip-path="url(#clipPath9)" fill="black" stroke="none" stroke-width="0.1" xml:space="preserve">theClock</text>
      <text x="1092" y="43" clip-path="url(#clipPath10)" fill="black" stroke="none" stroke-width="0.1" xml:space="preserve">: </text>
      <text x="1052" y="65" clip-path="url(#clipPath11)" fill="black" stroke="none" stroke-width="0.1" xml:space="preserve">actActiv...</text>
    </g>
    <g stroke-width="1.1" font-size="19" stroke-dasharray="10,10" font-family="'Lucida Sans'" stroke-linecap="butt">
      <line clip-path="url(#clipPath12)" fill="none" x1="1097" x2="1097" y1="60" y2="1000" />
      <rect x="1088" y="150" clip-path="url(#clipPath13)" fill="rgb(77,137,20)" width="20" height="40" stroke="none" />
    </g>
    <g stroke-linecap="butt" font-size="19" fill="rgb(77,137,20)" font-family="'Lucida Sans'" stroke="rgb(77,137,20)" stroke-width="2.1">
      <rect x="1089" y="151" clip-path="url(#clipPath13)" fill="none" width="18" height="38" />
      <text xml:space="preserve" x="1109" y="169" clip-path="url(#clipPath14)" stroke="none">tsi02</text>
      <rect x="1088" y="556" clip-path="url(#clipPath15)" width="20" height="40" stroke="none" />
      <rect x="1089" y="557" clip-path="url(#clipPath15)" fill="none" width="18" height="38" />
      <text xml:space="preserve" x="1109" y="575" clip-path="url(#clipPath16)" stroke="none">tsi06</text>
      <rect x="1088" y="790" clip-path="url(#clipPath17)" width="20" height="40" stroke="none" />
      <rect x="1089" y="791" clip-path="url(#clipPath17)" fill="none" width="18" height="38" />
      <text xml:space="preserve" x="1109" y="809" clip-path="url(#clipPath18)" stroke="none">tsi09</text>
      <rect x="1157" y="10" clip-path="url(#clipPath19)" fill="rgb(255,245,181)" width="127" height="50" stroke="none" />
      <rect x="1157" y="10" clip-path="url(#clipPath19)" fill="none" width="126" height="49" stroke="black" stroke-width="0.1" />
      <text x="1205" y="21" clip-path="url(#clipPath20)" fill="black" stroke="none" stroke-width="0.1" xml:space="preserve">bill</text>
      <text x="1214" y="43" clip-path="url(#clipPath20)" fill="black" stroke="none" stroke-width="0.1" xml:space="preserve">: </text>
      <text x="1159" y="65" clip-path="url(#clipPath21)" fill="black" stroke="none" stroke-width="0.1" xml:space="preserve">actAdminis...</text>
    </g>
    <g stroke-width="1.1" font-size="19" stroke-dasharray="10,10" font-family="'Lucida Sans'" stroke-linecap="butt">
      <line clip-path="url(#clipPath22)" fill="none" x1="1219" x2="1219" y1="60" y2="1000" />
      <rect x="1210" y="210" clip-path="url(#clipPath23)" fill="rgb(77,137,20)" width="20" height="40" stroke="none" />
    </g>
    <g stroke-linecap="butt" font-size="19" fill="rgb(77,137,20)" font-family="'Lucida Sans'" stroke="rgb(77,137,20)" stroke-width="2.1">
      <rect x="1211" y="211" clip-path="url(#clipPath23)" fill="none" width="18" height="38" />
      <text xml:space="preserve" x="1231" y="229" clip-path="url(#clipPath24)" stroke="none">tsi03</text>
      <rect x="1210" y="330" clip-path="url(#clipPath25)" width="20" height="40" stroke="none" />
      <rect x="1211" y="331" clip-path="url(#clipPath25)" fill="none" width="18" height="38" />
      <text xml:space="preserve" x="1231" y="349" clip-path="url(#clipPath26)" stroke="none">tsi04</text>
      <rect x="1210" y="450" clip-path="url(#clipPath27)" width="20" height="40" stroke="none" />
      <rect x="1211" y="451" clip-path="url(#clipPath27)" fill="none" width="18" height="38" />
      <text xml:space="preserve" x="1231" y="469" clip-path="url(#clipPath28)" stroke="none">tsi05</text>
      <rect x="1210" y="256" clip-path="url(#clipPath29)" fill="rgb(204,242,166)" width="20" height="40" stroke="none" />
      <rect x="1210" y="256" clip-path="url(#clipPath29)" fill="none" width="19" height="39" stroke="rgb(209,209,209)" stroke-width="0.1" />
      <text x="1231" y="275" clip-path="url(#clipPath30)" stroke="none" stroke-width="0.1" xml:space="preserve">tsi03</text>
      <rect x="1210" y="375" clip-path="url(#clipPath31)" fill="rgb(204,242,166)" width="20" height="40" stroke="none" stroke-width="0.1" />
      <rect x="1210" y="375" clip-path="url(#clipPath31)" fill="none" width="19" height="39" stroke="rgb(209,209,209)" stroke-width="0.1" />
      <text x="1231" y="394" clip-path="url(#clipPath32)" stroke="none" stroke-width="0.1" xml:space="preserve">tsi04</text>
      <rect x="1210" y="500" clip-path="url(#clipPath33)" fill="rgb(204,242,166)" width="20" height="40" stroke="none" stroke-width="0.1" />
      <rect x="1210" y="500" clip-path="url(#clipPath33)" fill="none" width="19" height="39" stroke="rgb(209,209,209)" stroke-width="0.1" />
      <text x="1231" y="519" clip-path="url(#clipPath34)" stroke="none" stroke-width="0.1" xml:space="preserve">tsi05</text>
      <rect x="1210" y="850" clip-path="url(#clipPath35)" fill="rgb(204,242,166)" width="20" height="40" stroke="none" stroke-width="0.1" />
      <rect x="1210" y="850" clip-path="url(#clipPath35)" fill="none" width="19" height="39" stroke="rgb(209,209,209)" stroke-width="0.1" />
      <text x="1231" y="869" clip-path="url(#clipPath36)" stroke="none" stroke-width="0.1" xml:space="preserve">tsi09</text>
      <rect x="1294" y="10" clip-path="url(#clipPath37)" fill="rgb(255,245,181)" width="131" height="50" stroke="none" stroke-width="0.1" />
      <rect x="1294" y="10" clip-path="url(#clipPath37)" fill="none" width="130" height="49" stroke="black" stroke-width="0.1" />
      <text x="1332" y="21" clip-path="url(#clipPath38)" fill="black" stroke="none" stroke-width="0.1" xml:space="preserve">tango</text>
      <text x="1353" y="43" clip-path="url(#clipPath39)" fill="black" stroke="none" stroke-width="0.1" xml:space="preserve">: </text>
      <text x="1302" y="65" clip-path="url(#clipPath38)" fill="black" stroke="none" stroke-width="0.1" xml:space="preserve">actComCo...</text>
    </g>
    <g stroke-width="1.1" font-size="19" stroke-dasharray="10,10" font-family="'Lucida Sans'" stroke-linecap="butt">
      <line clip-path="url(#clipPath40)" fill="none" x1="1358" x2="1358" y1="60" y2="1000" />
      <rect x="1349" y="651" clip-path="url(#clipPath41)" fill="rgb(77,137,20)" width="20" height="40" stroke="none" />
    </g>
    <g stroke-linecap="butt" font-size="19" fill="rgb(77,137,20)" font-family="'Lucida Sans'" stroke="rgb(77,137,20)" stroke-width="2.1">
      <rect x="1350" y="652" clip-path="url(#clipPath41)" fill="none" width="18" height="38" />
      <text xml:space="preserve" x="1370" y="670" clip-path="url(#clipPath42)" stroke="none">tsi07</text>
      <rect x="1349" y="730" clip-path="url(#clipPath43)" fill="rgb(204,242,166)" width="20" height="40" stroke="none" />
      <rect x="1349" y="730" clip-path="url(#clipPath43)" fill="none" width="19" height="39" stroke="rgb(209,209,209)" stroke-width="0.1" />
      <text x="1370" y="749" clip-path="url(#clipPath44)" stroke="none" stroke-width="0.1" xml:space="preserve">tsi07</text>
      <rect x="796" y="10" clip-path="url(#clipPath45)" fill="rgb(255,245,181)" width="129" height="50" stroke="none" stroke-width="0.1" />
      <rect x="796" y="10" clip-path="url(#clipPath45)" fill="none" width="128" height="49" stroke="black" stroke-width="0.1" />
      <text x="836" y="21" clip-path="url(#clipPath46)" fill="black" stroke="none" stroke-width="0.1" xml:space="preserve">steve</text>
      <text x="854" y="43" clip-path="url(#clipPath47)" fill="black" stroke="none" stroke-width="0.1" xml:space="preserve">: </text>
      <text x="800" y="65" clip-path="url(#clipPath46)" fill="black" stroke="none" stroke-width="0.1" xml:space="preserve">actCoordin...</text>
    </g>
    <g stroke-width="1.1" font-size="19" stroke-dasharray="10,10" font-family="'Lucida Sans'" stroke-linecap="butt">
      <line clip-path="url(#clipPath48)" fill="none" x1="859" x2="859" y1="60" y2="1000" />
      <rect x="850" y="910" clip-path="url(#clipPath49)" fill="rgb(204,242,166)" width="20" height="40" stroke="none" />
    </g>
    <g stroke-linecap="butt" font-size="19" fill="rgb(209,209,209)" font-family="'Lucida Sans'" stroke="rgb(209,209,209)" stroke-width="0.1">
      <rect x="850" y="910" clip-path="url(#clipPath49)" fill="none" width="19" height="39" />
      <text x="871" y="929" clip-path="url(#clipPath50)" fill="rgb(77,137,20)" stroke="none" xml:space="preserve">tsi09</text>
      <rect x="93" y="10" clip-path="url(#clipPath51)" fill="rgb(238,201,142)" width="70" height="30" stroke="none" />
      <rect x="93" y="10" clip-path="url(#clipPath51)" fill="none" width="69" height="29" stroke="black" />
      <text x="95" y="33" clip-path="url(#clipPath52)" fill="black" stroke="none" xml:space="preserve">System</text>
    </g>
    <g stroke-width="1.1" font-size="19" stroke-dasharray="10,10" font-family="'Lucida Sans'" stroke-linecap="butt">
      <line clip-path="url(#clipPath53)" fill="none" x1="127" x2="127" y1="40" y2="1000" />
    </g>
    <g stroke-linecap="butt" font-size="19" fill="rgb(136,136,136)" font-family="'Lucida Sans'" stroke="rgb(136,136,136)" stroke-width="2.1">
      <line clip-path="url(#clipPath54)" fill="none" x1="977" x2="128" y1="90" y2="90" />
      <text x="416" y="83" clip-path="url(#clipPath55)" fill="black" stroke="none" xml:space="preserve">oeCreateSystemAndEnvironment(4)</text>
      <line clip-path="url(#clipPath56)" fill="none" x1="135" x2="128" y1="87" y2="90" />
      <line clip-path="url(#clipPath56)" fill="none" x1="128" x2="135" y1="90" y2="93" />
      <line clip-path="url(#clipPath54)" fill="none" x1="1088" x2="128" y1="150" y2="150" />
      <text x="415" y="146" clip-path="url(#clipPath57)" fill="black" stroke="none" xml:space="preserve">oeSetClock(2017:11:24 - 03:20:00)</text>
      <line clip-path="url(#clipPath58)" fill="none" x1="135" x2="128" y1="147" y2="150" />
      <line clip-path="url(#clipPath58)" fill="none" x1="128" x2="135" y1="150" y2="153" />
      <line clip-path="url(#clipPath54)" fill="none" x1="1210" x2="128" y1="210" y2="210" />
      <text x="414" y="201" clip-path="url(#clipPath59)" fill="black" stroke="none" xml:space="preserve">oeLogin(icrashadmin,7WXC1359)</text>
      <line clip-path="url(#clipPath60)" fill="none" x1="135" x2="128" y1="207" y2="210" />
      <line clip-path="url(#clipPath60)" fill="none" x1="128" x2="135" y1="210" y2="213" />
      <line clip-path="url(#clipPath54)" fill="none" x1="1210" x2="128" y1="330" y2="330" />
      <text x="400" y="322" clip-path="url(#clipPath61)" fill="black" stroke="none" xml:space="preserve">oeAddCoordinator(1,steve,pwdMessirExcalibur2017)</text>
      <line clip-path="url(#clipPath62)" fill="none" x1="135" x2="128" y1="327" y2="330" />
      <line clip-path="url(#clipPath62)" fill="none" x1="128" x2="135" y1="330" y2="333" />
      <line clip-path="url(#clipPath54)" fill="none" x1="1210" x2="128" y1="450" y2="450" />
      <text x="447" y="441" clip-path="url(#clipPath63)" fill="black" stroke="none" xml:space="preserve">oeLogout()</text>
      <line clip-path="url(#clipPath64)" fill="none" x1="135" x2="128" y1="447" y2="450" />
      <line clip-path="url(#clipPath64)" fill="none" x1="128" x2="135" y1="450" y2="453" />
      <line clip-path="url(#clipPath54)" fill="none" x1="1088" x2="128" y1="556" y2="556" />
      <text x="411" y="544" clip-path="url(#clipPath65)" fill="black" stroke="none" xml:space="preserve">oeSetClock(2017:11:26 - 10:15:00)</text>
      <line clip-path="url(#clipPath66)" fill="none" x1="135" x2="128" y1="553" y2="556" />
      <line clip-path="url(#clipPath66)" fill="none" x1="128" x2="135" y1="556" y2="559" />
      <line clip-path="url(#clipPath54)" fill="none" x1="1349" x2="128" y1="651" y2="651" />
      <text x="474" y="614" clip-path="url(#clipPath67)" fill="black" stroke="none" xml:space="preserve">oeAlert(witness,2017:11:26,10:10:16,</text>
      <text x="430" y="636" clip-path="url(#clipPath68)" fill="black" stroke="none" xml:space="preserve">+3524666445252,49.627675:6.159590,3 cars </text>
      <text x="537" y="658" clip-path="url(#clipPath67)" fill="black" stroke="none" xml:space="preserve">involved in an accident.)</text>
      <line clip-path="url(#clipPath69)" fill="none" x1="135" x2="128" y1="648" y2="651" />
      <line clip-path="url(#clipPath69)" fill="none" x1="128" x2="135" y1="651" y2="654" />
      <line clip-path="url(#clipPath54)" fill="none" x1="1088" x2="128" y1="790" y2="790" />
      <text x="424" y="783" clip-path="url(#clipPath70)" fill="black" stroke="none" xml:space="preserve">oeSollicitateCrisisHandling()</text>
      <line clip-path="url(#clipPath71)" fill="none" x1="135" x2="128" y1="787" y2="790" />
      <line clip-path="url(#clipPath71)" fill="none" x1="128" x2="135" y1="790" y2="793" />
      <line clip-path="url(#clipPath54)" fill="none" x1="1210" x2="128" y1="256" y2="256" stroke-dasharray="5,5" />
      <text x="405" y="249" clip-path="url(#clipPath72)" fill="black" stroke-dasharray="5,5" stroke="none" xml:space="preserve">ieMessage(You are logged ! Welcome ...)</text>
      <line clip-path="url(#clipPath73)" fill="none" x1="1203" x2="1210" y1="259" y2="256" />
      <line clip-path="url(#clipPath73)" fill="none" x1="1210" x2="1203" y1="256" y2="253" />
      <line clip-path="url(#clipPath54)" fill="none" x1="1210" x2="128" y1="375" y2="375" stroke-dasharray="5,5" />
      <text x="429" y="367" clip-path="url(#clipPath74)" fill="black" stroke-dasharray="5,5" stroke="none" xml:space="preserve">ieCoordinatorAdded()</text>
      <line clip-path="url(#clipPath75)" fill="none" x1="1203" x2="1210" y1="378" y2="375" />
      <line clip-path="url(#clipPath75)" fill="none" x1="1210" x2="1203" y1="375" y2="372" />
      <line clip-path="url(#clipPath54)" fill="none" x1="1210" x2="128" y1="500" y2="500" stroke-dasharray="5,5" />
      <text x="402" y="491" clip-path="url(#clipPath76)" fill="black" stroke-dasharray="5,5" stroke="none" xml:space="preserve">ieMessage(You are logged out ! Good Bye ...)</text>
      <line clip-path="url(#clipPath77)" fill="none" x1="1203" x2="1210" y1="503" y2="500" />
      <line clip-path="url(#clipPath77)" fill="none" x1="1210" x2="1203" y1="500" y2="497" />
      <line clip-path="url(#clipPath54)" fill="none" x1="1349" x2="128" y1="730" y2="730" stroke-dasharray="5,5" />
      <text x="323" y="719" clip-path="url(#clipPath78)" fill="black" stroke-dasharray="5,5" stroke="none" xml:space="preserve">ieSmsSend(+3524666445252,Your alert has been registered. We will handle it and keep you informed)</text>
      <line clip-path="url(#clipPath79)" fill="none" x1="1342" x2="1349" y1="733" y2="730" />
      <line clip-path="url(#clipPath79)" fill="none" x1="1349" x2="1342" y1="730" y2="727" />
      <line clip-path="url(#clipPath54)" fill="none" x1="1210" x2="128" y1="850" y2="850" stroke-dasharray="5,5" />
      <text x="345" y="845" clip-path="url(#clipPath80)" fill="black" stroke-dasharray="5,5" stroke="none" xml:space="preserve">ieMessage(There are alerts pending since more than the defined delay. Please REACT !)</text>
      <line clip-path="url(#clipPath81)" fill="none" x1="1203" x2="1210" y1="853" y2="850" />
      <line clip-path="url(#clipPath81)" fill="none" x1="1210" x2="1203" y1="850" y2="847" />
      <line clip-path="url(#clipPath54)" fill="none" x1="850" x2="128" y1="910" y2="910" stroke-dasharray="5,5" />
      <text x="24" y="900" clip-path="url(#clipPath82)" fill="black" stroke-dasharray="5,5" stroke="none" xml:space="preserve">ieMessage(There are alerts pending since more than the defined delay. Please REACT !)</text>
      <line clip-path="url(#clipPath83)" fill="none" x1="843" x2="850" y1="913" y2="910" />
      <line clip-path="url(#clipPath83)" fill="none" x1="850" x2="843" y1="910" y2="907" />
    </g>
  </g>
</svg>

